NotoSansKaithi-Regular.ufo
<glyph name="ktZero" format="2">
  <advance width="511"/>
  <unicode hex="0966"/>
  <outline>
    <contour>
      <point x="260" y="100" type="curve" smooth="yes"/>
      <point x="385" y="100"/>
      <point x="462" y="197"/>
      <point x="462" y="313" type="curve" smooth="yes"/>
      <point x="462" y="437"/>
      <point x="375" y="536"/>
      <point x="250" y="536" type="curve" smooth="yes"/>
      <point x="139" y="536"/>
      <point x="44" y="448"/>
      <point x="44" y="319" type="curve" smooth="yes"/>
      <point x="44" y="180"/>
      <point x="146" y="100"/>
    </contour>
    <contour>
      <point x="255" y="170" type="curve" smooth="yes"/>
      <point x="177" y="170"/>
      <point x="125" y="228"/>
      <point x="125" y="314" type="curve" smooth="yes"/>
      <point x="125" y="404"/>
      <point x="174" y="465"/>
      <point x="255" y="465" type="curve" smooth="yes"/>
      <point x="335" y="465"/>
      <point x="380" y="402"/>
      <point x="380" y="318" type="curve" smooth="yes"/>
      <point x="380" y="244"/>
      <point x="344" y="170"/>
    </contour>
  </outline>
</glyph>
<glyph name="ktOne" format="2">
  <advance width="502"/>
  <unicode hex="0967"/>
  <outline>
    <contour>
      <point x="338" y="0" type="line"/>
      <point x="419" y="0" type="line"/>
      <point x="419" y="432" type="line" smooth="yes"/>
      <point x="419" y="550"/>
      <point x="353" y="627"/>
      <point x="243" y="627" type="curve" smooth="yes"/>
      <point x="148" y="627"/>
      <point x="78" y="562"/>
      <point x="78" y="473" type="curve" smooth="yes"/>
      <point x="78" y="378"/>
      <point x="161" y="310"/>
      <point x="252" y="310" type="curve" smooth="yes"/>
      <point x="284" y="310"/>
      <point x="311" y="315"/>
      <point x="338" y="328" type="curve"/>
    </contour>
    <contour>
      <point x="247" y="381" type="curve" smooth="yes"/>
      <point x="201" y="381"/>
      <point x="159" y="412"/>
      <point x="159" y="468" type="curve" smooth="yes"/>
      <point x="159" y="519"/>
      <point x="193" y="556"/>
      <point x="248" y="556" type="curve" smooth="yes"/>
      <point x="310" y="556"/>
      <point x="338" y="511"/>
      <point x="338" y="449" type="curve" smooth="yes"/>
      <point x="338" y="417" type="line"/>
      <point x="312" y="392"/>
      <point x="286" y="381"/>
    </contour>
  </outline>
</glyph>
<glyph name="ktTwo" format="2">
  <advance width="548"/>
  <unicode hex="0968"/>
  <outline>
    <contour>
      <point x="387" y="-5" type="curve"/>
      <point x="461" y="27" type="line"/>
      <point x="434" y="90"/>
      <point x="407" y="160"/>
      <point x="376" y="222" type="curve"/>
      <point x="430" y="265"/>
      <point x="465" y="333"/>
      <point x="465" y="413" type="curve" smooth="yes"/>
      <point x="465" y="519"/>
      <point x="397" y="627"/>
      <point x="259" y="627" type="curve" smooth="yes"/>
      <point x="193" y="627"/>
      <point x="142" y="605"/>
      <point x="96" y="559" type="curve"/>
      <point x="146" y="503" type="line"/>
      <point x="181" y="538"/>
      <point x="216" y="556"/>
      <point x="264" y="556" type="curve" smooth="yes"/>
      <point x="335" y="556"/>
      <point x="384" y="505"/>
      <point x="384" y="417" type="curve" smooth="yes"/>
      <point x="384" y="371"/>
      <point x="367" y="325"/>
      <point x="337" y="292" type="curve"/>
      <point x="293" y="362"/>
      <point x="242" y="411"/>
      <point x="176" y="411" type="curve" smooth="yes"/>
      <point x="121" y="411"/>
      <point x="63" y="375"/>
      <point x="63" y="310" type="curve" smooth="yes"/>
      <point x="63" y="226"/>
      <point x="151" y="174"/>
      <point x="237" y="174" type="curve" smooth="yes"/>
      <point x="262" y="174"/>
      <point x="285" y="178"/>
      <point x="308" y="186" type="curve"/>
      <point x="333" y="129"/>
      <point x="359" y="62"/>
    </contour>
    <contour>
      <point x="232" y="245" type="curve" smooth="yes"/>
      <point x="183" y="245"/>
      <point x="144" y="265"/>
      <point x="144" y="302" type="curve" smooth="yes"/>
      <point x="144" y="329"/>
      <point x="164" y="340"/>
      <point x="184" y="340" type="curve" smooth="yes"/>
      <point x="216" y="340"/>
      <point x="246" y="306"/>
      <point x="275" y="251" type="curve"/>
      <point x="262" y="247"/>
      <point x="247" y="245"/>
    </contour>
  </outline>
</glyph>
<glyph name="ktFour" format="2">
  <advance width="581"/>
  <unicode hex="096A"/>
  <outline>
    <contour>
      <point x="281" y="-5" type="curve" smooth="yes"/>
      <point x="364" y="-5"/>
      <point x="429" y="60"/>
      <point x="429" y="148" type="curve" smooth="yes"/>
      <point x="429" y="218"/>
      <point x="391" y="291"/>
      <point x="333" y="366" type="curve"/>
      <point x="387" y="423"/>
      <point x="460" y="487"/>
      <point x="554" y="567" type="curve"/>
      <point x="501" y="627" type="line"/>
      <point x="416" y="549"/>
      <point x="343" y="482"/>
      <point x="285" y="423" type="curve"/>
      <point x="228" y="488"/>
      <point x="157" y="557"/>
      <point x="85" y="627" type="curve"/>
      <point x="32" y="579" type="line"/>
      <point x="114" y="501"/>
      <point x="186" y="431"/>
      <point x="238" y="371" type="curve"/>
      <point x="168" y="290"/>
      <point x="130" y="220"/>
      <point x="130" y="147" type="curve" smooth="yes"/>
      <point x="130" y="58"/>
      <point x="197" y="-5"/>
    </contour>
    <contour>
      <point x="276" y="66" type="curve" smooth="yes"/>
      <point x="237" y="66"/>
      <point x="211" y="98"/>
      <point x="211" y="143" type="curve" smooth="yes"/>
      <point x="211" y="199"/>
      <point x="235" y="252"/>
      <point x="285" y="312" type="curve"/>
      <point x="326" y="255"/>
      <point x="348" y="204"/>
      <point x="348" y="153" type="curve" smooth="yes"/>
      <point x="348" y="101"/>
      <point x="318" y="66"/>
    </contour>
  </outline>
</glyph>
<glyph name="ktFive" format="2">
  <advance width="557"/>
  <unicode hex="096B"/>
  <outline>
    <contour>
      <point x="394" y="0" type="line"/>
      <point x="474" y="0" type="line"/>
      <point x="474" y="622" type="line"/>
      <point x="399" y="622" type="line"/>
      <point x="387" y="408"/>
      <point x="372" y="272"/>
      <point x="266" y="272" type="curve" smooth="yes"/>
      <point x="167" y="272"/>
      <point x="159" y="381"/>
      <point x="159" y="622" type="curve"/>
      <point x="78" y="622" type="line"/>
      <point x="78" y="367"/>
      <point x="100" y="202"/>
      <point x="271" y="202" type="curve" smooth="yes"/>
      <point x="315" y="202"/>
      <point x="360" y="217"/>
      <point x="394" y="258" type="curve"/>
    </contour>
  </outline>
</glyph>
<glyph name="ktSix" format="2">
  <advance width="523"/>
  <unicode hex="096C"/>
  <outline>
    <contour>
      <point x="409" y="-167" type="curve"/>
      <point x="459" y="-123" type="line"/>
      <point x="421" y="-84"/>
      <point x="383" y="-45"/>
      <point x="361" y="1" type="curve"/>
      <point x="435" y="17"/>
      <point x="494" y="60"/>
      <point x="494" y="121" type="curve" smooth="yes"/>
      <point x="494" y="175"/>
      <point x="450" y="228"/>
      <point x="377" y="228" type="curve" smooth="yes"/>
      <point x="310" y="228"/>
      <point x="259" y="178"/>
      <point x="259" y="103" type="curve" smooth="yes"/>
      <point x="259" y="90"/>
      <point x="260" y="79"/>
      <point x="262" y="67" type="curve"/>
      <point x="203" y="76"/>
      <point x="149" y="112"/>
      <point x="149" y="183" type="curve" smooth="yes"/>
      <point x="149" y="270"/>
      <point x="235" y="316"/>
      <point x="377" y="316" type="curve"/>
      <point x="367" y="396" type="line"/>
      <point x="303" y="396"/>
      <point x="246" y="385"/>
      <point x="199" y="366" type="curve"/>
      <point x="181" y="388"/>
      <point x="171" y="415"/>
      <point x="171" y="446" type="curve" smooth="yes"/>
      <point x="171" y="497"/>
      <point x="198" y="556"/>
      <point x="351" y="556" type="curve"/>
      <point x="345" y="627" type="line"/>
      <point x="179" y="627"/>
      <point x="90" y="568"/>
      <point x="90" y="460" type="curve" smooth="yes"/>
      <point x="90" y="409"/>
      <point x="115" y="367"/>
      <point x="145" y="335" type="curve"/>
      <point x="96" y="301"/>
      <point x="68" y="252"/>
      <point x="68" y="193" type="curve" smooth="yes"/>
      <point x="68" y="78"/>
      <point x="160" y="0"/>
      <point x="285" y="-4" type="curve"/>
      <point x="315" y="-68"/>
      <point x="366" y="-123"/>
    </contour>
    <contour>
      <point x="341" y="70" type="curve"/>
      <point x="340" y="77"/>
      <point x="340" y="85"/>
      <point x="340" y="93" type="curve" smooth="yes"/>
      <point x="340" y="131"/>
      <point x="357" y="157"/>
      <point x="382" y="157" type="curve" smooth="yes"/>
      <point x="399" y="157"/>
      <point x="414" y="143"/>
      <point x="414" y="126" type="curve" smooth="yes"/>
      <point x="414" y="93"/>
      <point x="381" y="77"/>
    </contour>
  </outline>
</glyph>
<glyph name="ktSeven" format="2">
  <advance width="666"/>
  <unicode hex="096D"/>
  <outline>
    <contour>
      <point x="330" y="-5" type="curve" smooth="yes"/>
      <point x="496" y="-5"/>
      <point x="602" y="123"/>
      <point x="602" y="290" type="curve" smooth="yes"/>
      <point x="602" y="457"/>
      <point x="480" y="627"/>
      <point x="309" y="627" type="curve" smooth="yes"/>
      <point x="206" y="627"/>
      <point x="148" y="562"/>
      <point x="148" y="483" type="curve" smooth="yes"/>
      <point x="148" y="404"/>
      <point x="226" y="334"/>
      <point x="313" y="334" type="curve" smooth="yes"/>
      <point x="405" y="334"/>
      <point x="449" y="400"/>
      <point x="471" y="462" type="curve"/>
      <point x="500" y="418"/>
      <point x="519" y="361"/>
      <point x="519" y="295" type="curve" smooth="yes"/>
      <point x="519" y="154"/>
      <point x="437" y="68"/>
      <point x="325" y="68" type="curve" smooth="yes"/>
      <point x="204" y="68"/>
      <point x="130" y="151"/>
      <point x="83" y="273" type="curve"/>
      <point x="20" y="249" type="line"/>
      <point x="63" y="121"/>
      <point x="159" y="-5"/>
    </contour>
    <contour>
      <point x="308" y="405" type="curve" smooth="yes"/>
      <point x="260" y="405"/>
      <point x="229" y="438"/>
      <point x="229" y="479" type="curve" smooth="yes"/>
      <point x="229" y="523"/>
      <point x="260" y="556"/>
      <point x="313" y="556" type="curve" smooth="yes"/>
      <point x="348" y="556"/>
      <point x="382" y="544"/>
      <point x="412" y="524" type="curve"/>
      <point x="396" y="464"/>
      <point x="371" y="405"/>
    </contour>
  </outline>
</glyph>
<glyph name="ktEight" format="2">
  <advance width="698"/>
  <unicode hex="096E"/>
  <outline>
    <contour>
      <point x="618" y="-14" type="curve"/>
      <point x="659" y="35" type="line"/>
      <point x="609" y="79"/>
      <point x="552" y="128"/>
      <point x="477" y="128" type="curve" smooth="yes"/>
      <point x="403" y="128"/>
      <point x="371" y="71"/>
      <point x="291" y="71" type="curve" smooth="yes"/>
      <point x="216" y="71"/>
      <point x="166" y="116"/>
      <point x="166" y="188" type="curve" smooth="yes"/>
      <point x="166" y="291"/>
      <point x="269" y="386"/>
      <point x="500" y="386" type="curve" smooth="yes"/>
      <point x="603" y="386" type="line"/>
      <point x="598" y="457" type="line"/>
      <point x="59" y="457" type="line"/>
      <point x="63" y="386" type="line"/>
      <point x="136" y="386" type="line" smooth="yes"/>
      <point x="170" y="386"/>
      <point x="200" y="388"/>
      <point x="212" y="390" type="curve"/>
      <point x="213" y="387" type="line"/>
      <point x="135" y="349"/>
      <point x="85" y="283"/>
      <point x="85" y="197" type="curve" smooth="yes"/>
      <point x="85" y="77"/>
      <point x="183" y="0"/>
      <point x="295" y="0" type="curve" smooth="yes"/>
      <point x="386" y="0"/>
      <point x="417" y="57"/>
      <point x="482" y="57" type="curve" smooth="yes"/>
      <point x="535" y="57"/>
      <point x="567" y="25"/>
    </contour>
  </outline>
</glyph>
<glyph name="ktNine" format="2">
  <advance width="698"/>
  <unicode hex="096F"/>
  <outline>
    <contour>
      <point x="618" y="-14" type="curve"/>
      <point x="659" y="35" type="line"/>
      <point x="609" y="79"/>
      <point x="552" y="128"/>
      <point x="477" y="128" type="curve" smooth="yes"/>
      <point x="403" y="128"/>
      <point x="371" y="71"/>
      <point x="291" y="71" type="curve" smooth="yes"/>
      <point x="216" y="71"/>
      <point x="166" y="116"/>
      <point x="166" y="188" type="curve" smooth="yes"/>
      <point x="166" y="291"/>
      <point x="269" y="386"/>
      <point x="500" y="386" type="curve" smooth="yes"/>
      <point x="603" y="386" type="line"/>
      <point x="598" y="457" type="line"/>
      <point x="526" y="481"/>
      <point x="454" y="520"/>
      <point x="454" y="568" type="curve" smooth="yes"/>
      <point x="454" y="591"/>
      <point x="472" y="605"/>
      <point x="498" y="605" type="curve" smooth="yes"/>
      <point x="540" y="605"/>
      <point x="572" y="581"/>
      <point x="609" y="553" type="curve"/>
      <point x="647" y="600" type="line"/>
      <point x="613" y="629"/>
      <point x="555" y="676"/>
      <point x="483" y="676" type="curve" smooth="yes"/>
      <point x="419" y="676"/>
      <point x="374" y="636"/>
      <point x="374" y="578" type="curve" smooth="yes"/>
      <point x="374" y="527"/>
      <point x="410" y="489"/>
      <point x="463" y="457" type="curve"/>
      <point x="59" y="457" type="line"/>
      <point x="63" y="386" type="line"/>
      <point x="136" y="386" type="line" smooth="yes"/>
      <point x="170" y="386"/>
      <point x="200" y="388"/>
      <point x="212" y="390" type="curve"/>
      <point x="213" y="387" type="line"/>
      <point x="135" y="349"/>
      <point x="85" y="283"/>
      <point x="85" y="197" type="curve" smooth="yes"/>
      <point x="85" y="77"/>
      <point x="183" y="0"/>
      <point x="295" y="0" type="curve" smooth="yes"/>
      <point x="386" y="0"/>
      <point x="417" y="57"/>
      <point x="482" y="57" type="curve" smooth="yes"/>
      <point x="535" y="57"/>
      <point x="567" y="25"/>
    </contour>
  </outline>
</glyph>
<glyph name="hyphentwo" format="2">
  <advance width="322"/>
  <unicode hex="2010"/>
  <outline>
    <contour>
      <point x="40" y="229" type="line"/>
      <point x="282" y="229" type="line"/>
      <point x="282" y="307" type="line"/>
      <point x="40" y="307" type="line"/>
    </contour>
  </outline>
</glyph>
<glyph name="uniA830" format="2">
  <advance width="237"/>
  <unicode hex="A830"/>
  <note>
uniA830
</note>
  <outline>
    <contour>
      <point x="78" y="0" type="line"/>
      <point x="159" y="0" type="line"/>
      <point x="159" y="622" type="line"/>
      <point x="78" y="622" type="line"/>
    </contour>
  </outline>
</glyph>
<glyph name="uniA832" format="2">
  <advance width="637"/>
  <unicode hex="A832"/>
  <note>
uniA832
</note>
  <outline>
    <contour>
      <point x="278" y="0" type="line"/>
      <point x="359" y="0" type="line"/>
      <point x="359" y="622" type="line"/>
      <point x="278" y="622" type="line"/>
    </contour>
    <contour>
      <point x="78" y="0" type="line"/>
      <point x="159" y="0" type="line"/>
      <point x="159" y="622" type="line"/>
      <point x="78" y="622" type="line"/>
    </contour>
    <contour>
      <point x="479" y="0" type="line"/>
      <point x="559" y="0" type="line"/>
      <point x="559" y="622" type="line"/>
      <point x="479" y="622" type="line"/>
    </contour>
  </outline>
</glyph>
<glyph name="uniA833" format="2">
  <advance width="622"/>
  <unicode hex="A833"/>
  <note>
uniA833
</note>
  <outline>
    <contour>
      <point x="60" y="412" type="line"/>
      <point x="583" y="542" type="line"/>
      <point x="563" y="622" type="line"/>
      <point x="40" y="491" type="line"/>
    </contour>
  </outline>
</glyph>
<glyph name="uniA836" format="2">
  <advance width="460"/>
  <unicode hex="A836"/>
  <note>
uniA836
</note>
  <outline>
    <contour>
      <point x="230" y="167" type="curve" smooth="yes"/>
      <point x="327" y="167"/>
      <point x="393" y="232"/>
      <point x="393" y="321" type="curve" smooth="yes"/>
      <point x="393" y="410"/>
      <point x="327" y="473"/>
      <point x="230" y="473" type="curve" smooth="yes"/>
      <point x="133" y="473"/>
      <point x="67" y="407"/>
      <point x="67" y="321" type="curve" smooth="yes"/>
      <point x="67" y="230"/>
      <point x="134" y="167"/>
    </contour>
    <contour>
      <point x="230" y="237" type="curve" smooth="yes"/>
      <point x="177" y="237"/>
      <point x="143" y="270"/>
      <point x="143" y="321" type="curve" smooth="yes"/>
      <point x="143" y="369"/>
      <point x="176" y="404"/>
      <point x="230" y="404" type="curve" smooth="yes"/>
      <point x="282" y="404"/>
      <point x="317" y="369"/>
      <point x="317" y="321" type="curve" smooth="yes"/>
      <point x="317" y="270"/>
      <point x="283" y="237"/>
    </contour>
  </outline>
</glyph>
<glyph name="uniA837" format="2">
  <advance width="509"/>
  <unicode hex="A837"/>
  <note>
uniA837
</note>
  <outline>
    <contour>
      <point x="221" y="86" type="curve" smooth="yes"/>
      <point x="317" y="86"/>
      <point x="383" y="152"/>
      <point x="383" y="240" type="curve" smooth="yes"/>
      <point x="383" y="314"/>
      <point x="338" y="371"/>
      <point x="262" y="387" type="curve"/>
      <point x="316" y="424"/>
      <point x="365" y="459"/>
      <point x="407" y="492" type="curve" smooth="yes"/>
      <point x="499" y="565" type="line"/>
      <point x="453" y="623" type="line"/>
      <point x="158" y="395" type="line" smooth="yes"/>
      <point x="86" y="340"/>
      <point x="57" y="301"/>
      <point x="57" y="240" type="curve" smooth="yes"/>
      <point x="57" y="150"/>
      <point x="125" y="86"/>
    </contour>
    <contour>
      <point x="220" y="156" type="curve" smooth="yes"/>
      <point x="166" y="156"/>
      <point x="133" y="189"/>
      <point x="133" y="240" type="curve" smooth="yes"/>
      <point x="133" y="289"/>
      <point x="166" y="323"/>
      <point x="220" y="323" type="curve" smooth="yes"/>
      <point x="272" y="323"/>
      <point x="307" y="289"/>
      <point x="307" y="240" type="curve" smooth="yes"/>
      <point x="307" y="189"/>
      <point x="273" y="156"/>
    </contour>
  </outline>
</glyph>
<glyph name="uniA838" format="2">
  <advance width="307"/>
  <unicode hex="A838"/>
  <note>
uniA838
</note>
  <outline>
    <contour>
      <point x="-63" y="-188" type="curve" smooth="yes"/>
      <point x="143" y="-188"/>
      <point x="246" y="-85"/>
      <point x="246" y="168" type="curve" smooth="yes"/>
      <point x="246" y="303"/>
      <point x="222" y="489"/>
      <point x="182" y="633" type="curve"/>
      <point x="101" y="615" type="line"/>
      <point x="140" y="470"/>
      <point x="164" y="309"/>
      <point x="164" y="180" type="curve" smooth="yes"/>
      <point x="164" y="-8"/>
      <point x="115" y="-115"/>
      <point x="-63" y="-115" type="curve" smooth="yes"/>
      <point x="-87" y="-115"/>
      <point x="-117" y="-111"/>
      <point x="-151" y="-104" type="curve"/>
      <point x="-157" y="-177" type="line"/>
      <point x="-122" y="-184"/>
      <point x="-92" y="-188"/>
    </contour>
  </outline>
</glyph>
<glyph name="ktVSCBindu" format="2">
  <unicode hex="11080"/>
  <outline>
    <contour>
      <point x="-151" y="702" type="curve" smooth="yes"/>
      <point x="-53" y="702"/>
      <point x="-6" y="761"/>
      <point x="25" y="813" type="curve"/>
      <point x="-43" y="854" type="line"/>
      <point x="-68" y="813"/>
      <point x="-98" y="772"/>
      <point x="-164" y="772" type="curve" smooth="yes"/>
      <point x="-221" y="772"/>
      <point x="-266" y="807"/>
      <point x="-320" y="859" type="curve"/>
      <point x="-363" y="819" type="line"/>
      <point x="-310" y="757"/>
      <point x="-233" y="702"/>
    </contour>
    <contour>
      <point x="-170" y="849" type="curve" smooth="yes"/>
      <point x="-140" y="849"/>
      <point x="-120" y="869"/>
      <point x="-120" y="899" type="curve" smooth="yes"/>
      <point x="-120" y="931"/>
      <point x="-140" y="950"/>
      <point x="-170" y="950" type="curve" smooth="yes"/>
      <point x="-202" y="950"/>
      <point x="-221" y="931"/>
      <point x="-221" y="899" type="curve" smooth="yes"/>
      <point x="-221" y="869"/>
      <point x="-202" y="849"/>
    </contour>
  </outline>
</glyph>
<glyph name="ktVSAnusvara" format="2">
  <unicode hex="11081"/>
  <outline>
    <contour>
      <point x="-107" y="732" type="curve" smooth="yes"/>
      <point x="-73" y="732"/>
      <point x="-52" y="755"/>
      <point x="-52" y="792" type="curve" smooth="yes"/>
      <point x="-52" y="830"/>
      <point x="-73" y="851"/>
      <point x="-107" y="851" type="curve" smooth="yes"/>
      <point x="-142" y="851"/>
      <point x="-161" y="830"/>
      <point x="-161" y="792" type="curve" smooth="yes"/>
      <point x="-161" y="755"/>
      <point x="-141" y="732"/>
    </contour>
  </outline>
</glyph>
<glyph name="ktVSVisarga" format="2">
  <advance width="226"/>
  <unicode hex="11082"/>
  <outline>
    <contour>
      <point x="103" y="410" type="curve" smooth="yes"/>
      <point x="137" y="410"/>
      <point x="158" y="433"/>
      <point x="158" y="470" type="curve" smooth="yes"/>
      <point x="158" y="508"/>
      <point x="137" y="529"/>
      <point x="103" y="529" type="curve" smooth="yes"/>
      <point x="68" y="529"/>
      <point x="49" y="508"/>
      <point x="49" y="470" type="curve" smooth="yes"/>
      <point x="49" y="433"/>
      <point x="69" y="410"/>
    </contour>
    <contour>
      <point x="103" y="107" type="curve" smooth="yes"/>
      <point x="137" y="107"/>
      <point x="158" y="130"/>
      <point x="158" y="167" type="curve" smooth="yes"/>
      <point x="158" y="205"/>
      <point x="137" y="226"/>
      <point x="103" y="226" type="curve" smooth="yes"/>
      <point x="68" y="226"/>
      <point x="49" y="205"/>
      <point x="49" y="167" type="curve" smooth="yes"/>
      <point x="49" y="130"/>
      <point x="69" y="107"/>
    </contour>
  </outline>
</glyph>
<glyph name="ktA" format="2">
  <advance width="619"/>
  <unicode hex="11083"/>
  <outline>
    <contour>
      <point x="455" y="0" type="line"/>
      <point x="536" y="0" type="line"/>
      <point x="536" y="622" type="line"/>
      <point x="455" y="622" type="line"/>
      <point x="455" y="281" type="line"/>
      <point x="390" y="242" type="line"/>
      <point x="348" y="274"/>
      <point x="312" y="302"/>
      <point x="283" y="328" type="curve"/>
      <point x="334" y="371"/>
      <point x="368" y="421"/>
      <point x="368" y="486" type="curve" smooth="yes"/>
      <point x="368" y="546"/>
      <point x="326" y="627"/>
      <point x="229" y="627" type="curve" smooth="yes"/>
      <point x="159" y="627"/>
      <point x="106" y="579"/>
      <point x="106" y="503" type="curve" smooth="yes"/>
      <point x="106" y="447"/>
      <point x="134" y="396"/>
      <point x="178" y="347" type="curve"/>
      <point x="138" y="323"/>
      <point x="89" y="301"/>
      <point x="39" y="279" type="curve"/>
      <point x="75" y="208" type="line"/>
      <point x="132" y="235"/>
      <point x="188" y="262"/>
      <point x="235" y="292" type="curve"/>
      <point x="266" y="265"/>
      <point x="300" y="238"/>
      <point x="336" y="210" type="curve"/>
      <point x="154" y="103" type="line"/>
      <point x="197" y="39" type="line"/>
      <point x="455" y="205" type="line"/>
      <point x="458" y="205" type="line"/>
      <point x="457" y="200"/>
      <point x="455" y="182"/>
      <point x="455" y="148" type="curve" smooth="yes"/>
    </contour>
    <contour>
      <point x="229" y="384" type="curve"/>
      <point x="201" y="418"/>
      <point x="187" y="452"/>
      <point x="187" y="488" type="curve" smooth="yes"/>
      <point x="187" y="527"/>
      <point x="207" y="556"/>
      <point x="239" y="556" type="curve" smooth="yes"/>
      <point x="271" y="556"/>
      <point x="287" y="529"/>
      <point x="287" y="496" type="curve" smooth="yes"/>
      <point x="287" y="451"/>
      <point x="265" y="415"/>
    </contour>
  </outline>
</glyph>
<glyph name="ktI" format="2">
  <advance width="518"/>
  <unicode hex="11085"/>
  <outline>
    <contour>
      <point x="382" y="-174" type="curve"/>
      <point x="447" y="-147" type="line"/>
      <point x="426" y="-94"/>
      <point x="401" y="-32"/>
      <point x="372" y="25" type="curve"/>
      <point x="425" y="55"/>
      <point x="462" y="104"/>
      <point x="462" y="169" type="curve" smooth="yes"/>
      <point x="462" y="342"/>
      <point x="196" y="345"/>
      <point x="196" y="465" type="curve" smooth="yes"/>
      <point x="196" y="522"/>
      <point x="255" y="556"/>
      <point x="355" y="556" type="curve"/>
      <point x="350" y="627" type="line"/>
      <point x="200" y="627"/>
      <point x="115" y="570"/>
      <point x="115" y="472" type="curve" smooth="yes"/>
      <point x="115" y="290"/>
      <point x="381" y="304"/>
      <point x="381" y="174" type="curve" smooth="yes"/>
      <point x="381" y="135"/>
      <point x="363" y="107"/>
      <point x="335" y="90" type="curve"/>
      <point x="288" y="164"/>
      <point x="229" y="219"/>
      <point x="159" y="219" type="curve" smooth="yes"/>
      <point x="98" y="219"/>
      <point x="59" y="176"/>
      <point x="59" y="125" type="curve" smooth="yes"/>
      <point x="59" y="45"/>
      <point x="149" y="-5"/>
      <point x="244" y="-5" type="curve" smooth="yes"/>
      <point x="264" y="-5"/>
      <point x="285" y="-3"/>
      <point x="304" y="1" type="curve"/>
      <point x="332" y="-51"/>
      <point x="358" y="-112"/>
    </contour>
    <contour>
      <point x="239" y="66" type="curve" smooth="yes"/>
      <point x="192" y="66"/>
      <point x="139" y="80"/>
      <point x="139" y="115" type="curve" smooth="yes"/>
      <point x="139" y="130"/>
      <point x="149" y="144"/>
      <point x="169" y="144" type="curve" smooth="yes"/>
      <point x="202" y="144"/>
      <point x="234" y="114"/>
      <point x="266" y="67" type="curve"/>
      <point x="257" y="66"/>
      <point x="248" y="66"/>
    </contour>
    <contour>
      <point x="220" y="-5" type="move"/>
    </contour>
  </outline>
</glyph>
<glyph name="ktU" format="2">
  <advance width="502"/>
  <unicode hex="11087"/>
  <outline>
    <contour>
      <point x="280" y="-5" type="curve" smooth="yes"/>
      <point x="381" y="-5"/>
      <point x="463" y="62"/>
      <point x="463" y="164" type="curve" smooth="yes"/>
      <point x="463" y="239"/>
      <point x="427" y="292"/>
      <point x="362" y="339" type="curve"/>
      <point x="406" y="368"/>
      <point x="436" y="408"/>
      <point x="436" y="468" type="curve" smooth="yes"/>
      <point x="436" y="557"/>
      <point x="369" y="627"/>
      <point x="263" y="627" type="curve" smooth="yes"/>
      <point x="203" y="627"/>
      <point x="157" y="603"/>
      <point x="111" y="570" type="curve"/>
      <point x="147" y="512" type="line"/>
      <point x="191" y="541"/>
      <point x="223" y="561"/>
      <point x="269" y="561" type="curve" smooth="yes"/>
      <point x="329" y="561"/>
      <point x="355" y="521"/>
      <point x="355" y="480" type="curve" smooth="yes"/>
      <point x="355" y="385"/>
      <point x="270" y="366"/>
      <point x="154" y="343" type="curve"/>
      <point x="176" y="277" type="line"/>
      <point x="218" y="285"/>
      <point x="263" y="295"/>
      <point x="304" y="311" type="curve"/>
      <point x="361" y="270"/>
      <point x="382" y="226"/>
      <point x="382" y="173" type="curve" smooth="yes"/>
      <point x="382" y="102"/>
      <point x="325" y="66"/>
      <point x="270" y="66" type="curve" smooth="yes"/>
      <point x="179" y="66"/>
      <point x="124" y="147"/>
      <point x="84" y="205" type="curve"/>
      <point x="34" y="172" type="line"/>
      <point x="74" y="106"/>
      <point x="147" y="-5"/>
    </contour>
    <contour>
      <point x="280" y="-5" type="move"/>
    </contour>
  </outline>
</glyph>
<glyph name="ktUU" format="2">
  <advance width="726"/>
  <unicode hex="11088"/>
  <outline>
    <contour>
      <point x="280" y="-5" type="curve" smooth="yes"/>
      <point x="381" y="-5"/>
      <point x="463" y="62"/>
      <point x="463" y="164" type="curve" smooth="yes"/>
      <point x="463" y="231"/>
      <point x="434" y="280"/>
      <point x="382" y="324" type="curve"/>
      <point x="421" y="334"/>
      <point x="459" y="342"/>
      <point x="500" y="342" type="curve" smooth="yes"/>
      <point x="569" y="342"/>
      <point x="597" y="298"/>
      <point x="597" y="239" type="curve" smooth="yes"/>
      <point x="597" y="173"/>
      <point x="567" y="98"/>
      <point x="531" y="27" type="curve"/>
      <point x="611" y="2" type="line"/>
      <point x="650" y="80"/>
      <point x="677" y="156"/>
      <point x="677" y="235" type="curve" smooth="yes"/>
      <point x="677" y="328"/>
      <point x="620" y="413"/>
      <point x="495" y="413" type="curve" smooth="yes"/>
      <point x="470" y="413"/>
      <point x="445" y="408"/>
      <point x="420" y="399" type="curve"/>
      <point x="430" y="419"/>
      <point x="436" y="441"/>
      <point x="436" y="468" type="curve" smooth="yes"/>
      <point x="436" y="557"/>
      <point x="369" y="627"/>
      <point x="263" y="627" type="curve" smooth="yes"/>
      <point x="203" y="627"/>
      <point x="157" y="603"/>
      <point x="111" y="570" type="curve"/>
      <point x="147" y="512" type="line"/>
      <point x="191" y="541"/>
      <point x="223" y="561"/>
      <point x="269" y="561" type="curve" smooth="yes"/>
      <point x="329" y="561"/>
      <point x="355" y="521"/>
      <point x="355" y="480" type="curve" smooth="yes"/>
      <point x="355" y="385"/>
      <point x="270" y="366"/>
      <point x="154" y="343" type="curve"/>
      <point x="176" y="277" type="line"/>
      <point x="218" y="285"/>
      <point x="263" y="295"/>
      <point x="304" y="311" type="curve"/>
      <point x="361" y="270"/>
      <point x="382" y="226"/>
      <point x="382" y="173" type="curve" smooth="yes"/>
      <point x="382" y="102"/>
      <point x="325" y="66"/>
      <point x="270" y="66" type="curve" smooth="yes"/>
      <point x="179" y="66"/>
      <point x="124" y="147"/>
      <point x="84" y="205" type="curve"/>
      <point x="34" y="172" type="line"/>
      <point x="74" y="106"/>
      <point x="147" y="-5"/>
    </contour>
  </outline>
</glyph>
<glyph name="ktAI" format="2">
  <advance width="567"/>
  <unicode hex="1108A"/>
  <outline>
    <contour>
      <point x="518" y="-148" type="curve"/>
      <point x="549" y="-85" type="line"/>
      <point x="303" y="25"/>
      <point x="162" y="90"/>
      <point x="154" y="268" type="curve"/>
      <point x="212" y="217"/>
      <point x="270" y="187"/>
      <point x="340" y="187" type="curve" smooth="yes"/>
      <point x="430" y="187"/>
      <point x="486" y="246"/>
      <point x="486" y="337" type="curve" smooth="yes"/>
      <point x="486" y="622" type="line"/>
      <point x="405" y="622" type="line"/>
      <point x="405" y="350" type="line" smooth="yes"/>
      <point x="405" y="293"/>
      <point x="382" y="258"/>
      <point x="328" y="258" type="curve" smooth="yes"/>
      <point x="258" y="258"/>
      <point x="198" y="308"/>
      <point x="154" y="352" type="curve"/>
      <point x="154" y="622" type="line"/>
      <point x="73" y="622" type="line"/>
      <point x="73" y="293" type="line" smooth="yes"/>
      <point x="73" y="46"/>
      <point x="261" y="-35"/>
    </contour>
    <contour>
      <point x="459" y="674" type="line"/>
      <point x="485" y="727" type="line"/>
      <point x="66" y="906" type="line"/>
      <point x="31" y="834" type="line"/>
    </contour>
  </outline>
</glyph>
<glyph name="ktKa" format="2">
  <advance width="756"/>
  <unicode hex="1108D"/>
  <outline>
    <contour>
      <point x="355" y="0" type="line"/>
      <point x="436" y="0" type="line"/>
      <point x="436" y="294" type="line"/>
      <point x="474" y="337"/>
      <point x="514" y="374"/>
      <point x="560" y="374" type="curve" smooth="yes"/>
      <point x="604" y="374"/>
      <point x="617" y="339"/>
      <point x="617" y="298" type="curve" smooth="yes"/>
      <point x="617" y="227"/>
      <point x="591" y="152"/>
      <point x="568" y="99" type="curve"/>
      <point x="645" y="74" type="line"/>
      <point x="670" y="131"/>
      <point x="698" y="211"/>
      <point x="698" y="289" type="curve" smooth="yes"/>
      <point x="698" y="372"/>
      <point x="649" y="445"/>
      <point x="552" y="445" type="curve" smooth="yes"/>
      <point x="505" y="445"/>
      <point x="466" y="425"/>
      <point x="436" y="398" type="curve"/>
      <point x="433" y="398" type="line"/>
      <point x="434" y="403"/>
      <point x="436" y="424"/>
      <point x="436" y="464" type="curve" smooth="yes"/>
      <point x="436" y="622" type="line"/>
      <point x="355" y="622" type="line"/>
      <point x="355" y="441" type="line"/>
      <point x="323" y="463"/>
      <point x="279" y="484"/>
      <point x="221" y="484" type="curve" smooth="yes"/>
      <point x="126" y="484"/>
      <point x="46" y="424"/>
      <point x="46" y="331" type="curve" smooth="yes"/>
      <point x="46" y="233"/>
      <point x="126" y="166"/>
      <point x="224" y="166" type="curve" smooth="yes"/>
      <point x="273" y="166"/>
      <point x="319" y="186"/>
      <point x="355" y="214" type="curve"/>
      <point x="357" y="214" type="line"/>
      <point x="356" y="210"/>
      <point x="355" y="191"/>
      <point x="355" y="157" type="curve" smooth="yes"/>
    </contour>
    <contour>
      <point x="214" y="236" type="curve" smooth="yes"/>
      <point x="168" y="236"/>
      <point x="127" y="264"/>
      <point x="127" y="321" type="curve" smooth="yes"/>
      <point x="127" y="377"/>
      <point x="175" y="413"/>
      <point x="230" y="413" type="curve" smooth="yes"/>
      <point x="278" y="413"/>
      <point x="320" y="398"/>
      <point x="355" y="380" type="curve"/>
      <point x="355" y="311" type="line"/>
      <point x="317" y="271"/>
      <point x="268" y="236"/>
    </contour>
  </outline>
</glyph>
<glyph name="ktGa" format="2">
  <advance width="608"/>
  <unicode hex="1108F"/>
  <outline>
    <contour>
      <point x="221" y="131" type="curve" smooth="yes"/>
      <point x="293" y="131"/>
      <point x="362" y="187"/>
      <point x="362" y="295" type="curve" smooth="yes"/>
      <point x="362" y="441"/>
      <point x="288" y="567"/>
      <point x="247" y="628" type="curve"/>
      <point x="183" y="592" type="line"/>
      <point x="220" y="535"/>
      <point x="282" y="433"/>
      <point x="282" y="312" type="curve" smooth="yes"/>
      <point x="282" y="247"/>
      <point x="259" y="202"/>
      <point x="213" y="202" type="curve" smooth="yes"/>
      <point x="162" y="202"/>
      <point x="118" y="262"/>
      <point x="93" y="300" type="curve"/>
      <point x="39" y="265" type="line"/>
      <point x="69" y="214"/>
      <point x="135" y="131"/>
    </contour>
    <contour>
      <point x="444" y="0" type="line"/>
      <point x="525" y="0" type="line"/>
      <point x="525" y="622" type="line"/>
      <point x="444" y="622" type="line"/>
    </contour>
  </outline>
</glyph>
<glyph name="ktGHa" format="2">
  <advance width="604"/>
  <unicode hex="11090"/>
  <outline>
    <contour>
      <point x="441" y="0" type="line"/>
      <point x="521" y="0" type="line"/>
      <point x="521" y="622" type="line"/>
      <point x="441" y="622" type="line"/>
      <point x="441" y="221" type="line"/>
      <point x="391" y="186"/>
      <point x="332" y="168"/>
      <point x="272" y="168" type="curve" smooth="yes"/>
      <point x="206" y="168"/>
      <point x="149" y="193"/>
      <point x="149" y="246" type="curve" smooth="yes"/>
      <point x="149" y="308"/>
      <point x="222" y="340"/>
      <point x="348" y="340" type="curve"/>
      <point x="338" y="421" type="line"/>
      <point x="290" y="421"/>
      <point x="244" y="415"/>
      <point x="205" y="402" type="curve"/>
      <point x="182" y="423"/>
      <point x="166" y="447"/>
      <point x="166" y="475" type="curve" smooth="yes"/>
      <point x="166" y="530"/>
      <point x="215" y="556"/>
      <point x="321" y="556" type="curve"/>
      <point x="315" y="627" type="line"/>
      <point x="131" y="627"/>
      <point x="84" y="561"/>
      <point x="84" y="490" type="curve" smooth="yes"/>
      <point x="84" y="444"/>
      <point x="115" y="406"/>
      <point x="149" y="379" type="curve"/>
      <point x="99" y="351"/>
      <point x="68" y="310"/>
      <point x="68" y="256" type="curve" smooth="yes"/>
      <point x="68" y="157"/>
      <point x="165" y="98"/>
      <point x="283" y="98" type="curve" smooth="yes"/>
      <point x="341" y="98"/>
      <point x="394" y="110"/>
      <point x="441" y="135" type="curve"/>
      <point x="443" y="135" type="line"/>
      <point x="442" y="131"/>
      <point x="441" y="113"/>
      <point x="441" y="79" type="curve" smooth="yes"/>
    </contour>
  </outline>
</glyph>
<glyph name="ktNGa" format="2">
  <advance width="613"/>
  <unicode hex="11091"/>
  <outline>
    <contour>
      <point x="348" y="-5" type="curve" smooth="yes"/>
      <point x="464" y="-5"/>
      <point x="549" y="73"/>
      <point x="549" y="175" type="curve" smooth="yes"/>
      <point x="549" y="266"/>
      <point x="497" y="335"/>
      <point x="383" y="386" type="curve"/>
      <point x="460" y="608" type="line"/>
      <point x="378" y="627" type="line"/>
      <point x="292" y="361" type="line"/>
      <point x="383" y="326"/>
      <point x="469" y="270"/>
      <point x="469" y="180" type="curve" smooth="yes"/>
      <point x="469" y="114"/>
      <point x="422" y="66"/>
      <point x="343" y="66" type="curve" smooth="yes"/>
      <point x="231" y="66"/>
      <point x="154" y="159"/>
      <point x="154" y="287" type="curve" smooth="yes"/>
      <point x="154" y="406"/>
      <point x="191" y="492"/>
      <point x="248" y="609" type="curve"/>
      <point x="171" y="627" type="line"/>
      <point x="111" y="511"/>
      <point x="73" y="420"/>
      <point x="73" y="292" type="curve" smooth="yes"/>
      <point x="73" y="129"/>
      <point x="185" y="-5"/>
    </contour>
  </outline>
</glyph>
<glyph name="ktJa" format="2">
  <advance width="697"/>
  <unicode hex="11094"/>
  <outline>
    <contour>
      <point x="533" y="0" type="line"/>
      <point x="614" y="0" type="line"/>
      <point x="614" y="426" type="line" smooth="yes"/>
      <point x="614" y="531"/>
      <point x="554" y="627"/>
      <point x="448" y="627" type="curve" smooth="yes"/>
      <point x="346" y="627"/>
      <point x="297" y="563"/>
      <point x="297" y="446" type="curve" smooth="yes"/>
      <point x="297" y="229" type="line" smooth="yes"/>
      <point x="297" y="154"/>
      <point x="268" y="117"/>
      <point x="216" y="117" type="curve" smooth="yes"/>
      <point x="169" y="117"/>
      <point x="145" y="151"/>
      <point x="145" y="228" type="curve" smooth="yes"/>
      <point x="145" y="622" type="line"/>
      <point x="64" y="622" type="line"/>
      <point x="64" y="233" type="line" smooth="yes"/>
      <point x="64" y="106"/>
      <point x="133" y="46"/>
      <point x="221" y="46" type="curve" smooth="yes"/>
      <point x="317" y="46"/>
      <point x="377" y="114"/>
      <point x="377" y="224" type="curve" smooth="yes"/>
      <point x="377" y="441" type="line" smooth="yes"/>
      <point x="377" y="515"/>
      <point x="405" y="556"/>
      <point x="453" y="556" type="curve" smooth="yes"/>
      <point x="517" y="556"/>
      <point x="533" y="500"/>
      <point x="533" y="431" type="curve" smooth="yes"/>
    </contour>
  </outline>
</glyph>
<glyph name="ktJHa" format="2">
  <advance width="588"/>
  <unicode hex="11095"/>
  <outline>
    <contour>
      <point x="347" y="-198" type="curve" smooth="yes"/>
      <point x="439" y="-198"/>
      <point x="510" y="-173"/>
      <point x="566" y="-146" type="curve"/>
      <point x="542" y="-79" type="line"/>
      <point x="498" y="-101"/>
      <point x="422" y="-127"/>
      <point x="342" y="-127" type="curve" smooth="yes"/>
      <point x="208" y="-127"/>
      <point x="122" y="-47"/>
      <point x="122" y="62" type="curve" smooth="yes"/>
      <point x="122" y="147"/>
      <point x="154" y="186"/>
      <point x="190" y="219" type="curve"/>
      <point x="191" y="218" type="line"/>
      <point x="188" y="209"/>
      <point x="186" y="197"/>
      <point x="186" y="183" type="curve" smooth="yes"/>
      <point x="186" y="68"/>
      <point x="273" y="-5"/>
      <point x="391" y="-5" type="curve" smooth="yes"/>
      <point x="447" y="-5"/>
      <point x="506" y="12"/>
      <point x="557" y="42" type="curve"/>
      <point x="532" y="114" type="line"/>
      <point x="485" y="83"/>
      <point x="435" y="65"/>
      <point x="380" y="65" type="curve" smooth="yes"/>
      <point x="315" y="65"/>
      <point x="262" y="102"/>
      <point x="262" y="173" type="curve" smooth="yes"/>
      <point x="262" y="269"/>
      <point x="351" y="292"/>
      <point x="485" y="292" type="curve"/>
      <point x="475" y="372" type="line"/>
      <point x="419" y="372"/>
      <point x="366" y="365"/>
      <point x="318" y="352" type="curve"/>
      <point x="292" y="377"/>
      <point x="278" y="409"/>
      <point x="278" y="446" type="curve" smooth="yes"/>
      <point x="278" y="497"/>
      <point x="305" y="556"/>
      <point x="458" y="556" type="curve"/>
      <point x="453" y="627" type="line"/>
      <point x="286" y="627"/>
      <point x="197" y="568"/>
      <point x="197" y="460" type="curve" smooth="yes"/>
      <point x="197" y="406"/>
      <point x="225" y="362"/>
      <point x="256" y="331" type="curve"/>
      <point x="125" y="278"/>
      <point x="42" y="177"/>
      <point x="42" y="67" type="curve" smooth="yes"/>
      <point x="42" y="-84"/>
      <point x="176" y="-198"/>
    </contour>
  </outline>
</glyph>
<glyph name="ktTTa" format="2">
  <advance width="557"/>
  <unicode hex="11097"/>
  <outline>
    <contour>
      <point x="268" y="-5" type="curve" smooth="yes"/>
      <point x="371" y="-5"/>
      <point x="458" y="40"/>
      <point x="528" y="101" type="curve"/>
      <point x="477" y="162" type="line"/>
      <point x="421" y="114"/>
      <point x="351" y="66"/>
      <point x="260" y="66" type="curve" smooth="yes"/>
      <point x="188" y="66"/>
      <point x="129" y="98"/>
      <point x="129" y="166" type="curve" smooth="yes"/>
      <point x="129" y="298"/>
      <point x="361" y="348"/>
      <point x="361" y="504" type="curve" smooth="yes"/>
      <point x="361" y="622" type="line"/>
      <point x="280" y="622" type="line"/>
      <point x="280" y="519" type="line" smooth="yes"/>
      <point x="280" y="388"/>
      <point x="49" y="339"/>
      <point x="49" y="178" type="curve" smooth="yes"/>
      <point x="49" y="75"/>
      <point x="147" y="-5"/>
    </contour>
  </outline>
</glyph>
<glyph name="ktTTHa" format="2">
  <advance width="534"/>
  <unicode hex="11098"/>
  <outline>
    <contour>
      <point x="277" y="-5" type="curve" smooth="yes"/>
      <point x="385" y="-5"/>
      <point x="485" y="49"/>
      <point x="485" y="164" type="curve" smooth="yes"/>
      <point x="485" y="336"/>
      <point x="205" y="339"/>
      <point x="205" y="465" type="curve" smooth="yes"/>
      <point x="205" y="522"/>
      <point x="255" y="556"/>
      <point x="364" y="556" type="curve"/>
      <point x="358" y="627" type="line"/>
      <point x="209" y="627"/>
      <point x="124" y="565"/>
      <point x="124" y="472" type="curve" smooth="yes"/>
      <point x="124" y="289"/>
      <point x="405" y="297"/>
      <point x="405" y="169" type="curve" smooth="yes"/>
      <point x="405" y="97"/>
      <point x="341" y="66"/>
      <point x="272" y="66" type="curve" smooth="yes"/>
      <point x="204" y="66"/>
      <point x="129" y="99"/>
      <point x="129" y="155" type="curve" smooth="yes"/>
      <point x="129" y="177"/>
      <point x="144" y="194"/>
      <point x="171" y="194" type="curve" smooth="yes"/>
      <point x="199" y="194"/>
      <point x="219" y="175"/>
      <point x="237" y="148" type="curve"/>
      <point x="293" y="183" type="line"/>
      <point x="264" y="231"/>
      <point x="225" y="265"/>
      <point x="162" y="265" type="curve" smooth="yes"/>
      <point x="102" y="265"/>
      <point x="49" y="228"/>
      <point x="49" y="165" type="curve" smooth="yes"/>
      <point x="49" y="71"/>
      <point x="149" y="-5"/>
    </contour>
  </outline>
</glyph>
<glyph name="ktDDa" format="2">
  <advance width="594"/>
  <unicode hex="11099"/>
  <outline>
    <contour>
      <point x="345" y="-5" type="curve" smooth="yes"/>
      <point x="474" y="-5"/>
      <point x="545" y="81"/>
      <point x="545" y="185" type="curve" smooth="yes"/>
      <point x="545" y="288"/>
      <point x="482" y="370"/>
      <point x="394" y="370" type="curve" smooth="yes"/>
      <point x="341" y="370"/>
      <point x="277" y="347"/>
      <point x="211" y="347" type="curve"/>
      <point x="206" y="359"/>
      <point x="200" y="384"/>
      <point x="200" y="411" type="curve" smooth="yes"/>
      <point x="200" y="518"/>
      <point x="285" y="556"/>
      <point x="395" y="556" type="curve"/>
      <point x="390" y="627" type="line"/>
      <point x="225" y="627"/>
      <point x="119" y="549"/>
      <point x="119" y="416" type="curve" smooth="yes"/>
      <point x="119" y="339"/>
      <point x="173" y="276"/>
      <point x="265" y="276" type="curve" smooth="yes"/>
      <point x="310" y="276"/>
      <point x="370" y="294"/>
      <point x="418" y="294" type="curve"/>
      <point x="454" y="270"/>
      <point x="464" y="232"/>
      <point x="464" y="194" type="curve" smooth="yes"/>
      <point x="464" y="124"/>
      <point x="424" y="66"/>
      <point x="334" y="66" type="curve" smooth="yes"/>
      <point x="240" y="66"/>
      <point x="179" y="138"/>
      <point x="106" y="245" type="curve"/>
      <point x="49" y="208" type="line"/>
      <point x="121" y="91"/>
      <point x="208" y="-5"/>
    </contour>
  </outline>
</glyph>
<glyph name="ktNNa" format="2">
  <advance width="745"/>
  <unicode hex="1109D"/>
  <outline>
    <contour>
      <point x="88" y="0" type="line"/>
      <point x="168" y="0" type="line"/>
      <point x="168" y="274" type="line"/>
      <point x="334" y="274" type="line"/>
      <point x="334" y="0" type="line"/>
      <point x="415" y="0" type="line"/>
      <point x="415" y="274" type="line"/>
      <point x="581" y="274" type="line"/>
      <point x="581" y="0" type="line"/>
      <point x="662" y="0" type="line"/>
      <point x="662" y="622" type="line"/>
      <point x="581" y="622" type="line"/>
      <point x="581" y="345" type="line"/>
      <point x="415" y="345" type="line"/>
      <point x="415" y="622" type="line"/>
      <point x="334" y="622" type="line"/>
      <point x="334" y="345" type="line"/>
      <point x="168" y="345" type="line"/>
      <point x="168" y="622" type="line"/>
      <point x="88" y="622" type="line"/>
    </contour>
  </outline>
</glyph>
<glyph name="ktTa" format="2">
  <advance width="562"/>
  <unicode hex="1109E"/>
  <outline>
    <contour>
      <point x="399" y="0" type="line"/>
      <point x="479" y="0" type="line"/>
      <point x="479" y="622" type="line"/>
      <point x="421" y="622" type="line"/>
      <point x="191" y="546"/>
      <point x="59" y="492"/>
      <point x="59" y="351" type="curve" smooth="yes"/>
      <point x="59" y="272"/>
      <point x="105" y="184"/>
      <point x="167" y="97" type="curve"/>
      <point x="223" y="133" type="line"/>
      <point x="175" y="208"/>
      <point x="139" y="265"/>
      <point x="139" y="337" type="curve" smooth="yes"/>
      <point x="139" y="450"/>
      <point x="254" y="484"/>
      <point x="400" y="528" type="curve"/>
      <point x="401" y="527" type="line"/>
      <point x="400" y="522"/>
      <point x="399" y="500"/>
      <point x="399" y="461" type="curve" smooth="yes"/>
    </contour>
  </outline>
</glyph>
<glyph name="ktDa" format="2">
  <advance width="444"/>
  <unicode hex="110A0"/>
  <outline>
    <contour>
      <point x="269" y="-5" type="curve" smooth="yes"/>
      <point x="325" y="-5"/>
      <point x="383" y="12"/>
      <point x="434" y="42" type="curve"/>
      <point x="410" y="114" type="line"/>
      <point x="363" y="83"/>
      <point x="312" y="65"/>
      <point x="258" y="65" type="curve" smooth="yes"/>
      <point x="189" y="65"/>
      <point x="139" y="105"/>
      <point x="139" y="173" type="curve" smooth="yes"/>
      <point x="139" y="269"/>
      <point x="228" y="292"/>
      <point x="362" y="292" type="curve"/>
      <point x="353" y="372" type="line"/>
      <point x="293" y="372"/>
      <point x="240" y="366"/>
      <point x="196" y="352" type="curve"/>
      <point x="170" y="377"/>
      <point x="156" y="409"/>
      <point x="156" y="446" type="curve" smooth="yes"/>
      <point x="156" y="497"/>
      <point x="183" y="556"/>
      <point x="335" y="556" type="curve"/>
      <point x="330" y="627" type="line"/>
      <point x="164" y="627"/>
      <point x="75" y="568"/>
      <point x="75" y="460" type="curve" smooth="yes"/>
      <point x="75" y="404"/>
      <point x="105" y="358"/>
      <point x="138" y="327" type="curve"/>
      <point x="88" y="296"/>
      <point x="59" y="250"/>
      <point x="59" y="183" type="curve" smooth="yes"/>
      <point x="59" y="73"/>
      <point x="144" y="-5"/>
    </contour>
  </outline>
</glyph>
<glyph name="ktDHa" format="2">
  <advance width="595"/>
  <unicode hex="110A1"/>
  <outline>
    <contour>
      <point x="431" y="0" type="line"/>
      <point x="512" y="0" type="line"/>
      <point x="512" y="622" type="line"/>
      <point x="431" y="622" type="line"/>
      <point x="431" y="250" type="line"/>
      <point x="381" y="215"/>
      <point x="322" y="197"/>
      <point x="263" y="197" type="curve" smooth="yes"/>
      <point x="196" y="197"/>
      <point x="139" y="223"/>
      <point x="139" y="275" type="curve" smooth="yes"/>
      <point x="139" y="337"/>
      <point x="212" y="370"/>
      <point x="338" y="370" type="curve"/>
      <point x="193" y="627" type="line"/>
      <point x="127" y="590" type="line"/>
      <point x="224" y="439" type="line"/>
      <point x="127" y="418"/>
      <point x="59" y="365"/>
      <point x="59" y="286" type="curve" smooth="yes"/>
      <point x="59" y="187"/>
      <point x="155" y="127"/>
      <point x="273" y="127" type="curve" smooth="yes"/>
      <point x="331" y="127"/>
      <point x="384" y="139"/>
      <point x="431" y="165" type="curve"/>
      <point x="434" y="165" type="line"/>
      <point x="433" y="160"/>
      <point x="431" y="142"/>
      <point x="431" y="108" type="curve" smooth="yes"/>
    </contour>
  </outline>
</glyph>
<glyph name="ktNa" format="2">
  <advance width="602"/>
  <unicode hex="110A2"/>
  <outline>
    <contour>
      <point x="438" y="0" type="line"/>
      <point x="519" y="0" type="line"/>
      <point x="519" y="622" type="line"/>
      <point x="460" y="622" type="line"/>
      <point x="236" y="541"/>
      <point x="44" y="404"/>
      <point x="44" y="256" type="curve" smooth="yes"/>
      <point x="44" y="177"/>
      <point x="95" y="119"/>
      <point x="177" y="119" type="curve" smooth="yes"/>
      <point x="250" y="119"/>
      <point x="302" y="173"/>
      <point x="302" y="250" type="curve" smooth="yes"/>
      <point x="302" y="319"/>
      <point x="271" y="373"/>
      <point x="232" y="416" type="curve"/>
      <point x="291" y="463"/>
      <point x="366" y="504"/>
      <point x="438" y="532" type="curve"/>
      <point x="443" y="532" type="line"/>
      <point x="441" y="525"/>
      <point x="438" y="502"/>
      <point x="438" y="466" type="curve" smooth="yes"/>
    </contour>
    <contour>
      <point x="168" y="190" type="curve" smooth="yes"/>
      <point x="142" y="190"/>
      <point x="125" y="212"/>
      <point x="125" y="243" type="curve" smooth="yes"/>
      <point x="125" y="287"/>
      <point x="147" y="330"/>
      <point x="183" y="370" type="curve"/>
      <point x="206" y="344"/>
      <point x="221" y="311"/>
      <point x="221" y="269" type="curve" smooth="yes"/>
      <point x="221" y="212"/>
      <point x="196" y="190"/>
    </contour>
  </outline>
</glyph>
<glyph name="ktPa" format="2">
  <advance width="541"/>
  <unicode hex="110A3"/>
  <outline>
    <contour>
      <point x="377" y="0" type="line"/>
      <point x="458" y="0" type="line"/>
      <point x="458" y="622" type="line"/>
      <point x="377" y="622" type="line"/>
      <point x="377" y="323" type="line"/>
      <point x="352" y="292"/>
      <point x="302" y="258"/>
      <point x="252" y="258" type="curve" smooth="yes"/>
      <point x="199" y="258"/>
      <point x="159" y="289"/>
      <point x="159" y="369" type="curve" smooth="yes"/>
      <point x="159" y="622" type="line"/>
      <point x="78" y="622" type="line"/>
      <point x="78" y="378" type="line" smooth="yes"/>
      <point x="78" y="240"/>
      <point x="167" y="188"/>
      <point x="260" y="188" type="curve" smooth="yes"/>
      <point x="304" y="188"/>
      <point x="350" y="203"/>
      <point x="377" y="226" type="curve"/>
      <point x="379" y="226" type="line"/>
      <point x="378" y="217"/>
      <point x="377" y="188"/>
      <point x="377" y="143" type="curve" smooth="yes"/>
    </contour>
  </outline>
</glyph>
<glyph name="ktPHa" format="2">
  <advance width="703"/>
  <unicode hex="110A4"/>
  <outline>
    <contour>
      <point x="448" y="-24" type="curve" smooth="yes"/>
      <point x="543" y="-24"/>
      <point x="620" y="21"/>
      <point x="620" y="95" type="curve" smooth="yes"/>
      <point x="620" y="160"/>
      <point x="568" y="214"/>
      <point x="495" y="214" type="curve" smooth="yes"/>
      <point x="442" y="214"/>
      <point x="397" y="175"/>
      <point x="397" y="121" type="curve" smooth="yes"/>
      <point x="397" y="86"/>
      <point x="415" y="58"/>
      <point x="438" y="37" type="curve"/>
      <point x="433" y="37" type="line" smooth="yes"/>
      <point x="336" y="37"/>
      <point x="210" y="134"/>
      <point x="156" y="189" type="curve"/>
      <point x="215" y="222"/>
      <point x="282" y="264"/>
      <point x="332" y="316" type="curve"/>
      <point x="400" y="283"/>
      <point x="477" y="258"/>
      <point x="544" y="240" type="curve"/>
      <point x="567" y="257" type="line"/>
      <point x="567" y="622" type="line"/>
      <point x="486" y="622" type="line"/>
      <point x="486" y="326" type="line"/>
      <point x="446" y="337"/>
      <point x="408" y="352"/>
      <point x="372" y="367" type="curve"/>
      <point x="392" y="399"/>
      <point x="404" y="434"/>
      <point x="404" y="473" type="curve" smooth="yes"/>
      <point x="404" y="552"/>
      <point x="348" y="627"/>
      <point x="253" y="627" type="curve" smooth="yes"/>
      <point x="188" y="627"/>
      <point x="140" y="586"/>
      <point x="140" y="523" type="curve" smooth="yes"/>
      <point x="140" y="455"/>
      <point x="190" y="399"/>
      <point x="262" y="354" type="curve"/>
      <point x="208" y="301"/>
      <point x="126" y="258"/>
      <point x="46" y="210" type="curve"/>
      <point x="148" y="95"/>
      <point x="300" y="-24"/>
    </contour>
    <contour>
      <point x="498" y="47" type="curve"/>
      <point x="481" y="63"/>
      <point x="468" y="83"/>
      <point x="468" y="105" type="curve" smooth="yes"/>
      <point x="468" y="127"/>
      <point x="484" y="143"/>
      <point x="504" y="143" type="curve" smooth="yes"/>
      <point x="527" y="143"/>
      <point x="544" y="127"/>
      <point x="544" y="105" type="curve" smooth="yes"/>
      <point x="544" y="78"/>
      <point x="526" y="59"/>
    </contour>
    <contour>
      <point x="302" y="404" type="curve"/>
      <point x="252" y="436"/>
      <point x="220" y="472"/>
      <point x="220" y="513" type="curve" smooth="yes"/>
      <point x="220" y="540"/>
      <point x="237" y="556"/>
      <point x="261" y="556" type="curve" smooth="yes"/>
      <point x="303" y="556"/>
      <point x="324" y="518"/>
      <point x="324" y="482" type="curve" smooth="yes"/>
      <point x="324" y="453"/>
      <point x="316" y="427"/>
    </contour>
  </outline>
</glyph>
<glyph name="ktBHa" format="2">
  <advance width="640"/>
  <unicode hex="110A6"/>
  <outline>
    <contour>
      <point x="477" y="0" type="line"/>
      <point x="557" y="0" type="line"/>
      <point x="557" y="622" type="line"/>
      <point x="499" y="622" type="line"/>
      <point x="429" y="586"/>
      <point x="358" y="547"/>
      <point x="296" y="506" type="curve"/>
      <point x="272" y="558"/>
      <point x="246" y="600"/>
      <point x="228" y="627" type="curve"/>
      <point x="165" y="621"/>
      <point x="92" y="600"/>
      <point x="54" y="586" type="curve"/>
      <point x="73" y="524" type="line"/>
      <point x="101" y="534"/>
      <point x="151" y="550"/>
      <point x="187" y="557" type="curve"/>
      <point x="203" y="531"/>
      <point x="221" y="500"/>
      <point x="237" y="464" type="curve"/>
      <point x="154" y="399"/>
      <point x="97" y="328"/>
      <point x="97" y="247" type="curve" smooth="yes"/>
      <point x="97" y="170"/>
      <point x="149" y="104"/>
      <point x="230" y="104" type="curve" smooth="yes"/>
      <point x="303" y="104"/>
      <point x="360" y="157"/>
      <point x="360" y="255" type="curve" smooth="yes"/>
      <point x="360" y="319"/>
      <point x="345" y="381"/>
      <point x="325" y="437" type="curve"/>
      <point x="373" y="470"/>
      <point x="426" y="500"/>
      <point x="478" y="526" type="curve"/>
      <point x="479" y="524" type="line"/>
      <point x="478" y="514"/>
      <point x="477" y="487"/>
      <point x="477" y="451" type="curve" smooth="yes"/>
    </contour>
    <contour>
      <point x="222" y="175" type="curve" smooth="yes"/>
      <point x="194" y="175"/>
      <point x="178" y="197"/>
      <point x="178" y="233" type="curve" smooth="yes"/>
      <point x="178" y="290"/>
      <point x="212" y="342"/>
      <point x="264" y="388" type="curve"/>
      <point x="273" y="353"/>
      <point x="279" y="314"/>
      <point x="279" y="274" type="curve" smooth="yes"/>
      <point x="279" y="204"/>
      <point x="251" y="175"/>
    </contour>
  </outline>
</glyph>
<glyph name="ktMa" format="2">
  <advance width="599"/>
  <unicode hex="110A7"/>
  <outline>
    <contour>
      <point x="435" y="0" type="line"/>
      <point x="516" y="0" type="line"/>
      <point x="516" y="622" type="line"/>
      <point x="457" y="622" type="line"/>
      <point x="402" y="548"/>
      <point x="343" y="511"/>
      <point x="240" y="459" type="curve"/>
      <point x="200" y="532"/>
      <point x="152" y="597"/>
      <point x="128" y="627" type="curve"/>
      <point x="71" y="585" type="line"/>
      <point x="96" y="554"/>
      <point x="144" y="492"/>
      <point x="181" y="424" type="curve"/>
      <point x="117" y="381"/>
      <point x="73" y="329"/>
      <point x="73" y="259" type="curve" smooth="yes"/>
      <point x="73" y="178"/>
      <point x="131" y="134"/>
      <point x="194" y="134" type="curve" smooth="yes"/>
      <point x="260" y="134"/>
      <point x="309" y="176"/>
      <point x="309" y="255" type="curve" smooth="yes"/>
      <point x="309" y="297"/>
      <point x="294" y="345"/>
      <point x="274" y="392" type="curve"/>
      <point x="313" y="413"/>
      <point x="402" y="458"/>
      <point x="436" y="497" type="curve"/>
      <point x="437" y="495" type="line"/>
      <point x="436" y="488"/>
      <point x="435" y="466"/>
      <point x="435" y="429" type="curve" smooth="yes"/>
    </contour>
    <contour>
      <point x="190" y="205" type="curve" smooth="yes"/>
      <point x="168" y="205"/>
      <point x="153" y="221"/>
      <point x="153" y="250" type="curve" smooth="yes"/>
      <point x="153" y="290"/>
      <point x="175" y="322"/>
      <point x="214" y="353" type="curve"/>
      <point x="226" y="323"/>
      <point x="233" y="293"/>
      <point x="233" y="267" type="curve" smooth="yes"/>
      <point x="233" y="231"/>
      <point x="218" y="205"/>
    </contour>
  </outline>
</glyph>
<glyph name="ktYa" format="2">
  <advance width="554"/>
  <unicode hex="110A8"/>
  <outline>
    <contour>
      <point x="391" y="0" type="line"/>
      <point x="471" y="0" type="line"/>
      <point x="471" y="622" type="line"/>
      <point x="391" y="622" type="line"/>
      <point x="391" y="236" type="line"/>
      <point x="348" y="209"/>
      <point x="299" y="192"/>
      <point x="241" y="192" type="curve" smooth="yes"/>
      <point x="177" y="192"/>
      <point x="125" y="211"/>
      <point x="125" y="263" type="curve" smooth="yes"/>
      <point x="125" y="344"/>
      <point x="282" y="378"/>
      <point x="282" y="469" type="curve" smooth="yes"/>
      <point x="282" y="529"/>
      <point x="247" y="570"/>
      <point x="187" y="627" type="curve"/>
      <point x="139" y="584" type="line"/>
      <point x="180" y="543"/>
      <point x="201" y="521"/>
      <point x="201" y="482" type="curve" smooth="yes"/>
      <point x="201" y="411"/>
      <point x="44" y="372"/>
      <point x="44" y="275" type="curve" smooth="yes"/>
      <point x="44" y="186"/>
      <point x="139" y="121"/>
      <point x="251" y="121" type="curve" smooth="yes"/>
      <point x="305" y="121"/>
      <point x="351" y="134"/>
      <point x="391" y="151" type="curve"/>
      <point x="393" y="149" type="line"/>
      <point x="392" y="146"/>
      <point x="391" y="128"/>
      <point x="391" y="94" type="curve" smooth="yes"/>
    </contour>
    <contour>
      <point x="234" y="-83" type="curve" smooth="yes"/>
      <point x="269" y="-83"/>
      <point x="290" y="-60"/>
      <point x="290" y="-22" type="curve" smooth="yes"/>
      <point x="290" y="15"/>
      <point x="269" y="36"/>
      <point x="234" y="36" type="curve" smooth="yes"/>
      <point x="200" y="36"/>
      <point x="181" y="15"/>
      <point x="181" y="-22" type="curve" smooth="yes"/>
      <point x="181" y="-60"/>
      <point x="201" y="-83"/>
    </contour>
  </outline>
</glyph>
<glyph name="ktRa" format="2">
  <advance width="453"/>
  <unicode hex="110A9"/>
  <outline>
    <contour>
      <point x="289" y="0" type="line"/>
      <point x="370" y="0" type="line"/>
      <point x="370" y="622" type="line"/>
      <point x="311" y="622" type="line"/>
      <point x="34" y="370" type="line"/>
      <point x="93" y="308" type="line"/>
      <point x="290" y="500" type="line"/>
      <point x="292" y="500" type="line"/>
      <point x="291" y="494"/>
      <point x="289" y="470"/>
      <point x="289" y="426" type="curve" smooth="yes"/>
    </contour>
  </outline>
</glyph>
<glyph name="ktVa" format="2">
  <advance width="573"/>
  <unicode hex="110AB"/>
  <outline>
    <contour>
      <point x="409" y="0" type="line"/>
      <point x="490" y="0" type="line"/>
      <point x="490" y="622" type="line"/>
      <point x="409" y="622" type="line"/>
      <point x="409" y="287" type="line"/>
      <point x="371" y="254"/>
      <point x="320" y="232"/>
      <point x="264" y="232" type="curve" smooth="yes"/>
      <point x="189" y="232"/>
      <point x="129" y="280"/>
      <point x="129" y="362" type="curve" smooth="yes"/>
      <point x="129" y="439"/>
      <point x="187" y="489"/>
      <point x="261" y="489" type="curve" smooth="yes"/>
      <point x="285" y="489"/>
      <point x="309" y="483"/>
      <point x="326" y="476" type="curve"/>
      <point x="353" y="540" type="line"/>
      <point x="326" y="554"/>
      <point x="299" y="566"/>
      <point x="252" y="566" type="curve" smooth="yes"/>
      <point x="143" y="566"/>
      <point x="49" y="477"/>
      <point x="49" y="370" type="curve" smooth="yes"/>
      <point x="49" y="253"/>
      <point x="140" y="162"/>
      <point x="273" y="162" type="curve" smooth="yes"/>
      <point x="326" y="162"/>
      <point x="370" y="173"/>
      <point x="409" y="195" type="curve"/>
    </contour>
    <contour>
      <point x="254" y="-43" type="curve" smooth="yes"/>
      <point x="289" y="-43"/>
      <point x="309" y="-20"/>
      <point x="309" y="17" type="curve" smooth="yes"/>
      <point x="309" y="55"/>
      <point x="289" y="76"/>
      <point x="254" y="76" type="curve" smooth="yes"/>
      <point x="220" y="76"/>
      <point x="200" y="55"/>
      <point x="200" y="17" type="curve" smooth="yes"/>
      <point x="200" y="-20"/>
      <point x="220" y="-43"/>
    </contour>
  </outline>
</glyph>
<glyph name="ktSSa" format="2">
  <advance width="521"/>
  <unicode hex="110AD"/>
  <outline>
    <contour>
      <point x="357" y="0" type="line"/>
      <point x="438" y="0" type="line"/>
      <point x="438" y="622" type="line"/>
      <point x="357" y="622" type="line"/>
      <point x="357" y="374" type="line"/>
      <point x="154" y="622" type="line"/>
      <point x="73" y="622" type="line"/>
      <point x="73" y="401" type="line" smooth="yes"/>
      <point x="73" y="274"/>
      <point x="145" y="198"/>
      <point x="257" y="198" type="curve" smooth="yes"/>
      <point x="296" y="198"/>
      <point x="337" y="213"/>
      <point x="357" y="231" type="curve"/>
      <point x="360" y="231" type="line"/>
      <point x="359" y="225"/>
      <point x="357" y="198"/>
      <point x="357" y="147" type="curve" smooth="yes"/>
    </contour>
    <contour>
      <point x="245" y="268" type="curve" smooth="yes"/>
      <point x="182" y="268"/>
      <point x="154" y="301"/>
      <point x="154" y="369" type="curve" smooth="yes"/>
      <point x="154" y="518" type="line"/>
      <point x="284" y="354" type="line" smooth="yes"/>
      <point x="304" y="329"/>
      <point x="326" y="317"/>
      <point x="342" y="311" type="curve"/>
      <point x="317" y="287"/>
      <point x="285" y="268"/>
    </contour>
  </outline>
</glyph>
<glyph name="ktSa" format="2">
  <advance width="704"/>
  <unicode hex="110AE"/>
  <outline>
    <contour>
      <point x="346" y="-11" type="line"/>
      <point x="417" y="28" type="line"/>
      <point x="369" y="96"/>
      <point x="321" y="175"/>
      <point x="273" y="238" type="curve"/>
      <point x="305" y="250"/>
      <point x="335" y="269"/>
      <point x="360" y="293" type="curve"/>
      <point x="393" y="277"/>
      <point x="433" y="269"/>
      <point x="473" y="269" type="curve" smooth="yes"/>
      <point x="498" y="269"/>
      <point x="519" y="271"/>
      <point x="540" y="275" type="curve"/>
      <point x="540" y="0" type="line"/>
      <point x="621" y="0" type="line"/>
      <point x="621" y="622" type="line"/>
      <point x="540" y="622" type="line"/>
      <point x="540" y="350" type="line"/>
      <point x="518" y="340"/>
      <point x="497" y="337"/>
      <point x="465" y="337" type="curve" smooth="yes"/>
      <point x="441" y="337"/>
      <point x="419" y="340"/>
      <point x="397" y="347" type="curve"/>
      <point x="408" y="371"/>
      <point x="414" y="398"/>
      <point x="414" y="429" type="curve" smooth="yes"/>
      <point x="414" y="527"/>
      <point x="346" y="627"/>
      <point x="217" y="627" type="curve" smooth="yes"/>
      <point x="149" y="627"/>
      <point x="98" y="594"/>
      <point x="66" y="567" type="curve"/>
      <point x="109" y="507" type="line"/>
      <point x="140" y="533"/>
      <point x="175" y="556"/>
      <point x="223" y="556" type="curve" smooth="yes"/>
      <point x="286" y="556"/>
      <point x="333" y="515"/>
      <point x="333" y="438" type="curve" smooth="yes"/>
      <point x="333" y="358"/>
      <point x="277" y="316"/>
      <point x="221" y="297" type="curve"/>
      <point x="188" y="328"/>
      <point x="154" y="348"/>
      <point x="120" y="348" type="curve" smooth="yes"/>
      <point x="81" y="348"/>
      <point x="59" y="325"/>
      <point x="59" y="294" type="curve" smooth="yes"/>
      <point x="59" y="252"/>
      <point x="104" y="218"/>
      <point x="167" y="218" type="curve" smooth="yes"/>
      <point x="180" y="218"/>
      <point x="193" y="219"/>
      <point x="206" y="221" type="curve"/>
    </contour>
  </outline>
</glyph>
<glyph name="ktHa" format="2">
  <advance width="516"/>
  <unicode hex="110AF"/>
  <outline>
    <contour>
      <point x="334" y="-90" type="curve"/>
      <point x="370" y="-37" type="line"/>
      <point x="266" y="29"/>
      <point x="139" y="104"/>
      <point x="139" y="217" type="curve" smooth="yes"/>
      <point x="139" y="301"/>
      <point x="201" y="344"/>
      <point x="286" y="344" type="curve" smooth="yes"/>
      <point x="351" y="344"/>
      <point x="382" y="313"/>
      <point x="382" y="275" type="curve" smooth="yes"/>
      <point x="382" y="237"/>
      <point x="355" y="207"/>
      <point x="322" y="207" type="curve" smooth="yes"/>
      <point x="297" y="207"/>
      <point x="277" y="213"/>
      <point x="257" y="228" type="curve"/>
      <point x="226" y="182" type="line"/>
      <point x="255" y="153"/>
      <point x="292" y="136"/>
      <point x="332" y="136" type="curve" smooth="yes"/>
      <point x="393" y="136"/>
      <point x="462" y="178"/>
      <point x="462" y="265" type="curve" smooth="yes"/>
      <point x="462" y="347"/>
      <point x="396" y="415"/>
      <point x="281" y="415" type="curve" smooth="yes"/>
      <point x="248" y="415"/>
      <point x="217" y="409"/>
      <point x="189" y="399" type="curve"/>
      <point x="179" y="417"/>
      <point x="174" y="438"/>
      <point x="174" y="461" type="curve" smooth="yes"/>
      <point x="174" y="520"/>
      <point x="215" y="556"/>
      <point x="344" y="556" type="curve"/>
      <point x="338" y="627" type="line"/>
      <point x="170" y="627"/>
      <point x="93" y="567"/>
      <point x="93" y="476" type="curve" smooth="yes"/>
      <point x="93" y="434"/>
      <point x="110" y="397"/>
      <point x="132" y="369" type="curve"/>
      <point x="87" y="335"/>
      <point x="59" y="284"/>
      <point x="59" y="222" type="curve" smooth="yes"/>
      <point x="59" y="81"/>
      <point x="206" y="-12"/>
    </contour>
  </outline>
</glyph>
<glyph name="ktVSAA" format="2">
  <advance width="247"/>
  <unicode hex="110B0"/>
  <outline>
    <contour>
      <point x="83" y="0" type="line"/>
      <point x="164" y="0" type="line"/>
      <point x="164" y="622" type="line"/>
      <point x="83" y="622" type="line"/>
    </contour>
  </outline>
</glyph>
<glyph name="ktVSI" format="2">
  <advance width="245"/>
  <unicode hex="110B1"/>
  <outline>
    <contour>
      <point x="88" y="0" type="line"/>
      <point x="168" y="0" type="line"/>
      <point x="168" y="578" type="line" smooth="yes"/>
      <point x="168" y="747"/>
      <point x="242" y="801"/>
      <point x="349" y="801" type="curve" smooth="yes"/>
      <point x="487" y="801"/>
      <point x="613" y="728"/>
      <point x="702" y="672" type="curve"/>
      <point x="735" y="719" type="line"/>
      <point x="644" y="780"/>
      <point x="493" y="872"/>
      <point x="340" y="872" type="curve" smooth="yes"/>
      <point x="186" y="872"/>
      <point x="88" y="788"/>
      <point x="88" y="588" type="curve" smooth="yes"/>
    </contour>
  </outline>
</glyph>
<glyph name="ktVSII" format="2">
  <advance width="252"/>
  <unicode hex="110B2"/>
  <outline>
    <contour>
      <point x="88" y="0" type="line"/>
      <point x="169" y="0" type="line"/>
      <point x="169" y="577" type="line" smooth="yes"/>
      <point x="169" y="746"/>
      <point x="116" y="876"/>
      <point x="-32" y="876" type="curve" smooth="yes"/>
      <point x="-118" y="876"/>
      <point x="-185" y="825"/>
      <point x="-185" y="734" type="curve" smooth="yes"/>
      <point x="-185" y="669"/>
      <point x="-146" y="620"/>
      <point x="-119" y="592" type="curve"/>
      <point x="-64" y="628" type="line"/>
      <point x="-86" y="656"/>
      <point x="-104" y="685"/>
      <point x="-104" y="724" type="curve" smooth="yes"/>
      <point x="-104" y="770"/>
      <point x="-77" y="805"/>
      <point x="-22" y="805" type="curve" smooth="yes"/>
      <point x="50" y="805"/>
      <point x="88" y="740"/>
      <point x="88" y="592" type="curve" smooth="yes"/>
    </contour>
  </outline>
</glyph>
<glyph name="ktVSU" format="2">
  <unicode hex="110B3"/>
  <outline>
    <contour>
      <point x="-336" y="-226" type="curve" smooth="yes"/>
      <point x="-235" y="-226"/>
      <point x="-177" y="-171"/>
      <point x="-177" y="-92" type="curve" smooth="yes"/>
      <point x="-177" y="-12"/>
      <point x="-237" y="40"/>
      <point x="-326" y="40" type="curve" smooth="yes"/>
      <point x="-370" y="40" type="line"/>
      <point x="-370" y="-10" type="line"/>
      <point x="-294" y="-10"/>
      <point x="-258" y="-40"/>
      <point x="-258" y="-84" type="curve" smooth="yes"/>
      <point x="-258" y="-125"/>
      <point x="-290" y="-155"/>
      <point x="-344" y="-155" type="curve" smooth="yes"/>
      <point x="-438" y="-155"/>
      <point x="-509" y="-72"/>
      <point x="-557" y="-16" type="curve"/>
      <point x="-607" y="-57" type="line"/>
      <point x="-555" y="-121"/>
      <point x="-466" y="-226"/>
    </contour>
  </outline>
</glyph>
<glyph name="ktVSUU" format="2">
  <unicode hex="110B4"/>
  <outline>
    <contour>
      <point x="-78" y="-265" type="curve"/>
      <point x="-24" y="-238" type="line"/>
      <point x="-57" y="-168"/>
      <point x="-133" y="5"/>
      <point x="-292" y="5" type="curve" smooth="yes"/>
      <point x="-381" y="5"/>
      <point x="-431" y="-46"/>
      <point x="-431" y="-112" type="curve" smooth="yes"/>
      <point x="-431" y="-187"/>
      <point x="-364" y="-240"/>
      <point x="-275" y="-240" type="curve"/>
      <point x="-263" y="-181" type="line"/>
      <point x="-313" y="-180"/>
      <point x="-351" y="-158"/>
      <point x="-351" y="-121" type="curve" smooth="yes"/>
      <point x="-351" y="-90"/>
      <point x="-326" y="-66"/>
      <point x="-284" y="-66" type="curve" smooth="yes"/>
      <point x="-175" y="-66"/>
      <point x="-108" y="-202"/>
    </contour>
  </outline>
</glyph>
<glyph name="ktVSE" format="2">
  <unicode hex="110B5"/>
  <outline>
    <contour>
      <point x="-104" y="674" type="line"/>
      <point x="-79" y="727" type="line"/>
      <point x="-498" y="906" type="line"/>
      <point x="-532" y="834" type="line"/>
    </contour>
  </outline>
</glyph>
<glyph name="ktVSAI" format="2">
  <unicode hex="110B6"/>
  <outline>
    <contour>
      <point x="-104" y="674" type="line"/>
      <point x="-79" y="727" type="line"/>
      <point x="-98" y="797"/>
      <point x="-137" y="873"/>
      <point x="-288" y="1024" type="curve"/>
      <point x="-343" y="971" type="line"/>
      <point x="-230" y="860"/>
      <point x="-172" y="812"/>
      <point x="-140" y="750" type="curve"/>
      <point x="-144" y="746" type="line"/>
      <point x="-158" y="756"/>
      <point x="-190" y="775"/>
      <point x="-227" y="791" type="curve" smooth="yes"/>
      <point x="-498" y="906" type="line"/>
      <point x="-532" y="834" type="line"/>
    </contour>
  </outline>
</glyph>
<glyph name="ktVSO" format="2">
  <advance width="250"/>
  <unicode hex="110B7"/>
  <outline>
    <contour>
      <point x="120" y="674" type="line"/>
      <point x="146" y="727" type="line"/>
      <point x="-273" y="906" type="line"/>
      <point x="-308" y="834" type="line"/>
    </contour>
    <contour>
      <point x="86" y="0" type="line"/>
      <point x="167" y="0" type="line"/>
      <point x="167" y="622" type="line"/>
      <point x="86" y="622" type="line"/>
    </contour>
  </outline>
</glyph>
<glyph name="ktVSAU" format="2">
  <advance width="242"/>
  <unicode hex="110B8"/>
  <outline>
    <contour>
      <point x="110" y="674" type="line"/>
      <point x="136" y="727" type="line"/>
      <point x="117" y="797"/>
      <point x="78" y="873"/>
      <point x="-73" y="1024" type="curve"/>
      <point x="-128" y="971" type="line"/>
      <point x="-15" y="860"/>
      <point x="42" y="812"/>
      <point x="75" y="750" type="curve"/>
      <point x="71" y="746" type="line"/>
      <point x="57" y="756"/>
      <point x="25" y="775"/>
      <point x="-12" y="791" type="curve" smooth="yes"/>
      <point x="-283" y="906" type="line"/>
      <point x="-317" y="834" type="line"/>
    </contour>
    <contour>
      <point x="78" y="0" type="line"/>
      <point x="159" y="0" type="line"/>
      <point x="159" y="622" type="line"/>
      <point x="78" y="622" type="line"/>
    </contour>
  </outline>
</glyph>
<glyph name="ktVirama" format="2">
  <unicode hex="110B9"/>
  <outline>
    <contour>
      <point x="330" y="-279" type="line"/>
      <point x="364" y="-226" type="line"/>
      <point x="118" y="-65" type="line"/>
      <point x="73" y="-133" type="line"/>
    </contour>
  </outline>
</glyph>
<glyph name="ktNukta" format="2">
  <unicode hex="110BA"/>
  <outline>
    <contour>
      <point x="-107" y="-200" type="curve" smooth="yes"/>
      <point x="-73" y="-200"/>
      <point x="-52" y="-178"/>
      <point x="-52" y="-140" type="curve" smooth="yes"/>
      <point x="-52" y="-103"/>
      <point x="-73" y="-82"/>
      <point x="-107" y="-82" type="curve" smooth="yes"/>
      <point x="-142" y="-82"/>
      <point x="-161" y="-103"/>
      <point x="-161" y="-140" type="curve" smooth="yes"/>
      <point x="-161" y="-178"/>
      <point x="-141" y="-200"/>
    </contour>
  </outline>
</glyph>
<glyph name="ktABB" format="2">
  <advance width="486"/>
  <unicode hex="110BB"/>
  <outline>
    <contour>
      <point x="256" y="144" type="curve" smooth="yes"/>
      <point x="367" y="144"/>
      <point x="423" y="235"/>
      <point x="423" y="313" type="curve" smooth="yes"/>
      <point x="423" y="405"/>
      <point x="357" y="487"/>
      <point x="249" y="487" type="curve" smooth="yes"/>
      <point x="152" y="487"/>
      <point x="78" y="420"/>
      <point x="78" y="319" type="curve" smooth="yes"/>
      <point x="78" y="216"/>
      <point x="156" y="144"/>
    </contour>
    <contour>
      <point x="251" y="214" type="curve" smooth="yes"/>
      <point x="193" y="214"/>
      <point x="159" y="248"/>
      <point x="159" y="314" type="curve" smooth="yes"/>
      <point x="159" y="372"/>
      <point x="187" y="417"/>
      <point x="253" y="417" type="curve" smooth="yes"/>
      <point x="317" y="417"/>
      <point x="342" y="377"/>
      <point x="342" y="318" type="curve" smooth="yes"/>
      <point x="342" y="247"/>
      <point x="307" y="214"/>
    </contour>
  </outline>
</glyph>
<glyph name="ktENU" format="2">
  <advance width="1050"/>
  <unicode hex="110BC"/>
  <outline>
    <contour>
      <point x="207" y="-5" type="curve" smooth="yes"/>
      <point x="280" y="-5"/>
      <point x="338" y="48"/>
      <point x="338" y="121" type="curve" smooth="yes"/>
      <point x="338" y="200"/>
      <point x="278" y="254"/>
      <point x="220" y="293" type="curve"/>
      <point x="283" y="355"/>
      <point x="373" y="410"/>
      <point x="460" y="450" type="curve"/>
      <point x="460" y="216" type="line" smooth="yes"/>
      <point x="460" y="88"/>
      <point x="516" y="0"/>
      <point x="693" y="0" type="curve" smooth="yes"/>
      <point x="1050" y="0" type="line"/>
      <point x="1050" y="71" type="line"/>
      <point x="688" y="71" type="line" smooth="yes"/>
      <point x="597" y="71"/>
      <point x="541" y="85"/>
      <point x="541" y="206" type="curve" smooth="yes"/>
      <point x="541" y="543" type="line"/>
      <point x="483" y="543" type="line"/>
      <point x="267" y="443"/>
      <point x="59" y="295"/>
      <point x="59" y="144" type="curve" smooth="yes"/>
      <point x="59" y="48"/>
      <point x="121" y="-5"/>
    </contour>
    <contour>
      <point x="202" y="66" type="curve" smooth="yes"/>
      <point x="163" y="66"/>
      <point x="139" y="96"/>
      <point x="139" y="139" type="curve" smooth="yes"/>
      <point x="139" y="173"/>
      <point x="152" y="207"/>
      <point x="174" y="239" type="curve"/>
      <point x="227" y="204"/>
      <point x="257" y="171"/>
      <point x="257" y="125" type="curve" smooth="yes"/>
      <point x="257" y="86"/>
      <point x="233" y="66"/>
    </contour>
  </outline>
</glyph>
<glyph name="ktSEC" format="2">
  <advance width="712"/>
  <unicode hex="110BE"/>
  <outline>
    <contour>
      <point x="88" y="288" type="line"/>
      <point x="624" y="288" type="line"/>
      <point x="624" y="359" type="line"/>
      <point x="88" y="359" type="line"/>
    </contour>
  </outline>
</glyph>
<glyph name="ktDblSEC" format="2">
  <advance width="712"/>
  <unicode hex="110BF"/>
  <outline>
    <contour>
      <point x="88" y="341" type="line"/>
      <point x="624" y="341" type="line"/>
      <point x="624" y="413" type="line"/>
      <point x="88" y="413" type="line"/>
    </contour>
    <contour>
      <point x="88" y="195" type="line"/>
      <point x="624" y="195" type="line"/>
      <point x="624" y="266" type="line"/>
      <point x="88" y="266" type="line"/>
    </contour>
  </outline>
</glyph>
<glyph name="ktDanda" format="2">
  <advance width="247"/>
  <unicode hex="110C0"/>
  <outline>
    <contour>
      <point x="88" y="-29" type="line"/>
      <point x="159" y="-29" type="line"/>
      <point x="159" y="651" type="line"/>
      <point x="88" y="651" type="line"/>
    </contour>
  </outline>
</glyph>
<glyph name="ktDDanda" format="2">
  <advance width="442"/>
  <unicode hex="110C1"/>
  <outline>
    <contour>
      <point x="283" y="-29" type="line"/>
      <point x="354" y="-29" type="line"/>
      <point x="354" y="651" type="line"/>
      <point x="283" y="651" type="line"/>
    </contour>
    <contour>
      <point x="88" y="-29" type="line"/>
      <point x="159" y="-29" type="line"/>
      <point x="159" y="651" type="line"/>
      <point x="88" y="651" type="line"/>
    </contour>
  </outline>
</glyph>
<glyph name="ktNUM.above" format="2">
  <advance width="650"/>
  <unicode hex="110CD"/>
  <outline>
    <contour>
      <point x="207" y="299" type="curve" smooth="yes"/>
      <point x="280" y="299"/>
      <point x="338" y="352"/>
      <point x="338" y="425" type="curve" smooth="yes"/>
      <point x="338" y="504"/>
      <point x="278" y="558"/>
      <point x="220" y="597" type="curve"/>
      <point x="283" y="659"/>
      <point x="373" y="714"/>
      <point x="460" y="754" type="curve"/>
      <point x="460" y="520" type="line" smooth="yes"/>
      <point x="460" y="392"/>
      <point x="516" y="304"/>
      <point x="693" y="304" type="curve" smooth="yes"/>
      <point x="710" y="304" type="line"/>
      <point x="710" y="375" type="line"/>
      <point x="688" y="375" type="line" smooth="yes"/>
      <point x="597" y="375"/>
      <point x="541" y="389"/>
      <point x="541" y="510" type="curve" smooth="yes"/>
      <point x="541" y="847" type="line"/>
      <point x="483" y="847" type="line"/>
      <point x="267" y="747"/>
      <point x="59" y="599"/>
      <point x="59" y="448" type="curve" smooth="yes"/>
      <point x="59" y="352"/>
      <point x="121" y="299"/>
    </contour>
    <contour>
      <point x="202" y="370" type="curve" smooth="yes"/>
      <point x="163" y="370"/>
      <point x="139" y="400"/>
      <point x="139" y="443" type="curve" smooth="yes"/>
      <point x="139" y="477"/>
      <point x="152" y="511"/>
      <point x="174" y="543" type="curve"/>
      <point x="227" y="508"/>
      <point x="257" y="475"/>
      <point x="257" y="429" type="curve" smooth="yes"/>
      <point x="257" y="390"/>
      <point x="233" y="370"/>
    </contour>
  </outline>
</glyph>
<glyph name="ktAA.var" format="2">
  <advance width="1211"/>
  <outline>
    <contour>
      <point x="801" y="0" type="line"/>
      <point x="881" y="0" type="line"/>
      <point x="881" y="622" type="line"/>
      <point x="801" y="622" type="line"/>
      <point x="801" y="423" type="line"/>
      <point x="773" y="440"/>
      <point x="741" y="452"/>
      <point x="702" y="452" type="curve" smooth="yes"/>
      <point x="655" y="452"/>
      <point x="618" y="433"/>
      <point x="589" y="405" type="curve"/>
      <point x="556" y="431"/>
      <point x="516" y="452"/>
      <point x="464" y="452" type="curve" smooth="yes"/>
      <point x="416" y="452"/>
      <point x="378" y="432"/>
      <point x="349" y="403" type="curve"/>
      <point x="316" y="430"/>
      <point x="275" y="452"/>
      <point x="222" y="452" type="curve" smooth="yes"/>
      <point x="86" y="452"/>
      <point x="38" y="295"/>
      <point x="15" y="221" type="curve"/>
      <point x="88" y="196" type="line"/>
      <point x="113" y="270"/>
      <point x="151" y="381"/>
      <point x="236" y="381" type="curve" smooth="yes"/>
      <point x="266" y="381"/>
      <point x="291" y="371"/>
      <point x="313" y="357" type="curve"/>
      <point x="285" y="310"/>
      <point x="268" y="256"/>
      <point x="257" y="221" type="curve"/>
      <point x="330" y="196" type="line"/>
      <point x="355" y="270"/>
      <point x="393" y="381"/>
      <point x="479" y="381" type="curve" smooth="yes"/>
      <point x="506" y="381"/>
      <point x="531" y="372"/>
      <point x="553" y="358" type="curve"/>
      <point x="523" y="311"/>
      <point x="506" y="257"/>
      <point x="495" y="221" type="curve"/>
      <point x="568" y="196" type="line"/>
      <point x="594" y="273"/>
      <point x="631" y="381"/>
      <point x="717" y="381" type="curve" smooth="yes"/>
      <point x="749" y="381"/>
      <point x="777" y="369"/>
      <point x="801" y="353" type="curve"/>
    </contour>
    <component base="ktVSAA" xOffset="964"/>
  </outline>
</glyph>
<glyph name="ktBHRU.alt1" format="2">
  <advance width="640"/>
  <outline>
    <contour>
      <point x="499" y="622" type="line"/>
      <point x="427" y="587"/>
      <point x="356" y="550"/>
      <point x="294" y="509" type="curve"/>
      <point x="271" y="558"/>
      <point x="246" y="600"/>
      <point x="228" y="627" type="curve"/>
      <point x="165" y="621"/>
      <point x="92" y="600"/>
      <point x="54" y="586" type="curve"/>
      <point x="73" y="524" type="line"/>
      <point x="101" y="534"/>
      <point x="151" y="550"/>
      <point x="187" y="557" type="curve"/>
      <point x="204" y="531"/>
      <point x="221" y="500"/>
      <point x="236" y="466" type="curve"/>
      <point x="160" y="406"/>
      <point x="109" y="340"/>
      <point x="109" y="271" type="curve" smooth="yes"/>
      <point x="109" y="192"/>
      <point x="166" y="146"/>
      <point x="232" y="146" type="curve" smooth="yes"/>
      <point x="301" y="146"/>
      <point x="355" y="198"/>
      <point x="355" y="299" type="curve" smooth="yes"/>
      <point x="355" y="343"/>
      <point x="342" y="393"/>
      <point x="324" y="441" type="curve"/>
      <point x="370" y="472"/>
      <point x="423" y="500"/>
      <point x="478" y="526" type="curve"/>
      <point x="479" y="524" type="line"/>
      <point x="478" y="514"/>
      <point x="477" y="487"/>
      <point x="477" y="451" type="curve" smooth="yes"/>
      <point x="477" y="209" type="line"/>
      <point x="172" y="70" type="line"/>
      <point x="212" y="0" type="line"/>
      <point x="477" y="133" type="line"/>
      <point x="477" y="83" type="line" smooth="yes"/>
      <point x="477" y="-85"/>
      <point x="375" y="-133"/>
      <point x="276" y="-181" type="curve"/>
      <point x="309" y="-244" type="line"/>
      <point x="416" y="-188"/>
      <point x="557" y="-140"/>
      <point x="557" y="73" type="curve" smooth="yes"/>
      <point x="557" y="622" type="line"/>
    </contour>
    <contour>
      <point x="224" y="217" type="curve" smooth="yes"/>
      <point x="202" y="217"/>
      <point x="190" y="232"/>
      <point x="190" y="262" type="curve" smooth="yes"/>
      <point x="190" y="310"/>
      <point x="218" y="354"/>
      <point x="262" y="394" type="curve"/>
      <point x="270" y="367"/>
      <point x="274" y="341"/>
      <point x="274" y="318" type="curve" smooth="yes"/>
      <point x="274" y="248"/>
      <point x="253" y="217"/>
    </contour>
  </outline>
</glyph>
<glyph name="ktBHU.alt1" format="2">
  <advance width="633"/>
  <outline>
    <contour>
      <point x="309" y="-244" type="line"/>
      <point x="416" y="-188"/>
      <point x="557" y="-140"/>
      <point x="557" y="73" type="curve" smooth="yes"/>
      <point x="557" y="622" type="line"/>
      <point x="499" y="622" type="line"/>
      <point x="429" y="586"/>
      <point x="359" y="546"/>
      <point x="297" y="504" type="curve"/>
      <point x="272" y="557"/>
      <point x="246" y="600"/>
      <point x="228" y="627" type="curve"/>
      <point x="165" y="621"/>
      <point x="92" y="600"/>
      <point x="54" y="586" type="curve"/>
      <point x="73" y="524" type="line"/>
      <point x="101" y="534"/>
      <point x="151" y="550"/>
      <point x="187" y="557" type="curve"/>
      <point x="204" y="531"/>
      <point x="223" y="498"/>
      <point x="238" y="461" type="curve"/>
      <point x="155" y="394"/>
      <point x="97" y="320"/>
      <point x="97" y="242" type="curve" smooth="yes"/>
      <point x="97" y="165"/>
      <point x="150" y="104"/>
      <point x="230" y="104" type="curve" smooth="yes"/>
      <point x="303" y="104"/>
      <point x="360" y="157"/>
      <point x="360" y="255" type="curve" smooth="yes"/>
      <point x="360" y="316"/>
      <point x="347" y="375"/>
      <point x="328" y="429" type="curve"/>
      <point x="367" y="455"/>
      <point x="409" y="480"/>
      <point x="477" y="524" type="curve"/>
      <point x="479" y="524" type="line"/>
      <point x="478" y="514"/>
      <point x="477" y="487"/>
      <point x="477" y="451" type="curve" smooth="yes"/>
      <point x="477" y="83" type="line" smooth="yes"/>
      <point x="477" y="-85"/>
      <point x="374" y="-131"/>
      <point x="275" y="-181" type="curve"/>
    </contour>
    <contour>
      <point x="220" y="175" type="curve" smooth="yes"/>
      <point x="193" y="175"/>
      <point x="178" y="195"/>
      <point x="178" y="229" type="curve" smooth="yes"/>
      <point x="178" y="281"/>
      <point x="213" y="333"/>
      <point x="266" y="380" type="curve"/>
      <point x="274" y="346"/>
      <point x="279" y="311"/>
      <point x="279" y="274" type="curve" smooth="yes"/>
      <point x="279" y="204"/>
      <point x="251" y="175"/>
    </contour>
  </outline>
</glyph>
<glyph name="ktBHYa" format="2">
  <advance width="979"/>
  <outline>
    <contour>
      <point x="815" y="0" type="line"/>
      <point x="896" y="0" type="line"/>
      <point x="896" y="622" type="line"/>
      <point x="815" y="622" type="line"/>
      <point x="815" y="228" type="line"/>
      <point x="771" y="202"/>
      <point x="721" y="187"/>
      <point x="666" y="187" type="curve" smooth="yes"/>
      <point x="589" y="187"/>
      <point x="549" y="205"/>
      <point x="549" y="248" type="curve" smooth="yes"/>
      <point x="549" y="333"/>
      <point x="707" y="351"/>
      <point x="707" y="453" type="curve" smooth="yes"/>
      <point x="707" y="531"/>
      <point x="651" y="588"/>
      <point x="538" y="588" type="curve" smooth="yes"/>
      <point x="458" y="588"/>
      <point x="369" y="560"/>
      <point x="292" y="515" type="curve"/>
      <point x="269" y="562"/>
      <point x="245" y="602"/>
      <point x="228" y="627" type="curve"/>
      <point x="165" y="621"/>
      <point x="92" y="600"/>
      <point x="54" y="586" type="curve"/>
      <point x="73" y="524" type="line"/>
      <point x="101" y="534"/>
      <point x="151" y="550"/>
      <point x="187" y="557" type="curve"/>
      <point x="202" y="534"/>
      <point x="218" y="506"/>
      <point x="232" y="474" type="curve"/>
      <point x="153" y="412"/>
      <point x="97" y="331"/>
      <point x="97" y="247" type="curve" smooth="yes"/>
      <point x="97" y="170"/>
      <point x="149" y="104"/>
      <point x="230" y="104" type="curve" smooth="yes"/>
      <point x="303" y="104"/>
      <point x="360" y="157"/>
      <point x="360" y="255" type="curve" smooth="yes"/>
      <point x="360" y="323"/>
      <point x="343" y="388"/>
      <point x="322" y="446" type="curve"/>
      <point x="393" y="491"/>
      <point x="478" y="517"/>
      <point x="547" y="517" type="curve" smooth="yes"/>
      <point x="603" y="517"/>
      <point x="626" y="495"/>
      <point x="626" y="458" type="curve" smooth="yes"/>
      <point x="626" y="390"/>
      <point x="469" y="358"/>
      <point x="469" y="255" type="curve" smooth="yes"/>
      <point x="469" y="168"/>
      <point x="560" y="116"/>
      <point x="676" y="116" type="curve" smooth="yes"/>
      <point x="731" y="116"/>
      <point x="776" y="127"/>
      <point x="815" y="143" type="curve"/>
    </contour>
    <contour>
      <point x="222" y="175" type="curve" smooth="yes"/>
      <point x="194" y="175"/>
      <point x="178" y="197"/>
      <point x="178" y="233" type="curve" smooth="yes"/>
      <point x="178" y="297"/>
      <point x="211" y="354"/>
      <point x="260" y="400" type="curve"/>
      <point x="272" y="361"/>
      <point x="279" y="318"/>
      <point x="279" y="274" type="curve" smooth="yes"/>
      <point x="279" y="204"/>
      <point x="251" y="175"/>
    </contour>
    <contour>
      <point x="609" y="-83" type="curve" smooth="yes"/>
      <point x="644" y="-83"/>
      <point x="664" y="-60"/>
      <point x="664" y="-22" type="curve" smooth="yes"/>
      <point x="664" y="15"/>
      <point x="644" y="36"/>
      <point x="609" y="36" type="curve" smooth="yes"/>
      <point x="575" y="36"/>
      <point x="555" y="15"/>
      <point x="555" y="-22" type="curve" smooth="yes"/>
      <point x="555" y="-60"/>
      <point x="575" y="-83"/>
    </contour>
  </outline>
</glyph>
<glyph name="ktBRU.alt1" format="2">
  <advance width="568"/>
  <outline>
    <contour>
      <point x="404" y="622" type="line"/>
      <point x="404" y="287" type="line"/>
      <point x="366" y="254"/>
      <point x="315" y="232"/>
      <point x="259" y="232" type="curve" smooth="yes"/>
      <point x="185" y="232"/>
      <point x="125" y="280"/>
      <point x="125" y="362" type="curve" smooth="yes"/>
      <point x="125" y="439"/>
      <point x="182" y="489"/>
      <point x="256" y="489" type="curve" smooth="yes"/>
      <point x="280" y="489"/>
      <point x="304" y="483"/>
      <point x="321" y="476" type="curve"/>
      <point x="348" y="540" type="line"/>
      <point x="321" y="554"/>
      <point x="294" y="566"/>
      <point x="247" y="566" type="curve" smooth="yes"/>
      <point x="138" y="566"/>
      <point x="44" y="477"/>
      <point x="44" y="370" type="curve" smooth="yes"/>
      <point x="44" y="260"/>
      <point x="125" y="172"/>
      <point x="246" y="163" type="curve"/>
      <point x="99" y="54" type="line"/>
      <point x="151" y="-10" type="line"/>
      <point x="404" y="194" type="line"/>
      <point x="404" y="83" type="line" smooth="yes"/>
      <point x="404" y="-85"/>
      <point x="301" y="-134"/>
      <point x="203" y="-181" type="curve"/>
      <point x="236" y="-244" type="line"/>
      <point x="343" y="-188"/>
      <point x="485" y="-140"/>
      <point x="485" y="73" type="curve" smooth="yes"/>
      <point x="485" y="622" type="line"/>
    </contour>
  </outline>
</glyph>
<glyph name="ktBU.alt1" format="2">
  <advance width="570"/>
  <outline>
    <contour>
      <point x="237" y="-244" type="line"/>
      <point x="343" y="-188"/>
      <point x="485" y="-140"/>
      <point x="485" y="73" type="curve" smooth="yes"/>
      <point x="485" y="622" type="line"/>
      <point x="404" y="622" type="line"/>
      <point x="404" y="287" type="line"/>
      <point x="366" y="254"/>
      <point x="315" y="232"/>
      <point x="259" y="232" type="curve" smooth="yes"/>
      <point x="185" y="232"/>
      <point x="125" y="280"/>
      <point x="125" y="362" type="curve" smooth="yes"/>
      <point x="125" y="439"/>
      <point x="182" y="489"/>
      <point x="256" y="489" type="curve" smooth="yes"/>
      <point x="280" y="489"/>
      <point x="304" y="483"/>
      <point x="321" y="476" type="curve"/>
      <point x="348" y="540" type="line"/>
      <point x="321" y="554"/>
      <point x="294" y="566"/>
      <point x="247" y="566" type="curve" smooth="yes"/>
      <point x="138" y="566"/>
      <point x="44" y="477"/>
      <point x="44" y="370" type="curve" smooth="yes"/>
      <point x="44" y="253"/>
      <point x="135" y="162"/>
      <point x="269" y="162" type="curve" smooth="yes"/>
      <point x="321" y="162"/>
      <point x="365" y="173"/>
      <point x="404" y="195" type="curve"/>
      <point x="404" y="83" type="line" smooth="yes"/>
      <point x="404" y="-85"/>
      <point x="302" y="-131"/>
      <point x="203" y="-181" type="curve"/>
    </contour>
  </outline>
</glyph>
<glyph name="ktBa.half" format="2">
  <advance width="405"/>
  <outline>
    <contour>
      <point x="269" y="162" type="curve" smooth="yes"/>
      <point x="358" y="162"/>
      <point x="424" y="196"/>
      <point x="479" y="254" type="curve"/>
      <point x="436" y="322" type="line"/>
      <point x="397" y="269"/>
      <point x="333" y="232"/>
      <point x="259" y="232" type="curve" smooth="yes"/>
      <point x="185" y="232"/>
      <point x="125" y="280"/>
      <point x="125" y="362" type="curve" smooth="yes"/>
      <point x="125" y="439"/>
      <point x="182" y="489"/>
      <point x="256" y="489" type="curve" smooth="yes"/>
      <point x="280" y="489"/>
      <point x="304" y="483"/>
      <point x="321" y="476" type="curve"/>
      <point x="348" y="540" type="line"/>
      <point x="321" y="554"/>
      <point x="294" y="566"/>
      <point x="247" y="566" type="curve" smooth="yes"/>
      <point x="138" y="566"/>
      <point x="44" y="477"/>
      <point x="44" y="370" type="curve" smooth="yes"/>
      <point x="44" y="253"/>
      <point x="135" y="162"/>
    </contour>
  </outline>
</glyph>
<glyph name="ktCHII" format="2">
  <advance width="990"/>
  <outline>
    <contour>
      <point x="303" y="-5" type="curve" smooth="yes"/>
      <point x="405" y="-5"/>
      <point x="487" y="32"/>
      <point x="549" y="90" type="curve"/>
      <point x="579" y="58"/>
      <point x="613" y="26"/>
      <point x="650" y="-5" type="curve"/>
      <point x="695" y="43" type="line"/>
      <point x="657" y="77"/>
      <point x="623" y="109"/>
      <point x="594" y="141" type="curve"/>
      <point x="654" y="221"/>
      <point x="685" y="323"/>
      <point x="685" y="421" type="curve" smooth="yes"/>
      <point x="685" y="517"/>
      <point x="644" y="572"/>
      <point x="644" y="671" type="curve" smooth="yes"/>
      <point x="644" y="769"/>
      <point x="685" y="806"/>
      <point x="732" y="806" type="curve" smooth="yes"/>
      <point x="804" y="806"/>
      <point x="827" y="753"/>
      <point x="827" y="612" type="curve" smooth="yes"/>
      <point x="827" y="0" type="line"/>
      <point x="907" y="0" type="line"/>
      <point x="907" y="598" type="line" smooth="yes"/>
      <point x="907" y="781"/>
      <point x="851" y="877"/>
      <point x="727" y="877" type="curve" smooth="yes"/>
      <point x="634" y="877"/>
      <point x="572" y="805"/>
      <point x="572" y="682" type="curve" smooth="yes"/>
      <point x="572" y="653"/>
      <point x="575" y="632"/>
      <point x="580" y="616" type="curve"/>
      <point x="562" y="623"/>
      <point x="543" y="627"/>
      <point x="522" y="627" type="curve" smooth="yes"/>
      <point x="427" y="627"/>
      <point x="375" y="558"/>
      <point x="375" y="446" type="curve" smooth="yes"/>
      <point x="375" y="351"/>
      <point x="418" y="249"/>
      <point x="500" y="147" type="curve"/>
      <point x="447" y="96"/>
      <point x="376" y="65"/>
      <point x="292" y="65" type="curve" smooth="yes"/>
      <point x="200" y="65"/>
      <point x="144" y="111"/>
      <point x="144" y="178" type="curve" smooth="yes"/>
      <point x="144" y="247"/>
      <point x="203" y="292"/>
      <point x="328" y="292" type="curve"/>
      <point x="318" y="372" type="line"/>
      <point x="273" y="372"/>
      <point x="231" y="365"/>
      <point x="195" y="353" type="curve"/>
      <point x="170" y="378"/>
      <point x="156" y="409"/>
      <point x="156" y="446" type="curve" smooth="yes"/>
      <point x="156" y="506"/>
      <point x="191" y="556"/>
      <point x="301" y="556" type="curve"/>
      <point x="296" y="627" type="line"/>
      <point x="125" y="627"/>
      <point x="75" y="541"/>
      <point x="75" y="460" type="curve" smooth="yes"/>
      <point x="75" y="403"/>
      <point x="106" y="356"/>
      <point x="140" y="325" type="curve"/>
      <point x="92" y="292"/>
      <point x="63" y="246"/>
      <point x="63" y="188" type="curve" smooth="yes"/>
      <point x="63" y="65"/>
      <point x="170" y="-5"/>
    </contour>
    <contour>
      <point x="544" y="201" type="curve"/>
      <point x="485" y="280"/>
      <point x="456" y="357"/>
      <point x="456" y="441" type="curve" smooth="yes"/>
      <point x="456" y="515"/>
      <point x="482" y="556"/>
      <point x="527" y="556" type="curve" smooth="yes"/>
      <point x="581" y="556"/>
      <point x="604" y="498"/>
      <point x="604" y="421" type="curve" smooth="yes"/>
      <point x="604" y="337"/>
      <point x="583" y="261"/>
    </contour>
  </outline>
</glyph>
<glyph name="ktCRa" format="2">
  <advance width="561"/>
  <outline>
    <contour>
      <point x="138" y="-10" type="line"/>
      <point x="395" y="154" type="line" smooth="yes"/>
      <point x="396" y="155"/>
      <point x="396" y="155"/>
      <point x="397" y="155" type="curve"/>
      <point x="397" y="0" type="line"/>
      <point x="478" y="0" type="line"/>
      <point x="478" y="622" type="line"/>
      <point x="397" y="622" type="line"/>
      <point x="397" y="242" type="line"/>
      <point x="365" y="217"/>
      <point x="323" y="202"/>
      <point x="268" y="202" type="curve" smooth="yes"/>
      <point x="214" y="202"/>
      <point x="169" y="223"/>
      <point x="134" y="260" type="curve"/>
      <point x="193" y="311"/>
      <point x="267" y="375"/>
      <point x="267" y="460" type="curve" smooth="yes"/>
      <point x="267" y="537"/>
      <point x="216" y="585"/>
      <point x="158" y="627" type="curve"/>
      <point x="115" y="579" type="line"/>
      <point x="159" y="546"/>
      <point x="187" y="514"/>
      <point x="187" y="468" type="curve" smooth="yes"/>
      <point x="187" y="396"/>
      <point x="103" y="338"/>
      <point x="29" y="279" type="curve"/>
      <point x="64" y="231"/>
      <point x="134" y="152"/>
      <point x="237" y="134" type="curve"/>
      <point x="97" y="56" type="line"/>
    </contour>
  </outline>
</glyph>
<glyph name="ktCU.alt1" format="2">
  <advance width="588"/>
  <outline>
    <contour>
      <point x="285" y="-205" type="curve" smooth="yes"/>
      <point x="424" y="-205"/>
      <point x="505" y="-131"/>
      <point x="505" y="39" type="curve" smooth="yes"/>
      <point x="505" y="622" type="line"/>
      <point x="424" y="622" type="line"/>
      <point x="424" y="242" type="line"/>
      <point x="392" y="217"/>
      <point x="350" y="202"/>
      <point x="295" y="202" type="curve" smooth="yes"/>
      <point x="241" y="202"/>
      <point x="196" y="223"/>
      <point x="161" y="260" type="curve"/>
      <point x="220" y="311"/>
      <point x="294" y="375"/>
      <point x="294" y="460" type="curve" smooth="yes"/>
      <point x="294" y="537"/>
      <point x="243" y="585"/>
      <point x="185" y="627" type="curve"/>
      <point x="142" y="579" type="line"/>
      <point x="186" y="546"/>
      <point x="213" y="514"/>
      <point x="213" y="468" type="curve" smooth="yes"/>
      <point x="213" y="396"/>
      <point x="130" y="338"/>
      <point x="56" y="279" type="curve"/>
      <point x="96" y="226"/>
      <point x="179" y="131"/>
      <point x="305" y="131" type="curve" smooth="yes"/>
      <point x="353" y="131"/>
      <point x="392" y="140"/>
      <point x="424" y="155" type="curve"/>
      <point x="424" y="49" type="line" smooth="yes"/>
      <point x="424" y="-82"/>
      <point x="375" y="-134"/>
      <point x="280" y="-134" type="curve" smooth="yes"/>
      <point x="201" y="-134"/>
      <point x="134" y="-93"/>
      <point x="71" y="-44" type="curve"/>
      <point x="29" y="-95" type="line"/>
      <point x="96" y="-147"/>
      <point x="180" y="-205"/>
    </contour>
  </outline>
</glyph>
<glyph name="ktDDHII" format="2">
  <advance width="804"/>
  <outline>
    <contour>
      <point x="299" y="-5" type="curve" smooth="yes"/>
      <point x="421" y="-5"/>
      <point x="533" y="56"/>
      <point x="533" y="157" type="curve" smooth="yes"/>
      <point x="533" y="214"/>
      <point x="485" y="279"/>
      <point x="400" y="279" type="curve" smooth="yes"/>
      <point x="327" y="279"/>
      <point x="272" y="232"/>
      <point x="272" y="169" type="curve" smooth="yes"/>
      <point x="272" y="128"/>
      <point x="297" y="94"/>
      <point x="329" y="68" type="curve"/>
      <point x="316" y="67"/>
      <point x="303" y="66"/>
      <point x="290" y="66" type="curve" smooth="yes"/>
      <point x="206" y="66"/>
      <point x="129" y="103"/>
      <point x="129" y="180" type="curve" smooth="yes"/>
      <point x="129" y="314"/>
      <point x="361" y="349"/>
      <point x="361" y="519" type="curve" smooth="yes"/>
      <point x="361" y="564" type="line" smooth="yes"/>
      <point x="361" y="741"/>
      <point x="405" y="806"/>
      <point x="502" y="806" type="curve" smooth="yes"/>
      <point x="600" y="806"/>
      <point x="640" y="736"/>
      <point x="640" y="574" type="curve" smooth="yes"/>
      <point x="640" y="0" type="line"/>
      <point x="721" y="0" type="line"/>
      <point x="721" y="564" type="line" smooth="yes"/>
      <point x="721" y="746"/>
      <point x="663" y="877"/>
      <point x="495" y="877" type="curve" smooth="yes"/>
      <point x="349" y="877"/>
      <point x="280" y="771"/>
      <point x="280" y="578" type="curve" smooth="yes"/>
      <point x="280" y="538" type="line" smooth="yes"/>
      <point x="280" y="383"/>
      <point x="49" y="352"/>
      <point x="49" y="190" type="curve" smooth="yes"/>
      <point x="49" y="76"/>
      <point x="164" y="-5"/>
    </contour>
    <contour>
      <point x="384" y="83" type="curve"/>
      <point x="366" y="103"/>
      <point x="353" y="126"/>
      <point x="353" y="155" type="curve" smooth="yes"/>
      <point x="353" y="187"/>
      <point x="376" y="208"/>
      <point x="405" y="208" type="curve" smooth="yes"/>
      <point x="434" y="208"/>
      <point x="452" y="187"/>
      <point x="452" y="162" type="curve" smooth="yes"/>
      <point x="452" y="125"/>
      <point x="425" y="98"/>
    </contour>
  </outline>
</glyph>
<glyph name="ktDDII" format="2">
  <advance width="827"/>
  <outline>
    <contour>
      <point x="345" y="-5" type="curve" smooth="yes"/>
      <point x="474" y="-5"/>
      <point x="545" y="81"/>
      <point x="545" y="185" type="curve" smooth="yes"/>
      <point x="545" y="288"/>
      <point x="482" y="370"/>
      <point x="394" y="370" type="curve" smooth="yes"/>
      <point x="341" y="370"/>
      <point x="277" y="347"/>
      <point x="211" y="347" type="curve"/>
      <point x="206" y="359"/>
      <point x="200" y="384"/>
      <point x="200" y="411" type="curve" smooth="yes"/>
      <point x="200" y="518"/>
      <point x="284" y="556"/>
      <point x="395" y="556" type="curve"/>
      <point x="392" y="572"/>
      <point x="387" y="611"/>
      <point x="387" y="656" type="curve" smooth="yes"/>
      <point x="387" y="744"/>
      <point x="431" y="806"/>
      <point x="525" y="806" type="curve" smooth="yes"/>
      <point x="613" y="806"/>
      <point x="663" y="743"/>
      <point x="663" y="612" type="curve" smooth="yes"/>
      <point x="663" y="0" type="line"/>
      <point x="744" y="0" type="line"/>
      <point x="744" y="598" type="line" smooth="yes"/>
      <point x="744" y="769"/>
      <point x="665" y="877"/>
      <point x="520" y="877" type="curve" smooth="yes"/>
      <point x="385" y="877"/>
      <point x="315" y="784"/>
      <point x="315" y="667" type="curve" smooth="yes"/>
      <point x="315" y="652"/>
      <point x="317" y="636"/>
      <point x="321" y="622" type="curve"/>
      <point x="196" y="603"/>
      <point x="119" y="529"/>
      <point x="119" y="416" type="curve" smooth="yes"/>
      <point x="119" y="339"/>
      <point x="173" y="276"/>
      <point x="265" y="276" type="curve" smooth="yes"/>
      <point x="310" y="276"/>
      <point x="370" y="294"/>
      <point x="418" y="294" type="curve"/>
      <point x="454" y="270"/>
      <point x="464" y="232"/>
      <point x="464" y="194" type="curve" smooth="yes"/>
      <point x="464" y="124"/>
      <point x="424" y="66"/>
      <point x="334" y="66" type="curve" smooth="yes"/>
      <point x="240" y="66"/>
      <point x="179" y="138"/>
      <point x="106" y="245" type="curve"/>
      <point x="49" y="208" type="line"/>
      <point x="121" y="91"/>
      <point x="208" y="-5"/>
    </contour>
  </outline>
</glyph>
<glyph name="ktDHRU.alt1" format="2">
  <advance width="595"/>
  <outline>
    <contour>
      <point x="431" y="622" type="line"/>
      <point x="431" y="250" type="line"/>
      <point x="381" y="215"/>
      <point x="322" y="197"/>
      <point x="263" y="197" type="curve" smooth="yes"/>
      <point x="196" y="197"/>
      <point x="139" y="223"/>
      <point x="139" y="275" type="curve" smooth="yes"/>
      <point x="139" y="337"/>
      <point x="212" y="370"/>
      <point x="338" y="370" type="curve"/>
      <point x="193" y="627" type="line"/>
      <point x="127" y="590" type="line"/>
      <point x="224" y="439" type="line"/>
      <point x="127" y="418"/>
      <point x="59" y="365"/>
      <point x="59" y="286" type="curve" smooth="yes"/>
      <point x="59" y="197"/>
      <point x="136" y="140"/>
      <point x="238" y="129" type="curve"/>
      <point x="102" y="56" type="line"/>
      <point x="141" y="-10" type="line"/>
      <point x="431" y="165" type="line"/>
      <point x="431" y="83" type="line" smooth="yes"/>
      <point x="431" y="-85"/>
      <point x="328" y="-134"/>
      <point x="230" y="-181" type="curve"/>
      <point x="263" y="-244" type="line"/>
      <point x="370" y="-188"/>
      <point x="512" y="-140"/>
      <point x="512" y="73" type="curve" smooth="yes"/>
      <point x="512" y="622" type="line"/>
    </contour>
  </outline>
</glyph>
<glyph name="ktDHRa" format="2">
  <advance width="595"/>
  <outline>
    <contour>
      <point x="141" y="-10" type="line"/>
      <point x="431" y="165" type="line"/>
      <point x="431" y="0" type="line"/>
      <point x="512" y="0" type="line"/>
      <point x="512" y="622" type="line"/>
      <point x="431" y="622" type="line"/>
      <point x="431" y="250" type="line"/>
      <point x="381" y="215"/>
      <point x="322" y="197"/>
      <point x="263" y="197" type="curve" smooth="yes"/>
      <point x="196" y="197"/>
      <point x="139" y="223"/>
      <point x="139" y="275" type="curve" smooth="yes"/>
      <point x="139" y="337"/>
      <point x="212" y="370"/>
      <point x="338" y="370" type="curve"/>
      <point x="193" y="627" type="line"/>
      <point x="127" y="590" type="line"/>
      <point x="224" y="439" type="line"/>
      <point x="127" y="418"/>
      <point x="59" y="365"/>
      <point x="59" y="286" type="curve" smooth="yes"/>
      <point x="59" y="197"/>
      <point x="136" y="140"/>
      <point x="238" y="129" type="curve"/>
      <point x="102" y="56" type="line"/>
    </contour>
  </outline>
</glyph>
<glyph name="ktDHU.alt1" format="2">
  <advance width="595"/>
  <outline>
    <contour>
      <point x="132" y="-244" type="line"/>
      <point x="294" y="-235"/>
      <point x="512" y="-175"/>
      <point x="512" y="73" type="curve" smooth="yes"/>
      <point x="512" y="622" type="line"/>
      <point x="431" y="622" type="line"/>
      <point x="431" y="250" type="line"/>
      <point x="381" y="215"/>
      <point x="322" y="197"/>
      <point x="263" y="197" type="curve" smooth="yes"/>
      <point x="196" y="197"/>
      <point x="139" y="223"/>
      <point x="139" y="275" type="curve" smooth="yes"/>
      <point x="139" y="337"/>
      <point x="212" y="370"/>
      <point x="338" y="370" type="curve"/>
      <point x="193" y="627" type="line"/>
      <point x="127" y="590" type="line"/>
      <point x="224" y="439" type="line"/>
      <point x="127" y="418"/>
      <point x="59" y="365"/>
      <point x="59" y="286" type="curve" smooth="yes"/>
      <point x="59" y="187"/>
      <point x="155" y="127"/>
      <point x="273" y="127" type="curve" smooth="yes"/>
      <point x="331" y="127"/>
      <point x="384" y="139"/>
      <point x="431" y="165" type="curve"/>
      <point x="431" y="83" type="line" smooth="yes"/>
      <point x="431" y="-124"/>
      <point x="264" y="-168"/>
      <point x="123" y="-181" type="curve"/>
    </contour>
  </outline>
</glyph>
<glyph name="ktDHa.half" format="2">
  <advance width="424"/>
  <outline>
    <contour>
      <point x="273" y="127" type="curve" smooth="yes"/>
      <point x="382" y="127"/>
      <point x="452" y="170"/>
      <point x="507" y="208" type="curve"/>
      <point x="483" y="280" type="line"/>
      <point x="431" y="241"/>
      <point x="355" y="197"/>
      <point x="263" y="197" type="curve" smooth="yes"/>
      <point x="196" y="197"/>
      <point x="139" y="223"/>
      <point x="139" y="275" type="curve" smooth="yes"/>
      <point x="139" y="337"/>
      <point x="212" y="370"/>
      <point x="338" y="370" type="curve"/>
      <point x="193" y="627" type="line"/>
      <point x="127" y="590" type="line"/>
      <point x="224" y="439" type="line"/>
      <point x="127" y="418"/>
      <point x="59" y="365"/>
      <point x="59" y="286" type="curve" smooth="yes"/>
      <point x="59" y="187"/>
      <point x="155" y="127"/>
    </contour>
  </outline>
</glyph>
<glyph name="ktDII" format="2">
  <advance width="723"/>
  <outline>
    <contour>
      <point x="269" y="-5" type="curve" smooth="yes"/>
      <point x="325" y="-5"/>
      <point x="383" y="12"/>
      <point x="434" y="42" type="curve"/>
      <point x="410" y="114" type="line"/>
      <point x="363" y="83"/>
      <point x="312" y="65"/>
      <point x="258" y="65" type="curve" smooth="yes"/>
      <point x="189" y="65"/>
      <point x="139" y="105"/>
      <point x="139" y="173" type="curve" smooth="yes"/>
      <point x="139" y="269"/>
      <point x="228" y="292"/>
      <point x="362" y="292" type="curve"/>
      <point x="353" y="372" type="line"/>
      <point x="293" y="372"/>
      <point x="240" y="366"/>
      <point x="196" y="352" type="curve"/>
      <point x="170" y="377"/>
      <point x="156" y="409"/>
      <point x="156" y="446" type="curve" smooth="yes"/>
      <point x="156" y="497"/>
      <point x="183" y="556"/>
      <point x="335" y="556" type="curve"/>
      <point x="332" y="572"/>
      <point x="328" y="611"/>
      <point x="328" y="656" type="curve" smooth="yes"/>
      <point x="328" y="746"/>
      <point x="364" y="806"/>
      <point x="445" y="806" type="curve" smooth="yes"/>
      <point x="526" y="806"/>
      <point x="560" y="746"/>
      <point x="560" y="612" type="curve" smooth="yes"/>
      <point x="560" y="0" type="line"/>
      <point x="640" y="0" type="line"/>
      <point x="640" y="598" type="line" smooth="yes"/>
      <point x="640" y="781"/>
      <point x="569" y="877"/>
      <point x="440" y="877" type="curve" smooth="yes"/>
      <point x="327" y="877"/>
      <point x="256" y="792"/>
      <point x="256" y="667" type="curve" smooth="yes"/>
      <point x="256" y="652"/>
      <point x="258" y="637"/>
      <point x="261" y="623" type="curve"/>
      <point x="139" y="608"/>
      <point x="75" y="552"/>
      <point x="75" y="460" type="curve" smooth="yes"/>
      <point x="75" y="404"/>
      <point x="105" y="358"/>
      <point x="138" y="327" type="curve"/>
      <point x="88" y="296"/>
      <point x="59" y="250"/>
      <point x="59" y="183" type="curve" smooth="yes"/>
      <point x="59" y="73"/>
      <point x="144" y="-5"/>
    </contour>
  </outline>
</glyph>
<glyph name="ktEight.smallblw" format="2">
  <advance width="427"/>
  <outline>
    <contour>
      <point x="387" y="-170" type="curve"/>
      <point x="413" y="-139" type="line"/>
      <point x="382" y="-112"/>
      <point x="346" y="-81"/>
      <point x="299" y="-81" type="curve" smooth="yes"/>
      <point x="253" y="-81"/>
      <point x="233" y="-117"/>
      <point x="183" y="-117" type="curve" smooth="yes"/>
      <point x="136" y="-117"/>
      <point x="105" y="-88"/>
      <point x="105" y="-43" type="curve" smooth="yes"/>
      <point x="105" y="21"/>
      <point x="169" y="80"/>
      <point x="314" y="80" type="curve" smooth="yes"/>
      <point x="378" y="80" type="line"/>
      <point x="375" y="125" type="line"/>
      <point x="38" y="125" type="line"/>
      <point x="40" y="80" type="line"/>
      <point x="86" y="80" type="line" smooth="yes"/>
      <point x="107" y="80"/>
      <point x="126" y="82"/>
      <point x="134" y="83" type="curve"/>
      <point x="134" y="81" type="line"/>
      <point x="85" y="57"/>
      <point x="54" y="16"/>
      <point x="54" y="-38" type="curve" smooth="yes"/>
      <point x="54" y="-113"/>
      <point x="115" y="-161"/>
      <point x="185" y="-161" type="curve" smooth="yes"/>
      <point x="242" y="-161"/>
      <point x="262" y="-125"/>
      <point x="302" y="-125" type="curve" smooth="yes"/>
      <point x="335" y="-125"/>
      <point x="355" y="-145"/>
    </contour>
    <contour>
      <point x="-9" y="304" type="line"/>
      <point x="438" y="304" type="line"/>
      <point x="438" y="375" type="line"/>
      <point x="-9" y="375" type="line"/>
    </contour>
  </outline>
</glyph>
<glyph name="ktFive.smallabv" format="2">
  <advance width="347"/>
  <outline>
    <contour>
      <point x="-10" y="0" type="line"/>
      <point x="357" y="0" type="line"/>
      <point x="357" y="71" type="line"/>
      <point x="-10" y="71" type="line"/>
    </contour>
    <contour>
      <point x="246" y="180" type="line"/>
      <point x="296" y="180" type="line"/>
      <point x="296" y="569" type="line"/>
      <point x="249" y="569" type="line"/>
      <point x="242" y="435"/>
      <point x="233" y="350"/>
      <point x="166" y="350" type="curve" smooth="yes"/>
      <point x="104" y="350"/>
      <point x="99" y="418"/>
      <point x="99" y="569" type="curve"/>
      <point x="49" y="569" type="line"/>
      <point x="49" y="409"/>
      <point x="63" y="306"/>
      <point x="169" y="306" type="curve" smooth="yes"/>
      <point x="197" y="306"/>
      <point x="225" y="316"/>
      <point x="246" y="341" type="curve"/>
    </contour>
  </outline>
</glyph>
<glyph name="ktFive.smallblw" format="2">
  <advance width="347"/>
  <outline>
    <contour>
      <point x="246" y="-161" type="line"/>
      <point x="296" y="-161" type="line"/>
      <point x="296" y="228" type="line"/>
      <point x="249" y="228" type="line"/>
      <point x="242" y="94"/>
      <point x="233" y="9"/>
      <point x="166" y="9" type="curve" smooth="yes"/>
      <point x="104" y="9"/>
      <point x="99" y="77"/>
      <point x="99" y="228" type="curve"/>
      <point x="49" y="228" type="line"/>
      <point x="49" y="68"/>
      <point x="63" y="-35"/>
      <point x="169" y="-35" type="curve" smooth="yes"/>
      <point x="197" y="-35"/>
      <point x="225" y="-25"/>
      <point x="246" y="0" type="curve"/>
    </contour>
    <contour>
      <point x="-10" y="304" type="line"/>
      <point x="357" y="304" type="line"/>
      <point x="357" y="375" type="line"/>
      <point x="-10" y="375" type="line"/>
    </contour>
  </outline>
</glyph>
<glyph name="ktFour.smallabv" format="2">
  <advance width="367"/>
  <outline>
    <contour>
      <point x="-10" y="0" type="line"/>
      <point x="377" y="0" type="line"/>
      <point x="377" y="71" type="line"/>
      <point x="-10" y="71" type="line"/>
    </contour>
    <contour>
      <point x="176" y="177" type="curve" smooth="yes"/>
      <point x="228" y="177"/>
      <point x="268" y="218"/>
      <point x="268" y="273" type="curve" smooth="yes"/>
      <point x="268" y="316"/>
      <point x="244" y="362"/>
      <point x="208" y="409" type="curve"/>
      <point x="242" y="444"/>
      <point x="288" y="484"/>
      <point x="346" y="534" type="curve"/>
      <point x="313" y="572" type="line"/>
      <point x="260" y="523"/>
      <point x="214" y="481"/>
      <point x="178" y="444" type="curve"/>
      <point x="143" y="485"/>
      <point x="98" y="528"/>
      <point x="53" y="572" type="curve"/>
      <point x="20" y="542" type="line"/>
      <point x="71" y="493"/>
      <point x="116" y="449"/>
      <point x="149" y="412" type="curve"/>
      <point x="105" y="361"/>
      <point x="81" y="318"/>
      <point x="81" y="272" type="curve" smooth="yes"/>
      <point x="81" y="216"/>
      <point x="123" y="177"/>
    </contour>
    <contour>
      <point x="173" y="221" type="curve" smooth="yes"/>
      <point x="148" y="221"/>
      <point x="132" y="241"/>
      <point x="132" y="269" type="curve" smooth="yes"/>
      <point x="132" y="304"/>
      <point x="147" y="338"/>
      <point x="178" y="375" type="curve"/>
      <point x="204" y="339"/>
      <point x="218" y="308"/>
      <point x="218" y="276" type="curve" smooth="yes"/>
      <point x="218" y="243"/>
      <point x="199" y="221"/>
    </contour>
  </outline>
</glyph>
<glyph name="ktFour.smallblw" format="2">
  <advance width="367"/>
  <outline>
    <contour>
      <point x="175" y="-164" type="curve" smooth="yes"/>
      <point x="227" y="-164"/>
      <point x="268" y="-123"/>
      <point x="268" y="-68" type="curve" smooth="yes"/>
      <point x="268" y="-25"/>
      <point x="244" y="21"/>
      <point x="208" y="68" type="curve"/>
      <point x="241" y="103"/>
      <point x="287" y="143"/>
      <point x="346" y="193" type="curve"/>
      <point x="313" y="231" type="line"/>
      <point x="260" y="183"/>
      <point x="214" y="140"/>
      <point x="178" y="103" type="curve"/>
      <point x="142" y="144"/>
      <point x="98" y="187"/>
      <point x="53" y="231" type="curve"/>
      <point x="20" y="201" type="line"/>
      <point x="72" y="151"/>
      <point x="116" y="108"/>
      <point x="148" y="71" type="curve"/>
      <point x="105" y="20"/>
      <point x="81" y="-23"/>
      <point x="81" y="-69" type="curve" smooth="yes"/>
      <point x="81" y="-125"/>
      <point x="123" y="-164"/>
    </contour>
    <contour>
      <point x="172" y="-120" type="curve" smooth="yes"/>
      <point x="148" y="-120"/>
      <point x="131" y="-100"/>
      <point x="131" y="-72" type="curve" smooth="yes"/>
      <point x="131" y="-37"/>
      <point x="146" y="-3"/>
      <point x="178" y="34" type="curve"/>
      <point x="203" y="-2"/>
      <point x="217" y="-33"/>
      <point x="217" y="-65" type="curve" smooth="yes"/>
      <point x="217" y="-98"/>
      <point x="198" y="-120"/>
    </contour>
    <contour>
      <point x="-10" y="304" type="line"/>
      <point x="377" y="304" type="line"/>
      <point x="377" y="375" type="line"/>
      <point x="-10" y="375" type="line"/>
    </contour>
  </outline>
</glyph>
<glyph name="ktGHRU.alt1" format="2">
  <advance width="627"/>
  <outline>
    <contour>
      <point x="324" y="-205" type="curve" smooth="yes"/>
      <point x="463" y="-205"/>
      <point x="544" y="-131"/>
      <point x="544" y="39" type="curve" smooth="yes"/>
      <point x="544" y="622" type="line"/>
      <point x="463" y="622" type="line"/>
      <point x="463" y="221" type="line"/>
      <point x="413" y="186"/>
      <point x="354" y="168"/>
      <point x="295" y="168" type="curve" smooth="yes"/>
      <point x="229" y="168"/>
      <point x="171" y="193"/>
      <point x="171" y="246" type="curve" smooth="yes"/>
      <point x="171" y="308"/>
      <point x="245" y="340"/>
      <point x="370" y="340" type="curve"/>
      <point x="360" y="421" type="line"/>
      <point x="312" y="421"/>
      <point x="267" y="415"/>
      <point x="228" y="402" type="curve"/>
      <point x="205" y="423"/>
      <point x="188" y="447"/>
      <point x="188" y="475" type="curve" smooth="yes"/>
      <point x="188" y="530"/>
      <point x="238" y="556"/>
      <point x="343" y="556" type="curve"/>
      <point x="338" y="627" type="line"/>
      <point x="154" y="627"/>
      <point x="107" y="561"/>
      <point x="107" y="490" type="curve" smooth="yes"/>
      <point x="107" y="444"/>
      <point x="138" y="406"/>
      <point x="171" y="379" type="curve"/>
      <point x="122" y="351"/>
      <point x="91" y="310"/>
      <point x="91" y="256" type="curve" smooth="yes"/>
      <point x="91" y="157"/>
      <point x="187" y="98"/>
      <point x="306" y="98" type="curve" smooth="yes"/>
      <point x="363" y="98"/>
      <point x="416" y="110"/>
      <point x="463" y="135" type="curve"/>
      <point x="463" y="49" type="line" smooth="yes"/>
      <point x="463" y="-82"/>
      <point x="414" y="-134"/>
      <point x="319" y="-134" type="curve" smooth="yes"/>
      <point x="240" y="-134"/>
      <point x="173" y="-93"/>
      <point x="110" y="-44" type="curve"/>
      <point x="68" y="-95" type="line"/>
      <point x="135" y="-147"/>
      <point x="219" y="-205"/>
    </contour>
    <contour>
      <point x="197" y="-30" type="line"/>
      <point x="461" y="134" type="line" smooth="yes"/>
      <point x="463" y="135"/>
      <point x="464" y="137"/>
      <point x="467" y="139" type="curve"/>
      <point x="359" y="144" type="line"/>
      <point x="154" y="32" type="line"/>
    </contour>
  </outline>
</glyph>
<glyph name="ktGHRa" format="2">
  <advance width="604"/>
  <outline>
    <contour>
      <point x="139" y="-52" type="line"/>
      <point x="441" y="135" type="line"/>
      <point x="441" y="0" type="line"/>
      <point x="521" y="0" type="line"/>
      <point x="521" y="622" type="line"/>
      <point x="441" y="622" type="line"/>
      <point x="441" y="221" type="line"/>
      <point x="391" y="186"/>
      <point x="332" y="168"/>
      <point x="272" y="168" type="curve" smooth="yes"/>
      <point x="206" y="168"/>
      <point x="149" y="193"/>
      <point x="149" y="246" type="curve" smooth="yes"/>
      <point x="149" y="308"/>
      <point x="222" y="340"/>
      <point x="348" y="340" type="curve"/>
      <point x="338" y="421" type="line"/>
      <point x="290" y="421"/>
      <point x="244" y="415"/>
      <point x="205" y="402" type="curve"/>
      <point x="182" y="423"/>
      <point x="166" y="447"/>
      <point x="166" y="475" type="curve" smooth="yes"/>
      <point x="166" y="530"/>
      <point x="215" y="556"/>
      <point x="321" y="556" type="curve"/>
      <point x="315" y="627" type="line"/>
      <point x="131" y="627"/>
      <point x="84" y="561"/>
      <point x="84" y="490" type="curve" smooth="yes"/>
      <point x="84" y="444"/>
      <point x="115" y="406"/>
      <point x="149" y="379" type="curve"/>
      <point x="99" y="351"/>
      <point x="68" y="310"/>
      <point x="68" y="256" type="curve" smooth="yes"/>
      <point x="68" y="165"/>
      <point x="151" y="106"/>
      <point x="257" y="99" type="curve"/>
      <point x="97" y="13" type="line"/>
    </contour>
  </outline>
</glyph>
<glyph name="ktGHa.half" format="2">
  <advance width="430"/>
  <outline>
    <contour>
      <point x="283" y="98" type="curve" smooth="yes"/>
      <point x="354" y="98"/>
      <point x="417" y="117"/>
      <point x="473" y="155" type="curve"/>
      <point x="449" y="227" type="line"/>
      <point x="397" y="187"/>
      <point x="335" y="168"/>
      <point x="272" y="168" type="curve" smooth="yes"/>
      <point x="206" y="168"/>
      <point x="149" y="193"/>
      <point x="149" y="246" type="curve" smooth="yes"/>
      <point x="149" y="308"/>
      <point x="222" y="340"/>
      <point x="348" y="340" type="curve"/>
      <point x="338" y="421" type="line"/>
      <point x="290" y="421"/>
      <point x="244" y="415"/>
      <point x="205" y="402" type="curve"/>
      <point x="182" y="423"/>
      <point x="166" y="447"/>
      <point x="166" y="475" type="curve" smooth="yes"/>
      <point x="166" y="530"/>
      <point x="215" y="556"/>
      <point x="321" y="556" type="curve"/>
      <point x="315" y="627" type="line"/>
      <point x="131" y="627"/>
      <point x="84" y="561"/>
      <point x="84" y="490" type="curve" smooth="yes"/>
      <point x="84" y="444"/>
      <point x="115" y="406"/>
      <point x="149" y="379" type="curve"/>
      <point x="99" y="351"/>
      <point x="68" y="310"/>
      <point x="68" y="256" type="curve" smooth="yes"/>
      <point x="68" y="157"/>
      <point x="165" y="98"/>
    </contour>
  </outline>
</glyph>
<glyph name="ktGRU.alt1" format="2">
  <advance width="608"/>
  <outline>
    <contour>
      <point x="305" y="-205" type="curve" smooth="yes"/>
      <point x="444" y="-205"/>
      <point x="525" y="-131"/>
      <point x="525" y="39" type="curve" smooth="yes"/>
      <point x="525" y="622" type="line"/>
      <point x="444" y="622" type="line"/>
      <point x="444" y="49" type="line" smooth="yes"/>
      <point x="444" y="-82"/>
      <point x="395" y="-134"/>
      <point x="300" y="-134" type="curve" smooth="yes"/>
      <point x="221" y="-134"/>
      <point x="154" y="-93"/>
      <point x="91" y="-44" type="curve"/>
      <point x="49" y="-95" type="line"/>
      <point x="116" y="-147"/>
      <point x="200" y="-205"/>
    </contour>
    <contour>
      <point x="219" y="-10" type="line"/>
      <point x="444" y="136" type="line"/>
      <point x="471" y="156" type="line"/>
      <point x="471" y="229" type="line"/>
      <point x="444" y="211" type="line"/>
      <point x="179" y="53" type="line"/>
    </contour>
    <contour>
      <point x="222" y="170" type="curve" smooth="yes"/>
      <point x="294" y="170"/>
      <point x="363" y="226"/>
      <point x="363" y="339" type="curve" smooth="yes"/>
      <point x="363" y="477"/>
      <point x="307" y="566"/>
      <point x="267" y="628" type="curve"/>
      <point x="203" y="592" type="line"/>
      <point x="240" y="535"/>
      <point x="283" y="460"/>
      <point x="283" y="356" type="curve" smooth="yes"/>
      <point x="283" y="284"/>
      <point x="260" y="241"/>
      <point x="213" y="241" type="curve" smooth="yes"/>
      <point x="163" y="241"/>
      <point x="119" y="301"/>
      <point x="93" y="339" type="curve"/>
      <point x="40" y="304" type="line"/>
      <point x="70" y="253"/>
      <point x="135" y="170"/>
    </contour>
  </outline>
</glyph>
<glyph name="ktGRa" format="2">
  <advance width="588"/>
  <outline>
    <contour>
      <point x="200" y="-10" type="line"/>
      <point x="425" y="136" type="line"/>
      <point x="425" y="0" type="line"/>
      <point x="505" y="0" type="line"/>
      <point x="505" y="622" type="line"/>
      <point x="425" y="622" type="line"/>
      <point x="425" y="211" type="line"/>
      <point x="160" y="53" type="line"/>
    </contour>
    <contour>
      <point x="202" y="170" type="curve" smooth="yes"/>
      <point x="274" y="170"/>
      <point x="343" y="226"/>
      <point x="343" y="339" type="curve" smooth="yes"/>
      <point x="343" y="477"/>
      <point x="287" y="566"/>
      <point x="247" y="628" type="curve"/>
      <point x="183" y="592" type="line"/>
      <point x="220" y="535"/>
      <point x="263" y="460"/>
      <point x="263" y="356" type="curve" smooth="yes"/>
      <point x="263" y="284"/>
      <point x="240" y="241"/>
      <point x="193" y="241" type="curve" smooth="yes"/>
      <point x="143" y="241"/>
      <point x="99" y="301"/>
      <point x="73" y="339" type="curve"/>
      <point x="20" y="304" type="line"/>
      <point x="50" y="253"/>
      <point x="115" y="170"/>
    </contour>
  </outline>
</glyph>
<glyph name="ktGU.alt1" format="2">
  <advance width="608"/>
  <outline>
    <contour>
      <point x="305" y="-205" type="curve" smooth="yes"/>
      <point x="444" y="-205"/>
      <point x="525" y="-131"/>
      <point x="525" y="39" type="curve" smooth="yes"/>
      <point x="525" y="622" type="line"/>
      <point x="444" y="622" type="line"/>
      <point x="444" y="49" type="line" smooth="yes"/>
      <point x="444" y="-82"/>
      <point x="395" y="-134"/>
      <point x="300" y="-134" type="curve" smooth="yes"/>
      <point x="221" y="-134"/>
      <point x="154" y="-93"/>
      <point x="91" y="-44" type="curve"/>
      <point x="49" y="-95" type="line"/>
      <point x="116" y="-147"/>
      <point x="200" y="-205"/>
    </contour>
    <contour>
      <point x="221" y="131" type="curve" smooth="yes"/>
      <point x="293" y="131"/>
      <point x="362" y="187"/>
      <point x="362" y="295" type="curve" smooth="yes"/>
      <point x="362" y="441"/>
      <point x="288" y="567"/>
      <point x="247" y="628" type="curve"/>
      <point x="183" y="592" type="line"/>
      <point x="220" y="535"/>
      <point x="282" y="433"/>
      <point x="282" y="312" type="curve" smooth="yes"/>
      <point x="282" y="247"/>
      <point x="259" y="202"/>
      <point x="213" y="202" type="curve" smooth="yes"/>
      <point x="162" y="202"/>
      <point x="118" y="262"/>
      <point x="93" y="300" type="curve"/>
      <point x="39" y="265" type="line"/>
      <point x="69" y="214"/>
      <point x="135" y="131"/>
    </contour>
  </outline>
</glyph>
<glyph name="ktHII" format="2">
  <advance width="731"/>
  <outline>
    <contour>
      <point x="334" y="-90" type="curve"/>
      <point x="370" y="-37" type="line"/>
      <point x="266" y="29"/>
      <point x="139" y="104"/>
      <point x="139" y="217" type="curve" smooth="yes"/>
      <point x="139" y="301"/>
      <point x="201" y="344"/>
      <point x="286" y="344" type="curve" smooth="yes"/>
      <point x="351" y="344"/>
      <point x="382" y="313"/>
      <point x="382" y="275" type="curve" smooth="yes"/>
      <point x="382" y="237"/>
      <point x="355" y="207"/>
      <point x="322" y="207" type="curve" smooth="yes"/>
      <point x="297" y="207"/>
      <point x="277" y="213"/>
      <point x="257" y="228" type="curve"/>
      <point x="226" y="182" type="line"/>
      <point x="255" y="153"/>
      <point x="292" y="136"/>
      <point x="332" y="136" type="curve" smooth="yes"/>
      <point x="393" y="136"/>
      <point x="462" y="178"/>
      <point x="462" y="265" type="curve" smooth="yes"/>
      <point x="462" y="347"/>
      <point x="396" y="415"/>
      <point x="281" y="415" type="curve" smooth="yes"/>
      <point x="248" y="415"/>
      <point x="217" y="409"/>
      <point x="189" y="399" type="curve"/>
      <point x="179" y="417"/>
      <point x="174" y="438"/>
      <point x="174" y="461" type="curve" smooth="yes"/>
      <point x="174" y="520"/>
      <point x="215" y="556"/>
      <point x="344" y="556" type="curve"/>
      <point x="341" y="572"/>
      <point x="336" y="611"/>
      <point x="336" y="656" type="curve" smooth="yes"/>
      <point x="336" y="746"/>
      <point x="375" y="806"/>
      <point x="454" y="806" type="curve" smooth="yes"/>
      <point x="533" y="806"/>
      <point x="568" y="746"/>
      <point x="568" y="612" type="curve" smooth="yes"/>
      <point x="568" y="0" type="line"/>
      <point x="648" y="0" type="line"/>
      <point x="648" y="598" type="line" smooth="yes"/>
      <point x="648" y="781"/>
      <point x="569" y="877"/>
      <point x="449" y="877" type="curve" smooth="yes"/>
      <point x="332" y="877"/>
      <point x="264" y="792"/>
      <point x="264" y="667" type="curve" smooth="yes"/>
      <point x="264" y="652"/>
      <point x="266" y="637"/>
      <point x="270" y="623" type="curve"/>
      <point x="148" y="608"/>
      <point x="93" y="554"/>
      <point x="93" y="476" type="curve" smooth="yes"/>
      <point x="93" y="434"/>
      <point x="110" y="397"/>
      <point x="132" y="369" type="curve"/>
      <point x="87" y="335"/>
      <point x="59" y="284"/>
      <point x="59" y="222" type="curve" smooth="yes"/>
      <point x="59" y="81"/>
      <point x="206" y="-12"/>
    </contour>
  </outline>
</glyph>
<glyph name="ktHU" format="2">
  <advance width="525"/>
  <outline>
    <contour>
      <point x="289" y="-235" type="curve" smooth="yes"/>
      <point x="382" y="-235"/>
      <point x="454" y="-183"/>
      <point x="454" y="-99" type="curve" smooth="yes"/>
      <point x="454" y="59"/>
      <point x="149" y="50"/>
      <point x="149" y="217" type="curve" smooth="yes"/>
      <point x="149" y="301"/>
      <point x="210" y="344"/>
      <point x="295" y="344" type="curve" smooth="yes"/>
      <point x="360" y="344"/>
      <point x="392" y="313"/>
      <point x="392" y="275" type="curve" smooth="yes"/>
      <point x="392" y="237"/>
      <point x="365" y="207"/>
      <point x="332" y="207" type="curve" smooth="yes"/>
      <point x="307" y="207"/>
      <point x="287" y="213"/>
      <point x="267" y="228" type="curve"/>
      <point x="235" y="182" type="line"/>
      <point x="265" y="153"/>
      <point x="302" y="136"/>
      <point x="341" y="136" type="curve" smooth="yes"/>
      <point x="402" y="136"/>
      <point x="472" y="178"/>
      <point x="472" y="265" type="curve" smooth="yes"/>
      <point x="472" y="347"/>
      <point x="406" y="415"/>
      <point x="291" y="415" type="curve" smooth="yes"/>
      <point x="258" y="415"/>
      <point x="227" y="409"/>
      <point x="199" y="399" type="curve"/>
      <point x="189" y="417"/>
      <point x="184" y="438"/>
      <point x="184" y="461" type="curve" smooth="yes"/>
      <point x="184" y="520"/>
      <point x="225" y="556"/>
      <point x="354" y="556" type="curve"/>
      <point x="348" y="627" type="line"/>
      <point x="180" y="627"/>
      <point x="103" y="567"/>
      <point x="103" y="476" type="curve" smooth="yes"/>
      <point x="103" y="434"/>
      <point x="120" y="397"/>
      <point x="142" y="369" type="curve"/>
      <point x="97" y="335"/>
      <point x="68" y="284"/>
      <point x="68" y="222" type="curve" smooth="yes"/>
      <point x="68" y="12"/>
      <point x="373" y="10"/>
      <point x="373" y="-94" type="curve" smooth="yes"/>
      <point x="373" y="-143"/>
      <point x="337" y="-164"/>
      <point x="284" y="-164" type="curve" smooth="yes"/>
      <point x="208" y="-164"/>
      <point x="141" y="-106"/>
      <point x="102" y="-65" type="curve"/>
      <point x="59" y="-104" type="line"/>
      <point x="107" y="-170"/>
      <point x="191" y="-235"/>
    </contour>
  </outline>
</glyph>
<glyph name="ktHUU" format="2">
  <advance width="516"/>
  <outline>
    <contour>
      <point x="212" y="-236" type="curve" smooth="yes"/>
      <point x="254" y="-236"/>
      <point x="292" y="-222"/>
      <point x="321" y="-202" type="curve"/>
      <point x="291" y="-139" type="line"/>
      <point x="264" y="-155"/>
      <point x="239" y="-165"/>
      <point x="203" y="-165" type="curve" smooth="yes"/>
      <point x="164" y="-165"/>
      <point x="139" y="-149"/>
      <point x="139" y="-118" type="curve" smooth="yes"/>
      <point x="139" y="-83"/>
      <point x="169" y="-61"/>
      <point x="221" y="-61" type="curve" smooth="yes"/>
      <point x="308" y="-61"/>
      <point x="403" y="-142"/>
      <point x="463" y="-186" type="curve"/>
      <point x="501" y="-143" type="line"/>
      <point x="359" y="-25"/>
      <point x="139" y="61"/>
      <point x="139" y="217" type="curve" smooth="yes"/>
      <point x="139" y="301"/>
      <point x="201" y="344"/>
      <point x="286" y="344" type="curve" smooth="yes"/>
      <point x="351" y="344"/>
      <point x="382" y="313"/>
      <point x="382" y="275" type="curve" smooth="yes"/>
      <point x="382" y="237"/>
      <point x="355" y="207"/>
      <point x="322" y="207" type="curve" smooth="yes"/>
      <point x="297" y="207"/>
      <point x="277" y="213"/>
      <point x="257" y="228" type="curve"/>
      <point x="226" y="182" type="line"/>
      <point x="255" y="153"/>
      <point x="292" y="136"/>
      <point x="332" y="136" type="curve" smooth="yes"/>
      <point x="393" y="136"/>
      <point x="462" y="178"/>
      <point x="462" y="265" type="curve" smooth="yes"/>
      <point x="462" y="347"/>
      <point x="396" y="415"/>
      <point x="281" y="415" type="curve" smooth="yes"/>
      <point x="248" y="415"/>
      <point x="217" y="409"/>
      <point x="189" y="399" type="curve"/>
      <point x="179" y="417"/>
      <point x="174" y="438"/>
      <point x="174" y="461" type="curve" smooth="yes"/>
      <point x="174" y="520"/>
      <point x="215" y="556"/>
      <point x="344" y="556" type="curve"/>
      <point x="338" y="627" type="line"/>
      <point x="170" y="627"/>
      <point x="93" y="567"/>
      <point x="93" y="476" type="curve" smooth="yes"/>
      <point x="93" y="434"/>
      <point x="110" y="397"/>
      <point x="132" y="369" type="curve"/>
      <point x="87" y="335"/>
      <point x="59" y="284"/>
      <point x="59" y="222" type="curve" smooth="yes"/>
      <point x="59" y="134"/>
      <point x="119" y="64"/>
      <point x="193" y="9" type="curve"/>
      <point x="118" y="4"/>
      <point x="59" y="-38"/>
      <point x="59" y="-111" type="curve" smooth="yes"/>
      <point x="59" y="-186"/>
      <point x="124" y="-236"/>
    </contour>
  </outline>
</glyph>
<glyph name="ktII.var" format="2">
  <advance width="518"/>
  <outline>
    <contour>
      <point x="463" y="168" type="curve" smooth="yes"/>
      <point x="463" y="235"/>
      <point x="424" y="289"/>
      <point x="359" y="340" type="curve"/>
      <point x="405" y="368"/>
      <point x="436" y="411"/>
      <point x="436" y="467" type="curve" smooth="yes"/>
      <point x="436" y="544"/>
      <point x="376" y="589"/>
      <point x="307" y="613" type="curve" smooth="yes"/>
      <point x="263" y="628" type="line" smooth="yes"/>
      <point x="205" y="648"/>
      <point x="176" y="679"/>
      <point x="176" y="723" type="curve" smooth="yes"/>
      <point x="176" y="763"/>
      <point x="200" y="783"/>
      <point x="239" y="783" type="curve" smooth="yes"/>
      <point x="275" y="783"/>
      <point x="310" y="765"/>
      <point x="332" y="752" type="curve"/>
      <point x="365" y="797" type="line"/>
      <point x="331" y="828"/>
      <point x="282" y="854"/>
      <point x="224" y="854" type="curve" smooth="yes"/>
      <point x="158" y="854"/>
      <point x="96" y="816"/>
      <point x="96" y="738" type="curve" smooth="yes"/>
      <point x="96" y="659"/>
      <point x="160" y="595"/>
      <point x="250" y="564" type="curve" smooth="yes"/>
      <point x="282" y="553" type="line" smooth="yes"/>
      <point x="327" y="537"/>
      <point x="355" y="514"/>
      <point x="355" y="477" type="curve" smooth="yes"/>
      <point x="355" y="407"/>
      <point x="296" y="376"/>
      <point x="181" y="354" type="curve"/>
      <point x="202" y="288" type="line"/>
      <point x="234" y="293"/>
      <point x="266" y="301"/>
      <point x="296" y="311" type="curve"/>
      <point x="352" y="271"/>
      <point x="382" y="229"/>
      <point x="382" y="178" type="curve" smooth="yes"/>
      <point x="382" y="141"/>
      <point x="366" y="113"/>
      <point x="341" y="94" type="curve"/>
      <point x="291" y="169"/>
      <point x="228" y="224"/>
      <point x="149" y="224" type="curve" smooth="yes"/>
      <point x="88" y="224"/>
      <point x="49" y="185"/>
      <point x="49" y="130" type="curve" smooth="yes"/>
      <point x="49" y="50"/>
      <point x="140" y="-5"/>
      <point x="249" y="-5" type="curve" smooth="yes"/>
      <point x="271" y="-5"/>
      <point x="292" y="-2"/>
      <point x="313" y="3" type="curve"/>
      <point x="336" y="-38"/>
      <point x="358" y="-86"/>
      <point x="378" y="-138" type="curve"/>
      <point x="443" y="-111" type="line"/>
      <point x="425" y="-65"/>
      <point x="404" y="-16"/>
      <point x="379" y="30" type="curve"/>
      <point x="428" y="60"/>
      <point x="463" y="107"/>
    </contour>
    <contour>
      <point x="244" y="66" type="curve" smooth="yes"/>
      <point x="186" y="66"/>
      <point x="129" y="83"/>
      <point x="129" y="120" type="curve" smooth="yes"/>
      <point x="129" y="136"/>
      <point x="140" y="148"/>
      <point x="159" y="148" type="curve" smooth="yes"/>
      <point x="198" y="148"/>
      <point x="237" y="118"/>
      <point x="273" y="68" type="curve"/>
      <point x="264" y="66"/>
      <point x="253" y="66"/>
    </contour>
  </outline>
</glyph>
<glyph name="ktJHII" format="2">
  <advance width="824"/>
  <outline>
    <contour>
      <point x="325" y="-198" type="curve" smooth="yes"/>
      <point x="417" y="-198"/>
      <point x="488" y="-173"/>
      <point x="544" y="-146" type="curve"/>
      <point x="520" y="-79" type="line"/>
      <point x="476" y="-101"/>
      <point x="400" y="-127"/>
      <point x="320" y="-127" type="curve" smooth="yes"/>
      <point x="186" y="-127"/>
      <point x="100" y="-47"/>
      <point x="100" y="62" type="curve" smooth="yes"/>
      <point x="100" y="148"/>
      <point x="142" y="189"/>
      <point x="168" y="207" type="curve"/>
      <point x="168" y="80"/>
      <point x="245" y="-5"/>
      <point x="369" y="-5" type="curve" smooth="yes"/>
      <point x="425" y="-5"/>
      <point x="484" y="12"/>
      <point x="535" y="42" type="curve"/>
      <point x="510" y="114" type="line"/>
      <point x="464" y="83"/>
      <point x="413" y="65"/>
      <point x="358" y="65" type="curve" smooth="yes"/>
      <point x="290" y="65"/>
      <point x="240" y="105"/>
      <point x="240" y="173" type="curve" smooth="yes"/>
      <point x="240" y="269"/>
      <point x="329" y="292"/>
      <point x="463" y="292" type="curve"/>
      <point x="453" y="372" type="line"/>
      <point x="397" y="372"/>
      <point x="344" y="365"/>
      <point x="296" y="352" type="curve"/>
      <point x="271" y="377"/>
      <point x="256" y="409"/>
      <point x="256" y="446" type="curve" smooth="yes"/>
      <point x="256" y="497"/>
      <point x="283" y="556"/>
      <point x="436" y="556" type="curve"/>
      <point x="433" y="572"/>
      <point x="428" y="611"/>
      <point x="428" y="656" type="curve" smooth="yes"/>
      <point x="428" y="746"/>
      <point x="465" y="806"/>
      <point x="546" y="806" type="curve" smooth="yes"/>
      <point x="627" y="806"/>
      <point x="660" y="746"/>
      <point x="660" y="612" type="curve" smooth="yes"/>
      <point x="660" y="0" type="line"/>
      <point x="741" y="0" type="line"/>
      <point x="741" y="598" type="line" smooth="yes"/>
      <point x="741" y="781"/>
      <point x="670" y="877"/>
      <point x="541" y="877" type="curve" smooth="yes"/>
      <point x="427" y="877"/>
      <point x="356" y="792"/>
      <point x="356" y="667" type="curve" smooth="yes"/>
      <point x="356" y="652"/>
      <point x="358" y="637"/>
      <point x="362" y="623" type="curve"/>
      <point x="240" y="608"/>
      <point x="175" y="552"/>
      <point x="175" y="460" type="curve" smooth="yes"/>
      <point x="175" y="406"/>
      <point x="203" y="362"/>
      <point x="234" y="331" type="curve"/>
      <point x="103" y="278"/>
      <point x="20" y="177"/>
      <point x="20" y="67" type="curve" smooth="yes"/>
      <point x="20" y="-84"/>
      <point x="154" y="-198"/>
    </contour>
  </outline>
</glyph>
<glyph name="ktJHU" format="2">
  <advance width="630"/>
  <outline>
    <contour>
      <point x="452" y="-342" type="curve" smooth="yes"/>
      <point x="531" y="-342"/>
      <point x="610" y="-299"/>
      <point x="610" y="-217" type="curve" smooth="yes"/>
      <point x="610" y="-128"/>
      <point x="557" y="-83"/>
      <point x="422" y="-83" type="curve" smooth="yes"/>
      <point x="275" y="-83"/>
      <point x="144" y="-34"/>
      <point x="144" y="92" type="curve" smooth="yes"/>
      <point x="144" y="175"/>
      <point x="194" y="221"/>
      <point x="230" y="243" type="curve"/>
      <point x="215" y="225"/>
      <point x="208" y="202"/>
      <point x="208" y="178" type="curve" smooth="yes"/>
      <point x="208" y="64"/>
      <point x="289" y="-5"/>
      <point x="413" y="-5" type="curve" smooth="yes"/>
      <point x="469" y="-5"/>
      <point x="528" y="12"/>
      <point x="579" y="42" type="curve"/>
      <point x="554" y="114" type="line"/>
      <point x="508" y="83"/>
      <point x="457" y="65"/>
      <point x="402" y="65" type="curve" smooth="yes"/>
      <point x="333" y="65"/>
      <point x="284" y="99"/>
      <point x="284" y="173" type="curve" smooth="yes"/>
      <point x="284" y="269"/>
      <point x="373" y="292"/>
      <point x="507" y="292" type="curve"/>
      <point x="497" y="372" type="line"/>
      <point x="442" y="372"/>
      <point x="388" y="366"/>
      <point x="338" y="354" type="curve"/>
      <point x="313" y="379"/>
      <point x="300" y="410"/>
      <point x="300" y="446" type="curve" smooth="yes"/>
      <point x="300" y="497"/>
      <point x="327" y="556"/>
      <point x="480" y="556" type="curve"/>
      <point x="475" y="627" type="line"/>
      <point x="308" y="627"/>
      <point x="219" y="568"/>
      <point x="219" y="460" type="curve" smooth="yes"/>
      <point x="219" y="409"/>
      <point x="245" y="367"/>
      <point x="273" y="336" type="curve"/>
      <point x="151" y="292"/>
      <point x="63" y="211"/>
      <point x="63" y="102" type="curve" smooth="yes"/>
      <point x="63" y="-75"/>
      <point x="247" y="-154"/>
      <point x="442" y="-154" type="curve" smooth="yes"/>
      <point x="495" y="-154"/>
      <point x="530" y="-165"/>
      <point x="530" y="-209" type="curve" smooth="yes"/>
      <point x="530" y="-253"/>
      <point x="491" y="-271"/>
      <point x="439" y="-271" type="curve" smooth="yes"/>
      <point x="352" y="-271"/>
      <point x="267" y="-227"/>
      <point x="206" y="-185" type="curve"/>
      <point x="169" y="-233" type="line"/>
      <point x="232" y="-285"/>
      <point x="333" y="-342"/>
    </contour>
  </outline>
</glyph>
<glyph name="ktJHUU" format="2">
  <advance width="554"/>
  <outline>
    <contour>
      <point x="539" y="-333" type="curve"/>
      <point x="592" y="-307" type="line"/>
      <point x="560" y="-235"/>
      <point x="483" y="-63"/>
      <point x="325" y="-63" type="curve" smooth="yes"/>
      <point x="236" y="-63"/>
      <point x="186" y="-114"/>
      <point x="186" y="-181" type="curve" smooth="yes"/>
      <point x="186" y="-184"/>
      <point x="186" y="-187"/>
      <point x="186" y="-190" type="curve"/>
      <point x="128" y="-146"/>
      <point x="85" y="-74"/>
      <point x="85" y="19" type="curve" smooth="yes"/>
      <point x="85" y="118"/>
      <point x="132" y="186"/>
      <point x="168" y="219" type="curve"/>
      <point x="167" y="217"/>
      <point x="164" y="205"/>
      <point x="164" y="183" type="curve" smooth="yes"/>
      <point x="164" y="68"/>
      <point x="251" y="-5"/>
      <point x="369" y="-5" type="curve" smooth="yes"/>
      <point x="425" y="-5"/>
      <point x="484" y="12"/>
      <point x="535" y="42" type="curve"/>
      <point x="510" y="114" type="line"/>
      <point x="463" y="83"/>
      <point x="413" y="65"/>
      <point x="358" y="65" type="curve" smooth="yes"/>
      <point x="293" y="65"/>
      <point x="240" y="102"/>
      <point x="240" y="173" type="curve" smooth="yes"/>
      <point x="240" y="269"/>
      <point x="329" y="292"/>
      <point x="463" y="292" type="curve"/>
      <point x="453" y="372" type="line"/>
      <point x="397" y="372"/>
      <point x="345" y="365"/>
      <point x="296" y="352" type="curve"/>
      <point x="271" y="377"/>
      <point x="256" y="409"/>
      <point x="256" y="446" type="curve" smooth="yes"/>
      <point x="256" y="497"/>
      <point x="283" y="556"/>
      <point x="436" y="556" type="curve"/>
      <point x="431" y="627" type="line"/>
      <point x="264" y="627"/>
      <point x="175" y="568"/>
      <point x="175" y="460" type="curve" smooth="yes"/>
      <point x="175" y="406"/>
      <point x="203" y="362"/>
      <point x="234" y="331" type="curve"/>
      <point x="97" y="275"/>
      <point x="5" y="164"/>
      <point x="5" y="23" type="curve" smooth="yes"/>
      <point x="5" y="-159"/>
      <point x="165" y="-308"/>
      <point x="342" y="-308" type="curve"/>
      <point x="354" y="-249" type="line"/>
      <point x="303" y="-248"/>
      <point x="266" y="-227"/>
      <point x="266" y="-189" type="curve" smooth="yes"/>
      <point x="266" y="-158"/>
      <point x="291" y="-134"/>
      <point x="333" y="-134" type="curve" smooth="yes"/>
      <point x="442" y="-134"/>
      <point x="508" y="-270"/>
    </contour>
  </outline>
</glyph>
<glyph name="ktJII" format="2">
  <advance width="965"/>
  <outline>
    <contour>
      <point x="533" y="0" type="line"/>
      <point x="614" y="0" type="line"/>
      <point x="614" y="607" type="line" smooth="yes"/>
      <point x="614" y="757"/>
      <point x="645" y="806"/>
      <point x="712" y="806" type="curve" smooth="yes"/>
      <point x="779" y="806"/>
      <point x="802" y="753"/>
      <point x="802" y="612" type="curve" smooth="yes"/>
      <point x="802" y="0" type="line"/>
      <point x="882" y="0" type="line"/>
      <point x="882" y="598" type="line" smooth="yes"/>
      <point x="882" y="781"/>
      <point x="826" y="877"/>
      <point x="707" y="877" type="curve" smooth="yes"/>
      <point x="584" y="877"/>
      <point x="533" y="795"/>
      <point x="533" y="622" type="curve" smooth="yes"/>
      <point x="533" y="612"/>
      <point x="534" y="604"/>
      <point x="536" y="595" type="curve"/>
      <point x="513" y="614"/>
      <point x="482" y="627"/>
      <point x="448" y="627" type="curve" smooth="yes"/>
      <point x="346" y="627"/>
      <point x="297" y="563"/>
      <point x="297" y="446" type="curve" smooth="yes"/>
      <point x="297" y="229" type="line" smooth="yes"/>
      <point x="297" y="154"/>
      <point x="268" y="117"/>
      <point x="216" y="117" type="curve" smooth="yes"/>
      <point x="169" y="117"/>
      <point x="145" y="151"/>
      <point x="145" y="228" type="curve" smooth="yes"/>
      <point x="145" y="622" type="line"/>
      <point x="64" y="622" type="line"/>
      <point x="64" y="233" type="line" smooth="yes"/>
      <point x="64" y="106"/>
      <point x="133" y="46"/>
      <point x="221" y="46" type="curve" smooth="yes"/>
      <point x="317" y="46"/>
      <point x="377" y="114"/>
      <point x="377" y="224" type="curve" smooth="yes"/>
      <point x="377" y="441" type="line" smooth="yes"/>
      <point x="377" y="515"/>
      <point x="405" y="556"/>
      <point x="453" y="556" type="curve" smooth="yes"/>
      <point x="517" y="556"/>
      <point x="533" y="500"/>
      <point x="533" y="431" type="curve" smooth="yes"/>
    </contour>
  </outline>
</glyph>
<glyph name="ktJRII" format="2">
  <advance width="965"/>
  <outline>
    <contour>
      <point x="258" y="0" type="line"/>
      <point x="533" y="141" type="line"/>
      <point x="533" y="0" type="line"/>
      <point x="614" y="0" type="line"/>
      <point x="614" y="607" type="line" smooth="yes"/>
      <point x="614" y="757"/>
      <point x="645" y="806"/>
      <point x="712" y="806" type="curve" smooth="yes"/>
      <point x="779" y="806"/>
      <point x="802" y="753"/>
      <point x="802" y="612" type="curve" smooth="yes"/>
      <point x="802" y="0" type="line"/>
      <point x="882" y="0" type="line"/>
      <point x="882" y="598" type="line" smooth="yes"/>
      <point x="882" y="781"/>
      <point x="826" y="877"/>
      <point x="707" y="877" type="curve" smooth="yes"/>
      <point x="584" y="877"/>
      <point x="533" y="795"/>
      <point x="533" y="622" type="curve" smooth="yes"/>
      <point x="533" y="612"/>
      <point x="534" y="604"/>
      <point x="535" y="596" type="curve"/>
      <point x="512" y="614"/>
      <point x="481" y="627"/>
      <point x="448" y="627" type="curve" smooth="yes"/>
      <point x="346" y="627"/>
      <point x="297" y="563"/>
      <point x="297" y="446" type="curve" smooth="yes"/>
      <point x="297" y="336" type="line" smooth="yes"/>
      <point x="297" y="262"/>
      <point x="268" y="225"/>
      <point x="216" y="225" type="curve" smooth="yes"/>
      <point x="169" y="225"/>
      <point x="145" y="259"/>
      <point x="145" y="335" type="curve" smooth="yes"/>
      <point x="145" y="622" type="line"/>
      <point x="64" y="622" type="line"/>
      <point x="64" y="340" type="line" smooth="yes"/>
      <point x="64" y="213"/>
      <point x="133" y="154"/>
      <point x="221" y="154" type="curve" smooth="yes"/>
      <point x="317" y="154"/>
      <point x="377" y="221"/>
      <point x="377" y="331" type="curve" smooth="yes"/>
      <point x="377" y="441" type="line" smooth="yes"/>
      <point x="377" y="515"/>
      <point x="405" y="556"/>
      <point x="453" y="556" type="curve" smooth="yes"/>
      <point x="517" y="556"/>
      <point x="533" y="500"/>
      <point x="533" y="431" type="curve" smooth="yes"/>
      <point x="533" y="218" type="line"/>
      <point x="222" y="70" type="line"/>
    </contour>
  </outline>
</glyph>
<glyph name="ktJRU.alt1" format="2">
  <advance width="724"/>
  <outline>
    <contour>
      <point x="475" y="627" type="curve" smooth="yes"/>
      <point x="373" y="627"/>
      <point x="324" y="563"/>
      <point x="324" y="446" type="curve" smooth="yes"/>
      <point x="324" y="336" type="line" smooth="yes"/>
      <point x="324" y="262"/>
      <point x="295" y="225"/>
      <point x="243" y="225" type="curve" smooth="yes"/>
      <point x="196" y="225"/>
      <point x="172" y="259"/>
      <point x="172" y="335" type="curve" smooth="yes"/>
      <point x="172" y="622" type="line"/>
      <point x="91" y="622" type="line"/>
      <point x="91" y="340" type="line" smooth="yes"/>
      <point x="91" y="213"/>
      <point x="160" y="154"/>
      <point x="248" y="154" type="curve" smooth="yes"/>
      <point x="344" y="154"/>
      <point x="404" y="221"/>
      <point x="404" y="331" type="curve" smooth="yes"/>
      <point x="404" y="441" type="line" smooth="yes"/>
      <point x="404" y="515"/>
      <point x="432" y="556"/>
      <point x="480" y="556" type="curve" smooth="yes"/>
      <point x="544" y="556"/>
      <point x="560" y="500"/>
      <point x="560" y="431" type="curve" smooth="yes"/>
      <point x="560" y="218" type="line"/>
      <point x="249" y="70" type="line"/>
      <point x="285" y="0" type="line"/>
      <point x="560" y="141" type="line"/>
      <point x="560" y="48" type="line" smooth="yes"/>
      <point x="560" y="-109"/>
      <point x="488" y="-162"/>
      <point x="381" y="-162" type="curve" smooth="yes"/>
      <point x="287" y="-162"/>
      <point x="188" y="-111"/>
      <point x="104" y="-51" type="curve"/>
      <point x="63" y="-105" type="line"/>
      <point x="153" y="-167"/>
      <point x="266" y="-232"/>
      <point x="391" y="-232" type="curve" smooth="yes"/>
      <point x="544" y="-232"/>
      <point x="641" y="-132"/>
      <point x="641" y="40" type="curve" smooth="yes"/>
      <point x="641" y="426" type="line" smooth="yes"/>
      <point x="641" y="531"/>
      <point x="581" y="627"/>
    </contour>
  </outline>
</glyph>
<glyph name="ktJRa" format="2">
  <advance width="697"/>
  <outline>
    <contour>
      <point x="258" y="0" type="line"/>
      <point x="533" y="141" type="line"/>
      <point x="533" y="0" type="line"/>
      <point x="614" y="0" type="line"/>
      <point x="614" y="426" type="line" smooth="yes"/>
      <point x="614" y="531"/>
      <point x="554" y="627"/>
      <point x="448" y="627" type="curve" smooth="yes"/>
      <point x="346" y="627"/>
      <point x="297" y="564"/>
      <point x="297" y="446" type="curve" smooth="yes"/>
      <point x="297" y="336" type="line" smooth="yes"/>
      <point x="297" y="262"/>
      <point x="268" y="225"/>
      <point x="216" y="225" type="curve" smooth="yes"/>
      <point x="169" y="225"/>
      <point x="145" y="259"/>
      <point x="145" y="335" type="curve" smooth="yes"/>
      <point x="145" y="622" type="line"/>
      <point x="64" y="622" type="line"/>
      <point x="64" y="340" type="line" smooth="yes"/>
      <point x="64" y="213"/>
      <point x="133" y="154"/>
      <point x="221" y="154" type="curve" smooth="yes"/>
      <point x="317" y="154"/>
      <point x="377" y="221"/>
      <point x="377" y="331" type="curve" smooth="yes"/>
      <point x="377" y="441" type="line" smooth="yes"/>
      <point x="377" y="515"/>
      <point x="405" y="556"/>
      <point x="453" y="556" type="curve" smooth="yes"/>
      <point x="517" y="556"/>
      <point x="533" y="500"/>
      <point x="533" y="431" type="curve" smooth="yes"/>
      <point x="533" y="218" type="line"/>
      <point x="222" y="70" type="line"/>
    </contour>
  </outline>
</glyph>
<glyph name="ktJU.alt1" format="2">
  <advance width="724"/>
  <outline>
    <contour>
      <point x="391" y="-232" type="curve" smooth="yes"/>
      <point x="544" y="-232"/>
      <point x="641" y="-132"/>
      <point x="641" y="40" type="curve" smooth="yes"/>
      <point x="641" y="426" type="line" smooth="yes"/>
      <point x="641" y="531"/>
      <point x="581" y="627"/>
      <point x="475" y="627" type="curve" smooth="yes"/>
      <point x="373" y="627"/>
      <point x="324" y="563"/>
      <point x="324" y="446" type="curve" smooth="yes"/>
      <point x="324" y="229" type="line" smooth="yes"/>
      <point x="324" y="154"/>
      <point x="294" y="117"/>
      <point x="243" y="117" type="curve" smooth="yes"/>
      <point x="196" y="117"/>
      <point x="171" y="151"/>
      <point x="171" y="228" type="curve" smooth="yes"/>
      <point x="171" y="622" type="line"/>
      <point x="90" y="622" type="line"/>
      <point x="90" y="233" type="line" smooth="yes"/>
      <point x="90" y="106"/>
      <point x="160" y="46"/>
      <point x="248" y="46" type="curve" smooth="yes"/>
      <point x="344" y="46"/>
      <point x="404" y="114"/>
      <point x="404" y="224" type="curve" smooth="yes"/>
      <point x="404" y="441" type="line" smooth="yes"/>
      <point x="404" y="515"/>
      <point x="432" y="556"/>
      <point x="479" y="556" type="curve" smooth="yes"/>
      <point x="544" y="556"/>
      <point x="560" y="500"/>
      <point x="560" y="431" type="curve" smooth="yes"/>
      <point x="560" y="48" type="line" smooth="yes"/>
      <point x="560" y="-109"/>
      <point x="488" y="-162"/>
      <point x="381" y="-162" type="curve" smooth="yes"/>
      <point x="287" y="-162"/>
      <point x="188" y="-111"/>
      <point x="104" y="-51" type="curve"/>
      <point x="63" y="-105" type="line"/>
      <point x="153" y="-167"/>
      <point x="266" y="-232"/>
    </contour>
  </outline>
</glyph>
<glyph name="ktJa.half" format="2">
  <advance width="450"/>
  <outline>
    <contour>
      <point x="221" y="46" type="curve" smooth="yes"/>
      <point x="317" y="46"/>
      <point x="377" y="114"/>
      <point x="377" y="224" type="curve" smooth="yes"/>
      <point x="377" y="441" type="line" smooth="yes"/>
      <point x="377" y="515"/>
      <point x="405" y="581"/>
      <point x="453" y="581" type="curve" smooth="yes"/>
      <point x="479" y="581"/>
      <point x="498" y="567"/>
      <point x="510" y="546" type="curve"/>
      <point x="522" y="546" type="line"/>
      <point x="522" y="608" type="line"/>
      <point x="500" y="620"/>
      <point x="476" y="627"/>
      <point x="448" y="627" type="curve" smooth="yes"/>
      <point x="346" y="627"/>
      <point x="297" y="563"/>
      <point x="297" y="446" type="curve" smooth="yes"/>
      <point x="297" y="229" type="line" smooth="yes"/>
      <point x="297" y="154"/>
      <point x="268" y="117"/>
      <point x="216" y="117" type="curve" smooth="yes"/>
      <point x="169" y="117"/>
      <point x="145" y="151"/>
      <point x="145" y="228" type="curve" smooth="yes"/>
      <point x="145" y="622" type="line"/>
      <point x="64" y="622" type="line"/>
      <point x="64" y="233" type="line" smooth="yes"/>
      <point x="64" y="106"/>
      <point x="133" y="46"/>
    </contour>
  </outline>
</glyph>
<glyph name="ktKHRU.alt1" format="2">
  <advance width="731"/>
  <outline>
    <contour>
      <point x="329" y="16" type="line"/>
      <point x="567" y="246" type="line"/>
      <point x="570" y="246" type="line"/>
      <point x="569" y="237"/>
      <point x="567" y="207"/>
      <point x="567" y="162" type="curve" smooth="yes"/>
      <point x="567" y="120" type="line"/>
      <point x="648" y="120" type="line"/>
      <point x="648" y="622" type="line"/>
      <point x="567" y="622" type="line"/>
      <point x="567" y="342" type="line"/>
      <point x="542" y="312"/>
      <point x="504" y="283"/>
      <point x="455" y="283" type="curve" smooth="yes"/>
      <point x="410" y="283"/>
      <point x="388" y="301"/>
      <point x="388" y="369" type="curve" smooth="yes"/>
      <point x="388" y="622" type="line"/>
      <point x="308" y="622" type="line"/>
      <point x="308" y="401" type="line" smooth="yes"/>
      <point x="308" y="375"/>
      <point x="310" y="353"/>
      <point x="314" y="332" type="curve"/>
      <point x="290" y="306"/>
      <point x="255" y="283"/>
      <point x="211" y="283" type="curve" smooth="yes"/>
      <point x="168" y="283"/>
      <point x="144" y="308"/>
      <point x="144" y="369" type="curve" smooth="yes"/>
      <point x="144" y="622" type="line"/>
      <point x="63" y="622" type="line"/>
      <point x="63" y="377" type="line" smooth="yes"/>
      <point x="63" y="270"/>
      <point x="133" y="212"/>
      <point x="228" y="212" type="curve" smooth="yes"/>
      <point x="280" y="212"/>
      <point x="326" y="232"/>
      <point x="352" y="255" type="curve"/>
      <point x="354" y="255" type="line"/>
      <point x="376" y="231"/>
      <point x="409" y="218"/>
      <point x="447" y="213" type="curve"/>
      <point x="280" y="70" type="line"/>
    </contour>
    <contour>
      <point x="398" y="-145" type="curve" smooth="yes"/>
      <point x="552" y="-145"/>
      <point x="648" y="-44"/>
      <point x="648" y="127" type="curve" smooth="yes"/>
      <point x="648" y="136" type="line"/>
      <point x="567" y="136" type="line"/>
      <point x="567" y="-21"/>
      <point x="495" y="-74"/>
      <point x="389" y="-74" type="curve" smooth="yes"/>
      <point x="294" y="-74"/>
      <point x="195" y="-23"/>
      <point x="111" y="37" type="curve"/>
      <point x="71" y="-18" type="line"/>
      <point x="161" y="-80"/>
      <point x="273" y="-145"/>
    </contour>
  </outline>
</glyph>
<glyph name="ktKHRa" format="2">
  <advance width="731"/>
  <outline>
    <contour>
      <point x="303" y="-10" type="line"/>
      <point x="567" y="246" type="line"/>
      <point x="570" y="246" type="line"/>
      <point x="569" y="237"/>
      <point x="567" y="207"/>
      <point x="567" y="162" type="curve" smooth="yes"/>
      <point x="567" y="0" type="line"/>
      <point x="648" y="0" type="line"/>
      <point x="648" y="622" type="line"/>
      <point x="567" y="622" type="line"/>
      <point x="567" y="342" type="line"/>
      <point x="542" y="312"/>
      <point x="504" y="283"/>
      <point x="455" y="283" type="curve" smooth="yes"/>
      <point x="410" y="283"/>
      <point x="388" y="301"/>
      <point x="388" y="369" type="curve" smooth="yes"/>
      <point x="388" y="622" type="line"/>
      <point x="308" y="622" type="line"/>
      <point x="308" y="401" type="line" smooth="yes"/>
      <point x="308" y="375"/>
      <point x="310" y="353"/>
      <point x="314" y="332" type="curve"/>
      <point x="290" y="306"/>
      <point x="255" y="283"/>
      <point x="211" y="283" type="curve" smooth="yes"/>
      <point x="168" y="283"/>
      <point x="144" y="308"/>
      <point x="144" y="369" type="curve" smooth="yes"/>
      <point x="144" y="622" type="line"/>
      <point x="63" y="622" type="line"/>
      <point x="63" y="377" type="line" smooth="yes"/>
      <point x="63" y="270"/>
      <point x="133" y="212"/>
      <point x="228" y="212" type="curve" smooth="yes"/>
      <point x="280" y="212"/>
      <point x="326" y="232"/>
      <point x="352" y="255" type="curve"/>
      <point x="354" y="255" type="line"/>
      <point x="376" y="231"/>
      <point x="409" y="218"/>
      <point x="447" y="213" type="curve"/>
      <point x="251" y="45" type="line"/>
    </contour>
  </outline>
</glyph>
<glyph name="ktKHU.alt1" format="2">
  <advance width="731"/>
  <outline>
    <contour>
      <point x="398" y="-145" type="curve" smooth="yes"/>
      <point x="552" y="-145"/>
      <point x="648" y="-44"/>
      <point x="648" y="127" type="curve" smooth="yes"/>
      <point x="648" y="622" type="line"/>
      <point x="567" y="622" type="line"/>
      <point x="567" y="342" type="line"/>
      <point x="542" y="312"/>
      <point x="504" y="283"/>
      <point x="455" y="283" type="curve" smooth="yes"/>
      <point x="410" y="283"/>
      <point x="388" y="301"/>
      <point x="388" y="369" type="curve" smooth="yes"/>
      <point x="388" y="622" type="line"/>
      <point x="308" y="622" type="line"/>
      <point x="308" y="401" type="line" smooth="yes"/>
      <point x="308" y="375"/>
      <point x="310" y="353"/>
      <point x="314" y="332" type="curve"/>
      <point x="290" y="306"/>
      <point x="255" y="283"/>
      <point x="211" y="283" type="curve" smooth="yes"/>
      <point x="168" y="283"/>
      <point x="144" y="308"/>
      <point x="144" y="369" type="curve" smooth="yes"/>
      <point x="144" y="622" type="line"/>
      <point x="63" y="622" type="line"/>
      <point x="63" y="377" type="line" smooth="yes"/>
      <point x="63" y="270"/>
      <point x="133" y="212"/>
      <point x="228" y="212" type="curve" smooth="yes"/>
      <point x="280" y="212"/>
      <point x="326" y="232"/>
      <point x="352" y="255" type="curve"/>
      <point x="354" y="255" type="line"/>
      <point x="381" y="227"/>
      <point x="422" y="212"/>
      <point x="472" y="212" type="curve" smooth="yes"/>
      <point x="511" y="212"/>
      <point x="549" y="228"/>
      <point x="568" y="247" type="curve"/>
      <point x="570" y="246" type="line"/>
      <point x="569" y="237"/>
      <point x="567" y="201"/>
      <point x="567" y="136" type="curve" smooth="yes"/>
      <point x="567" y="-21"/>
      <point x="495" y="-74"/>
      <point x="389" y="-74" type="curve" smooth="yes"/>
      <point x="294" y="-74"/>
      <point x="195" y="-23"/>
      <point x="111" y="37" type="curve"/>
      <point x="71" y="-18" type="line"/>
      <point x="161" y="-80"/>
      <point x="273" y="-145"/>
    </contour>
  </outline>
</glyph>
<glyph name="ktKHa.half" format="2">
  <advance width="565"/>
  <outline>
    <contour>
      <point x="228" y="212" type="curve" smooth="yes"/>
      <point x="280" y="212"/>
      <point x="326" y="232"/>
      <point x="352" y="255" type="curve"/>
      <point x="354" y="255" type="line"/>
      <point x="381" y="227"/>
      <point x="422" y="212"/>
      <point x="472" y="212" type="curve" smooth="yes"/>
      <point x="565" y="212"/>
      <point x="627" y="296"/>
      <point x="627" y="324" type="curve"/>
      <point x="591" y="375" type="line"/>
      <point x="574" y="349"/>
      <point x="530" y="283"/>
      <point x="455" y="283" type="curve" smooth="yes"/>
      <point x="410" y="283"/>
      <point x="388" y="301"/>
      <point x="388" y="369" type="curve" smooth="yes"/>
      <point x="388" y="622" type="line"/>
      <point x="308" y="622" type="line"/>
      <point x="308" y="401" type="line" smooth="yes"/>
      <point x="308" y="375"/>
      <point x="310" y="353"/>
      <point x="314" y="332" type="curve"/>
      <point x="290" y="306"/>
      <point x="255" y="283"/>
      <point x="211" y="283" type="curve" smooth="yes"/>
      <point x="168" y="283"/>
      <point x="144" y="308"/>
      <point x="144" y="369" type="curve" smooth="yes"/>
      <point x="144" y="622" type="line"/>
      <point x="63" y="622" type="line"/>
      <point x="63" y="377" type="line" smooth="yes"/>
      <point x="63" y="270"/>
      <point x="133" y="212"/>
    </contour>
  </outline>
</glyph>
<glyph name="ktKII.var" format="2">
  <advance width="823"/>
  <outline>
    <contour>
      <point x="391" y="590" type="line"/>
      <point x="472" y="590" type="line"/>
      <point x="472" y="607" type="line" smooth="yes"/>
      <point x="472" y="757"/>
      <point x="510" y="806"/>
      <point x="570" y="806" type="curve" smooth="yes"/>
      <point x="639" y="806"/>
      <point x="660" y="749"/>
      <point x="660" y="612" type="curve" smooth="yes"/>
      <point x="660" y="0" type="line"/>
      <point x="740" y="0" type="line"/>
      <point x="740" y="598" type="line" smooth="yes"/>
      <point x="740" y="781"/>
      <point x="690" y="877"/>
      <point x="565" y="877" type="curve" smooth="yes"/>
      <point x="451" y="877"/>
      <point x="391" y="795"/>
      <point x="391" y="622" type="curve"/>
    </contour>
    <component base="ktKa.alt1.left" xOffset="46"/>
  </outline>
</glyph>
<glyph name="ktKKII" format="2">
  <advance width="987"/>
  <outline>
    <contour>
      <point x="355" y="-194" type="line"/>
      <point x="436" y="-194" type="line"/>
      <point x="436" y="61" type="line"/>
      <point x="474" y="104"/>
      <point x="514" y="141"/>
      <point x="560" y="141" type="curve" smooth="yes"/>
      <point x="604" y="141"/>
      <point x="617" y="105"/>
      <point x="617" y="65" type="curve" smooth="yes"/>
      <point x="617" y="-6"/>
      <point x="591" y="-82"/>
      <point x="568" y="-135" type="curve"/>
      <point x="645" y="-160" type="line"/>
      <point x="670" y="-103"/>
      <point x="698" y="-22"/>
      <point x="698" y="55" type="curve" smooth="yes"/>
      <point x="698" y="93"/>
      <point x="687" y="129"/>
      <point x="667" y="156" type="curve"/>
      <point x="685" y="198"/>
      <point x="698" y="244"/>
      <point x="698" y="289" type="curve" smooth="yes"/>
      <point x="698" y="372"/>
      <point x="649" y="445"/>
      <point x="552" y="445" type="curve" smooth="yes"/>
      <point x="505" y="445"/>
      <point x="466" y="425"/>
      <point x="436" y="398" type="curve"/>
      <point x="433" y="398" type="line"/>
      <point x="434" y="403"/>
      <point x="436" y="424"/>
      <point x="436" y="464" type="curve" smooth="yes"/>
      <point x="436" y="563" type="line" smooth="yes"/>
      <point x="436" y="742"/>
      <point x="522" y="805"/>
      <point x="635" y="805" type="curve" smooth="yes"/>
      <point x="757" y="805"/>
      <point x="823" y="726"/>
      <point x="823" y="573" type="curve" smooth="yes"/>
      <point x="823" y="0" type="line"/>
      <point x="904" y="0" type="line"/>
      <point x="904" y="563" type="line" smooth="yes"/>
      <point x="904" y="750"/>
      <point x="805" y="876"/>
      <point x="625" y="876" type="curve" smooth="yes"/>
      <point x="475" y="876"/>
      <point x="355" y="786"/>
      <point x="355" y="577" type="curve" smooth="yes"/>
      <point x="355" y="441" type="line"/>
      <point x="323" y="463"/>
      <point x="279" y="484"/>
      <point x="221" y="484" type="curve" smooth="yes"/>
      <point x="129" y="484"/>
      <point x="46" y="426"/>
      <point x="46" y="331" type="curve" smooth="yes"/>
      <point x="46" y="280"/>
      <point x="69" y="237"/>
      <point x="106" y="207" type="curve"/>
      <point x="74" y="180"/>
      <point x="46" y="141"/>
      <point x="46" y="93" type="curve" smooth="yes"/>
      <point x="46" y="-1"/>
      <point x="126" y="-67"/>
      <point x="224" y="-67" type="curve" smooth="yes"/>
      <point x="273" y="-67"/>
      <point x="319" y="-47"/>
      <point x="355" y="-20" type="curve"/>
      <point x="357" y="-20" type="line"/>
      <point x="356" y="-24"/>
      <point x="355" y="-42"/>
      <point x="355" y="-76" type="curve" smooth="yes"/>
    </contour>
    <contour>
      <point x="214" y="3" type="curve" smooth="yes"/>
      <point x="164" y="3"/>
      <point x="127" y="33"/>
      <point x="127" y="83" type="curve" smooth="yes"/>
      <point x="127" y="129"/>
      <point x="153" y="155"/>
      <point x="179" y="171" type="curve"/>
      <point x="193" y="168"/>
      <point x="208" y="166"/>
      <point x="224" y="166" type="curve" smooth="yes"/>
      <point x="273" y="166"/>
      <point x="319" y="186"/>
      <point x="355" y="214" type="curve"/>
      <point x="357" y="214" type="line"/>
      <point x="356" y="210"/>
      <point x="355" y="191"/>
      <point x="355" y="157" type="curve" smooth="yes"/>
      <point x="355" y="78" type="line"/>
      <point x="317" y="37"/>
      <point x="268" y="3"/>
    </contour>
    <contour>
      <point x="214" y="236" type="curve" smooth="yes"/>
      <point x="168" y="236"/>
      <point x="127" y="267"/>
      <point x="127" y="321" type="curve" smooth="yes"/>
      <point x="127" y="377"/>
      <point x="173" y="413"/>
      <point x="230" y="413" type="curve" smooth="yes"/>
      <point x="278" y="413"/>
      <point x="320" y="398"/>
      <point x="355" y="380" type="curve"/>
      <point x="355" y="311" type="line"/>
      <point x="317" y="271"/>
      <point x="268" y="236"/>
    </contour>
    <contour>
      <point x="433" y="165" type="line"/>
      <point x="434" y="170"/>
      <point x="436" y="191"/>
      <point x="436" y="231" type="curve" smooth="yes"/>
      <point x="436" y="294" type="line"/>
      <point x="474" y="337"/>
      <point x="517" y="374"/>
      <point x="560" y="374" type="curve" smooth="yes"/>
      <point x="601" y="374"/>
      <point x="617" y="339"/>
      <point x="617" y="298" type="curve" smooth="yes"/>
      <point x="617" y="267"/>
      <point x="609" y="235"/>
      <point x="597" y="206" type="curve"/>
      <point x="583" y="209"/>
      <point x="568" y="211"/>
      <point x="552" y="211" type="curve" smooth="yes"/>
      <point x="505" y="211"/>
      <point x="466" y="192"/>
      <point x="436" y="165" type="curve"/>
    </contour>
  </outline>
</glyph>
<glyph name="ktKKII.var" format="2">
  <advance width="1191"/>
  <outline>
    <contour>
      <point x="840" y="155" type="curve" smooth="yes"/>
      <point x="840" y="622" type="line"/>
      <point x="759" y="622" type="line"/>
      <point x="759" y="284" type="line"/>
      <point x="727" y="306"/>
      <point x="683" y="327"/>
      <point x="625" y="327" type="curve" smooth="yes"/>
      <point x="530" y="327"/>
      <point x="450" y="267"/>
      <point x="450" y="154" type="curve" smooth="yes"/>
      <point x="450" y="46"/>
      <point x="511" y="-31"/>
      <point x="634" y="-31" type="curve" smooth="yes"/>
      <point x="743" y="-31"/>
      <point x="840" y="66"/>
    </contour>
    <contour>
      <point x="631" y="39" type="curve" smooth="yes"/>
      <point x="575" y="39"/>
      <point x="531" y="77"/>
      <point x="531" y="144" type="curve" smooth="yes"/>
      <point x="531" y="220"/>
      <point x="579" y="256"/>
      <point x="634" y="256" type="curve" smooth="yes"/>
      <point x="682" y="256"/>
      <point x="724" y="241"/>
      <point x="759" y="223" type="curve"/>
      <point x="759" y="130" type="line"/>
      <point x="743" y="81"/>
      <point x="679" y="39"/>
    </contour>
    <component base="ktKa.alt1.left" xOffset="46"/>
    <component base="ktVSII.alt" xOffset="923"/>
  </outline>
</glyph>
<glyph name="ktKKU.alt1" format="2">
  <advance width="800"/>
  <outline>
    <contour>
      <point x="391" y="-395" type="curve" smooth="yes"/>
      <point x="618" y="-395"/>
      <point x="742" y="-228"/>
      <point x="742" y="-33" type="curve" smooth="yes"/>
      <point x="742" y="48"/>
      <point x="719" y="122"/>
      <point x="671" y="166" type="curve"/>
      <point x="687" y="205"/>
      <point x="698" y="248"/>
      <point x="698" y="289" type="curve" smooth="yes"/>
      <point x="698" y="372"/>
      <point x="649" y="445"/>
      <point x="552" y="445" type="curve" smooth="yes"/>
      <point x="505" y="445"/>
      <point x="466" y="425"/>
      <point x="436" y="398" type="curve"/>
      <point x="433" y="398" type="line"/>
      <point x="434" y="403"/>
      <point x="436" y="424"/>
      <point x="436" y="464" type="curve" smooth="yes"/>
      <point x="436" y="622" type="line"/>
      <point x="355" y="622" type="line"/>
      <point x="355" y="441" type="line"/>
      <point x="323" y="463"/>
      <point x="279" y="484"/>
      <point x="221" y="484" type="curve" smooth="yes"/>
      <point x="129" y="484"/>
      <point x="46" y="426"/>
      <point x="46" y="331" type="curve" smooth="yes"/>
      <point x="46" y="280"/>
      <point x="69" y="237"/>
      <point x="106" y="207" type="curve"/>
      <point x="74" y="180"/>
      <point x="46" y="141"/>
      <point x="46" y="93" type="curve" smooth="yes"/>
      <point x="46" y="-1"/>
      <point x="126" y="-67"/>
      <point x="224" y="-67" type="curve" smooth="yes"/>
      <point x="273" y="-67"/>
      <point x="319" y="-47"/>
      <point x="355" y="-20" type="curve"/>
      <point x="357" y="-20" type="line"/>
      <point x="356" y="-24"/>
      <point x="355" y="-42"/>
      <point x="355" y="-76" type="curve" smooth="yes"/>
      <point x="355" y="-194" type="line"/>
      <point x="436" y="-194" type="line"/>
      <point x="436" y="60" type="line"/>
      <point x="474" y="103"/>
      <point x="514" y="140"/>
      <point x="560" y="140" type="curve" smooth="yes"/>
      <point x="631" y="140"/>
      <point x="661" y="72"/>
      <point x="661" y="-28" type="curve" smooth="yes"/>
      <point x="661" y="-201"/>
      <point x="559" y="-324"/>
      <point x="386" y="-324" type="curve" smooth="yes"/>
      <point x="271" y="-324"/>
      <point x="181" y="-261"/>
      <point x="100" y="-196" type="curve"/>
      <point x="59" y="-246" type="line"/>
      <point x="146" y="-328"/>
      <point x="262" y="-395"/>
    </contour>
    <contour>
      <point x="214" y="3" type="curve" smooth="yes"/>
      <point x="164" y="3"/>
      <point x="127" y="33"/>
      <point x="127" y="83" type="curve" smooth="yes"/>
      <point x="127" y="129"/>
      <point x="153" y="155"/>
      <point x="179" y="171" type="curve"/>
      <point x="193" y="168"/>
      <point x="208" y="166"/>
      <point x="224" y="166" type="curve" smooth="yes"/>
      <point x="273" y="166"/>
      <point x="319" y="186"/>
      <point x="355" y="214" type="curve"/>
      <point x="357" y="214" type="line"/>
      <point x="356" y="210"/>
      <point x="355" y="191"/>
      <point x="355" y="157" type="curve" smooth="yes"/>
      <point x="355" y="78" type="line"/>
      <point x="317" y="37"/>
      <point x="268" y="3"/>
    </contour>
    <contour>
      <point x="214" y="236" type="curve" smooth="yes"/>
      <point x="168" y="236"/>
      <point x="127" y="267"/>
      <point x="127" y="321" type="curve" smooth="yes"/>
      <point x="127" y="377"/>
      <point x="173" y="413"/>
      <point x="230" y="413" type="curve" smooth="yes"/>
      <point x="278" y="413"/>
      <point x="320" y="398"/>
      <point x="355" y="380" type="curve"/>
      <point x="355" y="311" type="line"/>
      <point x="317" y="271"/>
      <point x="268" y="236"/>
    </contour>
    <contour>
      <point x="433" y="165" type="line"/>
      <point x="434" y="170"/>
      <point x="436" y="191"/>
      <point x="436" y="231" type="curve" smooth="yes"/>
      <point x="436" y="294" type="line"/>
      <point x="474" y="337"/>
      <point x="517" y="374"/>
      <point x="560" y="374" type="curve" smooth="yes"/>
      <point x="601" y="374"/>
      <point x="617" y="339"/>
      <point x="617" y="298" type="curve" smooth="yes"/>
      <point x="617" y="267"/>
      <point x="609" y="235"/>
      <point x="597" y="206" type="curve"/>
      <point x="596" y="206" type="line"/>
      <point x="582" y="209"/>
      <point x="568" y="211"/>
      <point x="552" y="211" type="curve" smooth="yes"/>
      <point x="505" y="211"/>
      <point x="466" y="192"/>
      <point x="436" y="165" type="curve"/>
    </contour>
  </outline>
</glyph>
<glyph name="ktKMRU.alt1" format="2">
  <advance width="1148"/>
  <outline>
    <contour>
      <point x="355" y="0" type="line"/>
      <point x="436" y="0" type="line"/>
      <point x="436" y="282" type="line"/>
      <point x="508" y="370"/>
      <point x="579" y="493"/>
      <point x="667" y="493" type="curve" smooth="yes"/>
      <point x="691" y="493"/>
      <point x="731" y="488"/>
      <point x="751" y="427" type="curve"/>
      <point x="676" y="373"/>
      <point x="612" y="326"/>
      <point x="612" y="251" type="curve" smooth="yes"/>
      <point x="612" y="170"/>
      <point x="670" y="126"/>
      <point x="733" y="126" type="curve" smooth="yes"/>
      <point x="799" y="126"/>
      <point x="848" y="183"/>
      <point x="848" y="266" type="curve" smooth="yes"/>
      <point x="848" y="305"/>
      <point x="843" y="350"/>
      <point x="833" y="393" type="curve"/>
      <point x="880" y="421"/>
      <point x="945" y="454"/>
      <point x="985" y="487" type="curve"/>
      <point x="987" y="486" type="line"/>
      <point x="985" y="462"/>
      <point x="984" y="447"/>
      <point x="984" y="410" type="curve" smooth="yes"/>
      <point x="984" y="130" type="line"/>
      <point x="1065" y="130" type="line"/>
      <point x="1065" y="622" type="line"/>
      <point x="1006" y="622" type="line"/>
      <point x="955" y="548"/>
      <point x="888" y="512"/>
      <point x="809" y="469" type="curve"/>
      <point x="776" y="545"/>
      <point x="721" y="564"/>
      <point x="665" y="564" type="curve" smooth="yes"/>
      <point x="566" y="564"/>
      <point x="492" y="469"/>
      <point x="436" y="398" type="curve"/>
      <point x="433" y="398" type="line"/>
      <point x="434" y="403"/>
      <point x="436" y="424"/>
      <point x="436" y="464" type="curve" smooth="yes"/>
      <point x="436" y="622" type="line"/>
      <point x="355" y="622" type="line"/>
      <point x="355" y="441" type="line"/>
      <point x="323" y="463"/>
      <point x="279" y="484"/>
      <point x="221" y="484" type="curve" smooth="yes"/>
      <point x="126" y="484"/>
      <point x="46" y="424"/>
      <point x="46" y="331" type="curve" smooth="yes"/>
      <point x="46" y="233"/>
      <point x="126" y="166"/>
      <point x="224" y="166" type="curve" smooth="yes"/>
      <point x="273" y="166"/>
      <point x="319" y="186"/>
      <point x="355" y="214" type="curve"/>
      <point x="357" y="214" type="line"/>
      <point x="356" y="210"/>
      <point x="355" y="191"/>
      <point x="355" y="157" type="curve" smooth="yes"/>
    </contour>
    <contour>
      <point x="214" y="236" type="curve" smooth="yes"/>
      <point x="168" y="236"/>
      <point x="127" y="264"/>
      <point x="127" y="321" type="curve" smooth="yes"/>
      <point x="127" y="377"/>
      <point x="175" y="413"/>
      <point x="230" y="413" type="curve" smooth="yes"/>
      <point x="278" y="413"/>
      <point x="320" y="398"/>
      <point x="355" y="380" type="curve"/>
      <point x="355" y="311" type="line"/>
      <point x="317" y="271"/>
      <point x="268" y="236"/>
    </contour>
    <contour>
      <point x="730" y="196" type="curve" smooth="yes"/>
      <point x="708" y="196"/>
      <point x="693" y="213"/>
      <point x="693" y="242" type="curve" smooth="yes"/>
      <point x="693" y="285"/>
      <point x="722" y="314"/>
      <point x="768" y="348" type="curve"/>
      <point x="771" y="324"/>
      <point x="772" y="301"/>
      <point x="772" y="278" type="curve" smooth="yes"/>
      <point x="772" y="226"/>
      <point x="757" y="196"/>
    </contour>
    <contour>
      <point x="984" y="189" type="line"/>
      <point x="984" y="171" type="line"/>
      <point x="674" y="19" type="line"/>
      <point x="714" y="-51" type="line"/>
      <point x="984" y="93" type="line"/>
      <point x="984" y="83" type="line" smooth="yes"/>
      <point x="984" y="-85"/>
      <point x="876" y="-136"/>
      <point x="783" y="-181" type="curve"/>
      <point x="816" y="-244" type="line"/>
      <point x="923" y="-188"/>
      <point x="1065" y="-140"/>
      <point x="1065" y="73" type="curve" smooth="yes"/>
      <point x="1065" y="189" type="line"/>
    </contour>
  </outline>
</glyph>
<glyph name="ktKMRU.var.alt1" format="2">
  <advance width="1148"/>
  <outline>
    <contour>
      <point x="471" y="441" type="curve"/>
      <point x="471" y="326" type="line"/>
      <point x="531" y="406"/>
      <point x="593" y="493"/>
      <point x="667" y="493" type="curve" smooth="yes"/>
      <point x="691" y="493"/>
      <point x="731" y="488"/>
      <point x="751" y="427" type="curve"/>
      <point x="676" y="373"/>
      <point x="612" y="326"/>
      <point x="612" y="251" type="curve" smooth="yes"/>
      <point x="612" y="170"/>
      <point x="670" y="126"/>
      <point x="733" y="126" type="curve" smooth="yes"/>
      <point x="799" y="126"/>
      <point x="848" y="183"/>
      <point x="848" y="266" type="curve" smooth="yes"/>
      <point x="848" y="305"/>
      <point x="843" y="350"/>
      <point x="833" y="393" type="curve"/>
      <point x="880" y="421"/>
      <point x="945" y="454"/>
      <point x="985" y="487" type="curve"/>
      <point x="987" y="486" type="line"/>
      <point x="985" y="463"/>
      <point x="984" y="447"/>
      <point x="984" y="410" type="curve" smooth="yes"/>
      <point x="984" y="130" type="line"/>
      <point x="1065" y="130" type="line"/>
      <point x="1065" y="622" type="line"/>
      <point x="1006" y="622" type="line"/>
      <point x="955" y="548"/>
      <point x="888" y="512"/>
      <point x="809" y="469" type="curve"/>
      <point x="776" y="545"/>
      <point x="721" y="564"/>
      <point x="665" y="564" type="curve" smooth="yes"/>
      <point x="585" y="564"/>
      <point x="522" y="502"/>
    </contour>
    <contour>
      <point x="730" y="196" type="curve" smooth="yes"/>
      <point x="708" y="196"/>
      <point x="693" y="213"/>
      <point x="693" y="242" type="curve" smooth="yes"/>
      <point x="693" y="285"/>
      <point x="722" y="314"/>
      <point x="768" y="348" type="curve"/>
      <point x="771" y="324"/>
      <point x="772" y="301"/>
      <point x="772" y="278" type="curve" smooth="yes"/>
      <point x="772" y="226"/>
      <point x="757" y="196"/>
    </contour>
    <contour>
      <point x="984" y="189" type="line"/>
      <point x="984" y="171" type="line"/>
      <point x="674" y="19" type="line"/>
      <point x="714" y="-51" type="line"/>
      <point x="984" y="93" type="line"/>
      <point x="984" y="83" type="line" smooth="yes"/>
      <point x="984" y="-85"/>
      <point x="878" y="-135"/>
      <point x="783" y="-181" type="curve"/>
      <point x="816" y="-244" type="line"/>
      <point x="923" y="-188"/>
      <point x="1065" y="-140"/>
      <point x="1065" y="73" type="curve" smooth="yes"/>
      <point x="1065" y="189" type="line"/>
    </contour>
    <component base="ktKa.alt1.left" xOffset="83"/>
  </outline>
</glyph>
<glyph name="ktKMU.alt1" format="2">
  <advance width="1148"/>
  <outline>
    <contour>
      <point x="355" y="0" type="line"/>
      <point x="436" y="0" type="line"/>
      <point x="436" y="282" type="line"/>
      <point x="508" y="370"/>
      <point x="565" y="463"/>
      <point x="643" y="463" type="curve" smooth="yes"/>
      <point x="697" y="463"/>
      <point x="731" y="418"/>
      <point x="751" y="357" type="curve"/>
      <point x="676" y="303"/>
      <point x="612" y="256"/>
      <point x="612" y="181" type="curve" smooth="yes"/>
      <point x="612" y="100"/>
      <point x="670" y="56"/>
      <point x="733" y="56" type="curve" smooth="yes"/>
      <point x="799" y="56"/>
      <point x="848" y="113"/>
      <point x="848" y="196" type="curve" smooth="yes"/>
      <point x="848" y="235"/>
      <point x="843" y="280"/>
      <point x="833" y="323" type="curve"/>
      <point x="838" y="327" type="line" smooth="yes"/>
      <point x="902" y="372"/>
      <point x="952" y="426"/>
      <point x="985" y="477" type="curve"/>
      <point x="987" y="476" type="line"/>
      <point x="986" y="469"/>
      <point x="984" y="447"/>
      <point x="984" y="410" type="curve" smooth="yes"/>
      <point x="984" y="87" type="line"/>
      <point x="1065" y="87" type="line"/>
      <point x="1065" y="622" type="line"/>
      <point x="1006" y="622" type="line"/>
      <point x="959" y="536"/>
      <point x="905" y="474"/>
      <point x="809" y="399" type="curve"/>
      <point x="776" y="475"/>
      <point x="722" y="534"/>
      <point x="638" y="534" type="curve" smooth="yes"/>
      <point x="552" y="534"/>
      <point x="492" y="469"/>
      <point x="436" y="398" type="curve"/>
      <point x="433" y="398" type="line"/>
      <point x="434" y="403"/>
      <point x="436" y="424"/>
      <point x="436" y="464" type="curve" smooth="yes"/>
      <point x="436" y="622" type="line"/>
      <point x="355" y="622" type="line"/>
      <point x="355" y="441" type="line"/>
      <point x="323" y="463"/>
      <point x="279" y="484"/>
      <point x="221" y="484" type="curve" smooth="yes"/>
      <point x="126" y="484"/>
      <point x="46" y="424"/>
      <point x="46" y="331" type="curve" smooth="yes"/>
      <point x="46" y="233"/>
      <point x="126" y="166"/>
      <point x="224" y="166" type="curve" smooth="yes"/>
      <point x="273" y="166"/>
      <point x="319" y="186"/>
      <point x="355" y="214" type="curve"/>
      <point x="357" y="214" type="line"/>
      <point x="356" y="210"/>
      <point x="355" y="191"/>
      <point x="355" y="157" type="curve" smooth="yes"/>
    </contour>
    <contour>
      <point x="214" y="236" type="curve" smooth="yes"/>
      <point x="168" y="236"/>
      <point x="127" y="264"/>
      <point x="127" y="321" type="curve" smooth="yes"/>
      <point x="127" y="377"/>
      <point x="175" y="413"/>
      <point x="230" y="413" type="curve" smooth="yes"/>
      <point x="278" y="413"/>
      <point x="320" y="398"/>
      <point x="355" y="380" type="curve"/>
      <point x="355" y="311" type="line"/>
      <point x="317" y="271"/>
      <point x="268" y="236"/>
    </contour>
    <contour>
      <point x="815" y="-244" type="line"/>
      <point x="922" y="-188"/>
      <point x="1065" y="-140"/>
      <point x="1065" y="73" type="curve" smooth="yes"/>
      <point x="1065" y="91" type="line"/>
      <point x="984" y="91" type="line"/>
      <point x="984" y="83" type="line" smooth="yes"/>
      <point x="984" y="-85"/>
      <point x="880" y="-134"/>
      <point x="783" y="-181" type="curve"/>
    </contour>
    <contour>
      <point x="730" y="126" type="curve" smooth="yes"/>
      <point x="708" y="126"/>
      <point x="693" y="143"/>
      <point x="693" y="172" type="curve" smooth="yes"/>
      <point x="693" y="215"/>
      <point x="722" y="244"/>
      <point x="768" y="278" type="curve"/>
      <point x="771" y="254"/>
      <point x="772" y="231"/>
      <point x="772" y="208" type="curve" smooth="yes"/>
      <point x="772" y="156"/>
      <point x="757" y="126"/>
    </contour>
  </outline>
</glyph>
